<svg id='preview-icon' xmlns="http://www.w3.org/2000/svg" viewBox="5664 577.505 47.842 25.99">
  <g id="Symbol_4_1" data-name="Symbol 4 – 1" transform="translate(4075 544)">
    <g id="Path_12" data-name="Path 12" class="cls-1" transform="translate(1589 33.505)">
      <path class="cls-3" d="M23.911,0C37.117,0,48.369,13.688,47.822,13s-10.705,13-23.911,13S-.065,13,0,13,10.705,0,23.911,0Z"/>
      <path class="cls-4" d="M 23.91109466552734 23.99031448364258 C 27.85291481018066 23.99031448364258 32.00706481933594 22.60873603820801 36.25813293457031 19.88395500183105 C 39.88109588623047 17.56177520751953 42.78660583496094 14.77086544036865 44.5225944519043 13.10334491729736 C 44.64138031005859 12.98924446105957 44.75457763671875 12.88051128387451 44.86300277709961 12.7767505645752 C 43.5113639831543 11.41405582427979 41.46485900878906 9.521152496337891 38.92094421386719 7.689895153045654 C 36.57654571533203 6.002255439758301 34.2236328125 4.666425228118896 31.92757415771484 3.719505310058594 C 29.16097450256348 2.578525304794312 26.46383476257324 2.00000524520874 23.91109466552734 2.00000524520874 C 21.32608413696289 2.00000524520874 18.62769508361816 2.559905290603638 15.89088439941406 3.664145231246948 C 13.61526393890381 4.582315444946289 11.29912376403809 5.880325317382812 9.006824493408203 7.522135257720947 C 6.810440063476562 9.095248222351074 4.610257148742676 11.01439666748047 2.692478179931641 13.02137470245361 C 3.849779844284058 14.24428462982178 5.897483825683594 16.23858261108398 8.625324249267578 18.22599601745605 C 10.96356391906738 19.92955589294434 13.33132457733154 21.28008460998535 15.66284465789795 22.24007606506348 C 18.48348426818848 23.40144538879395 21.25859451293945 23.99031448364258 23.91109466552734 23.99031448364258 M 23.91109466552734 25.99031448364258 C 10.70537376403809 25.99031448364258 -0.06496581435203552 13.00460529327393 1.418762167304521e-05 12.99515533447266 C 0.06498418748378754 12.98570537567139 10.70537376403809 5.334472461981932e-06 23.91109466552734 5.334472461981932e-06 C 36.36078262329102 5.334472461981932e-06 47.07411956787109 12.16586971282959 47.80192565917969 12.97813320159912 C 47.79130935668945 12.97250175476074 47.77866363525391 12.96969509124756 47.76420211791992 12.96969509124756 C 46.77252960205078 12.96969509124756 36.79119491577148 25.99031448364258 23.91109466552734 25.99031448364258 Z M 47.84125137329102 13.02061557769775 C 47.84025573730469 13.02061557769775 47.82704162597656 13.0061616897583 47.80192565917969 12.97813320159912 C 47.80971908569336 12.98226547241211 47.81647872924805 12.98792171478271 47.82218551635742 12.99515533447266 C 47.83569717407227 13.01228809356689 47.84200668334961 13.02061557769775 47.84125137329102 13.02061557769775 Z"/>
    </g>
    <g id="Ellipse_30" data-name="Ellipse 30" class="cls-2" transform="translate(1604 38)">
      <circle class="cls-3" cx="8.5" cy="8.5" r="8.5"/>
      <circle class="cls-5" cx="8.5" cy="8.5" r="7.5"/>
    </g>
  </g>
</svg>
