<svg xmlns="http://www.w3.org/2000/svg" viewBox="0 0 312 35">
  <title>Terra Foundation for American Art</title>
  <style>.cls-1 { fill: #FFFCF6; }</style>
  <path class="cls-1" d="M55.18,30.02c-9.19,0-14.86-3.05-15.65-8.37h32.67v-2.29c-.83-7.34-8.26-12.28-18.5-12.28-10.98,0-18.66,5.46-18.66,13.27,0,8.52,7.32,13.6,19.58,13.6,6.78,0,13-1.52,17.51-4.29l.16-.1.15-4.48-.57.39c-4.36,2.97-10.13,4.55-16.7,4.55h0ZM53.77,10.93c7.36,0,12.72,2.94,13.83,7.52h-27.97c1.02-4.58,6.51-7.52,14.14-7.52Z"/>
  <path class="cls-1" d="M30.96,12.9l.11-3.63H12.92V.89h-4.3v8.37H.15L0,12.89h8.61v9.95c0,7.14,3.8,10.92,10.98,10.92,2.93,0,8.51-.78,11.2-2.46l.16-.1.06-4.12-.55.37c-2.22,1.5-7.16,2.54-10.2,2.54h-.35c-4.77-.11-6.99-2.55-6.99-7.65v-9.44h18.04,0Z"/>
  <path class="cls-1" d="M115.13,11.05c-2.67,1.21-5.06,2.93-7.11,5.13-2.05,2.19-3.65,4.73-4.77,7.56-1.16,2.93-1.75,6.03-1.75,9.23,0,.27,0,.53.02.79h4.27c0-.26-.02-.53-.02-.79,0-2.64.48-5.2,1.44-7.61.92-2.32,2.23-4.41,3.9-6.2,1.66-1.78,3.6-3.17,5.75-4.15,2.22-1,4.58-1.51,7.01-1.51,1.16,0,2.3.12,3.41.35v-4.4c-1.12-.18-2.26-.28-3.41-.28-3.04,0-5.97.63-8.75,1.89h0Z"/>
  <path class="cls-1" d="M102.95,9.26h-25.81v24.42h4.31V13.38h21.5v-4.11Z"/>
  <path class="cls-1" d="M147.72,7.3h-.35c-5.77.06-11.19,1.21-15.3,3.27l-.18.09-.2,4.43.55-.32c4.11-2.36,9.4-3.66,14.9-3.66s12.38,1.44,12.57,8.26c-3.88-1.87-8.76-2.9-13.79-2.9-9.73,0-15.54,3.32-15.54,8.88s5.43,8.78,14.17,8.78c5.48,0,10.83-1.45,15.16-4.1v3.58h4.35v-14.05c0-8.14-5.5-12.27-16.35-12.27h0ZM159.71,26.55c-3.7,2.51-9,4-14.23,4h0c-6.43,0-10.42-2.05-10.42-5.36s4.29-5.41,11.46-5.41c5.01,0,9.69,1,13.2,2.81v3.95h0Z"/>
  <path class="cls-1" d="M191.84,14.1v-5.92h6.14v-1.88h-6.14v-3.52h6.32V.93h-8.36v13.17h2.04Z"/>
  <path class="cls-1" d="M208.47,9.39c0-3.14-1.57-4.87-4.41-4.87s-4.41,1.73-4.41,4.87,1.57,4.89,4.41,4.89,4.41-1.78,4.41-4.89ZM201.6,9.39c0-2,.87-3.11,2.46-3.11s2.46,1.1,2.46,3.11-.87,3.13-2.46,3.13-2.46-1.11-2.46-3.13Z"/>
  <path class="cls-1" d="M218.7,14.09V4.71h-1.98v5.09c0,1.95-.66,2.74-2.27,2.74s-2.25-.79-2.25-2.74v-5.09h-1.98v5.28c0,2.97,1.12,4.3,3.64,4.3.66,0,1.33-.12,1.98-.36h.03s.69-1.44.69-1.44h.28v1.61h1.86Z"/>
  <path class="cls-1" d="M229.54,14.1v-5.28c0-2.97-1.14-4.3-3.69-4.3-.71,0-1.37.12-1.95.36h-.03s-.67,1.43-.67,1.43h-.28v-1.61h-1.85v9.38h1.98v-5.09c0-1.93.68-2.75,2.27-2.75s2.25.8,2.25,2.75v5.09h1.98,0Z"/>
  <path class="cls-1" d="M240.1,14.09V.92h-1.98v4.42c-.67-.56-1.51-.82-2.61-.82-2.67,0-4.21,1.78-4.21,4.87s1.54,4.89,4.22,4.89h0c.67,0,1.21-.1,1.73-.32h.03s.69-1.47.69-1.47h.28v1.61h1.85,0ZM238.19,9.39c0,2.23-.73,3.18-2.46,3.18-1.58,0-2.48-1.16-2.48-3.18s.88-3.11,2.48-3.11,2.46,1.1,2.46,3.11Z"/>
  <path class="cls-1" d="M251.3,14.1v-1.76h-.85c-.18,0-.24-.06-.24-.23v-3.45c0-2.63-1.49-4.13-4.1-4.13s-4.12,1.36-4.24,3.74v.09h1.9v-.08c.09-1.38.8-2.02,2.25-2.02s2.21.73,2.21,2.06c0,.16-.06.23-.23.25l-2.95.31c-1.98.21-2.87,1.02-2.87,2.63,0,1.74,1.2,2.78,3.21,2.78.75,0,1.38-.13,1.95-.38h.03s.72-1.52.72-1.52h.28c.06,1.15.65,1.72,1.8,1.72h1.14,0ZM248.24,9.61v.2c0,1.89-.79,2.77-2.5,2.77-1.05,0-1.65-.46-1.65-1.26s.48-1.22,1.67-1.37l2.48-.34h0Z"/>
  <path class="cls-1" d="M253.29,10.61c0,2.25,1.23,3.49,3.46,3.49h1.55v-1.76h-1.38c-1.12,0-1.65-.55-1.65-1.71v-4.16h3.03v-1.76h-3.03v-2.67h-1.98v2.67h-1.69v1.76h1.69v4.14h0Z"/>
  <path class="cls-1" d="M262.29,2.29c0-.89-.53-1.42-1.42-1.42s-1.44.53-1.44,1.42.55,1.42,1.44,1.42,1.42-.53,1.42-1.42Z"/>
  <path class="cls-1" d="M261.85,4.71h-1.98v9.38h1.98V4.71Z"/>
  <path class="cls-1" d="M268.11,4.52c-2.84,0-4.41,1.73-4.41,4.87s1.57,4.89,4.41,4.89,4.41-1.78,4.41-4.89-1.57-4.87-4.41-4.87ZM270.57,9.39c0,2.02-.87,3.13-2.46,3.13s-2.46-1.11-2.46-3.13.87-3.11,2.46-3.11,2.46,1.1,2.46,3.11Z"/>
  <path class="cls-1" d="M276.35,9.01c0-1.93.68-2.75,2.27-2.75s2.25.8,2.25,2.75v5.09h1.98v-5.28c0-2.97-1.14-4.3-3.69-4.3-.71,0-1.37.12-1.95.36h-.03s-.67,1.43-.67,1.43h-.28v-1.61h-1.85v9.38h1.98v-5.09h0Z"/>
  <path class="cls-1" d="M289.89,14.09h1.98v-7.62h3.3v-1.76h-3.3v-.39c0-1.11.5-1.62,1.57-1.62h1.73V.92h-1.82c-2.23,0-3.46,1.24-3.46,3.49v.3h-1.61v.08h-.09v1.68h1.69v7.62h0Z"/>
  <path class="cls-1" d="M300.34,4.52c-2.84,0-4.41,1.73-4.41,4.87s1.57,4.89,4.41,4.89,4.41-1.78,4.41-4.89-1.57-4.87-4.41-4.87ZM302.8,9.39c0,2.02-.87,3.13-2.46,3.13s-2.46-1.11-2.46-3.13.87-3.11,2.46-3.11,2.46,1.1,2.46,3.11Z"/>
  <path class="cls-1" d="M311.94,4.67c-.25-.07-.54-.1-.93-.1-.51,0-1.09.1-1.54.27h-.03s-.7,1.51-.7,1.51h-.28v-1.64h-1.85v9.38h1.98v-5.35c0-1.61.5-2.18,1.92-2.18h1.51v-1.88l-.07-.02Z"/>
  <path class="cls-1" d="M195.64,20.46h-2.13l-4.67,13.05-.04.12h2.08l1.15-3.32h5.06l1.15,3.32h2.11l-4.69-13.11-.02-.06ZM194.41,22.71h.29l.37,1.86,1.38,3.94h-3.8l1.38-3.96.37-1.85h0Z"/>
  <path class="cls-1" d="M212.74,24.06c-.64,0-1.27.12-1.91.36h-.03s-.73,1.55-.73,1.55h-.27c-.51-1.28-1.54-1.9-3.16-1.9-.54,0-1.19.13-1.78.36h-.03s-.67,1.44-.67,1.44h-.28v-1.61h-1.85v9.38h1.98v-5.09c0-1.9.64-2.75,2.08-2.75s2.06.85,2.06,2.75v5.09h1.98v-5.09c0-1.93.62-2.75,2.08-2.75s2.09.82,2.09,2.75v5.09h1.98v-5.28c0-2.97-1.09-4.3-3.53-4.3h0Z"/>
  <path class="cls-1" d="M224.82,30.19c-.17,1.3-.9,1.9-2.28,1.9-1.65,0-2.53-.97-2.6-2.89h6.04c.38,0,.58-.21.58-.63,0-2.83-1.56-4.51-4.17-4.51-2.82,0-4.37,1.73-4.37,4.87s1.6,4.89,4.51,4.89c2.49,0,4.02-1.31,4.21-3.61v-.1s-1.91,0-1.91,0v.07h-.01ZM224.35,28.01l-4.35.07c.22-1.48,1.07-2.3,2.4-2.3s2.19.82,2.19,2c0,.16-.06.22-.24.22Z"/>
  <path class="cls-1" d="M232.93,24.12c-.52,0-1.09.1-1.54.27h-.03s-.7,1.51-.7,1.51h-.28v-1.64h-1.85v9.38h1.98v-5.35c0-1.59.52-2.18,1.92-2.18h1.51v-1.88l-.07-.02c-.25-.07-.54-.1-.93-.1h0Z"/>
  <path class="cls-1" d="M237.55,24.25h-1.98v9.38h1.98v-9.38Z"/>
  <path class="cls-1" d="M236.57,20.41c-.9,0-1.44.53-1.44,1.42s.55,1.42,1.44,1.42,1.42-.53,1.42-1.42-.53-1.42-1.42-1.42Z"/>
  <path class="cls-1" d="M246.22,29.74c-.19,1.52-1.03,2.32-2.41,2.32-1.59,0-2.46-1.11-2.46-3.13s.87-3.11,2.46-3.11c1.35,0,2.13.82,2.22,2.3v.08h1.94v-.09c-.1-2.58-1.61-4.06-4.17-4.06h-.09c-2.79.04-4.32,1.77-4.32,4.88s1.57,4.89,4.41,4.89c2.59,0,4.13-1.44,4.35-4.07v-.1s-1.93,0-1.93,0v.07s0,0,0,0Z"/>
  <path class="cls-1" d="M257.71,31.64v-3.45c0-2.63-1.49-4.13-4.1-4.13s-4.12,1.36-4.24,3.74v.09h1.9v-.08c.09-1.38.81-2.02,2.25-2.02s2.21.73,2.21,2.06c0,.16-.06.23-.24.25l-2.95.32c-1.98.21-2.87,1.02-2.87,2.63,0,1.74,1.2,2.78,3.21,2.78.74,0,1.38-.12,1.95-.38h.03s.72-1.52.72-1.52h.28c.06,1.15.65,1.71,1.8,1.71h1.14v-1.76h-.86c-.18,0-.24-.06-.24-.23h0ZM255.73,29.14v.2c0,1.89-.79,2.77-2.5,2.77-1.05,0-1.65-.46-1.65-1.26s.48-1.22,1.67-1.37l2.48-.34h0Z"/>
  <path class="cls-1" d="M264.86,24.07c-.71,0-1.36.12-1.95.36h-.03s-.67,1.43-.67,1.43h-.28v-1.61h-1.85v9.38h1.98v-5.09c0-1.93.68-2.75,2.27-2.75s2.25.8,2.25,2.75v5.09h1.98v-5.28c0-2.97-1.14-4.3-3.69-4.3h0Z"/>
  <path class="cls-1" d="M281.05,20.46h-2.13l-4.67,13.05-.04.12h2.08l1.15-3.32h5.06l1.15,3.32h2.11l-4.69-13.11-.02-.06h0ZM279.82,22.71h.29l.37,1.86,1.38,3.94h-3.8l1.38-3.96.37-1.85h0Z"/>
  <path class="cls-1" d="M291.84,24.12c-.51,0-1.08.1-1.54.27h-.03s-.7,1.51-.7,1.51h-.28v-1.64h-1.85v9.38h1.98v-5.35c0-1.59.52-2.18,1.92-2.18h1.51v-1.88l-.06-.02c-.26-.07-.54-.1-.93-.1h0Z"/>
  <path class="cls-1" d="M297.14,21.57h-1.98v2.67h-1.69v1.76h1.69v4.14c0,2.25,1.23,3.49,3.46,3.49h1.55v-1.76h-1.38c-1.12,0-1.65-.55-1.65-1.71v-4.16h3.03v-1.76h-3.03v-2.67h0Z"/>
</svg>
