<?xml version="1.0" standalone="no"?>
<!DOCTYPE svg PUBLIC "-//W3C//DTD SVG 1.1//EN" "http://www.w3.org/Graphics/SVG/1.1/DTD/svg11.dtd" >
<svg>
<metadata>
Created by FontForge 20090622 at Sun Jul 17 07:48:00 2016
 By deploy user
&#194;&#169; 2013 Klim Type Foundry. All Rights Reserved.
</metadata>
<defs>
<font id="DomaineDisplay-SemiboldItalic" horiz-adv-x="651" >
  <font-face 
    font-family="Domaine Display Semibold"
    font-weight="600"
    font-style="italic"
    font-stretch="normal"
    units-per-em="1000"
    panose-1="2 10 7 3 8 5 5 13 2 3"
    ascent="780"
    descent="-220"
    x-height="492"
    cap-height="700"
    bbox="-231 -267 1195 991"
    underline-thickness="35"
    underline-position="-58"
    slope="-14"
    unicode-range="U+0020-U+FB04"
  />
<missing-glyph horiz-adv-x="500" 
 />
    <glyph glyph-name="ff" unicode="ff" horiz-adv-x="622" 
d="M271 492h163l12 43q1 4 3.5 12t4.5 12q-35 6 -47 23q30 4 48.5 28t18.5 56q0 27 -13.5 44t-39.5 17q-53 0 -85.5 -48t-55.5 -150zM157 21q-32 -130 -96.5 -187.5t-166.5 -60.5v2q44 20 75 93t64 216l88 382h-63l3 10l67 21l6 22q68 224 284 224q86 0 126 -40
q62 52 156 52q62 0 99 -23.5t37 -65.5q0 -38 -27.5 -59t-65.5 -21q-46 0 -62 23q29 5 45.5 27.5t16.5 51.5q0 51 -44 51q-39 0 -62 -40t-45 -143l-13 -64h119l-12 -26h-113l-105 -425q-32 -130 -96 -188t-166 -60v2q44 20 75 93.5t63 214.5l84 363h-162z" />
    <glyph glyph-name="fi" unicode="fi" horiz-adv-x="596" 
d="M430 466h-164l-109 -445q-32 -130 -96.5 -187.5t-166.5 -60.5v2q44 20 75 93t64 216l88 382h-63l3 10l67 21l10 30q77 228 294 228q72 0 116 -28.5t44 -71.5q0 -42 -29 -65t-70 -23q-50 0 -71 27q32 4 51.5 28t19.5 57q0 27 -15.5 43.5t-43.5 16.5q-110 0 -151 -194
l-12 -53h306l-98 -396q-3 -10 -3 -19q0 -39 42 -39q23 0 53 15l1 -2q-58 -61 -134 -61q-48 0 -74 24.5t-26 65.5q0 18 4 34z" />
    <glyph glyph-name="fl" unicode="fl" horiz-adv-x="596" 
d="M395 755q84 0 122 -55q63 17 119 53h4l-160 -657q-3 -10 -3 -19q0 -18 11.5 -28.5t30.5 -10.5q23 0 54 15v-2q-58 -61 -134 -61q-47 0 -73.5 24.5t-26.5 65.5q0 18 4 34l128 518q4 15 4 34q0 33 -18.5 53t-54.5 20q-45 0 -71 -42t-47 -147l-12 -58h102l-11 -26h-97
l-108 -444q-33 -131 -97 -188.5t-167 -60.5v2q44 20 75.5 93.5t64.5 215.5l87 382h-63l3 10l67 21l12 46q63 212 255 212z" />
    <glyph glyph-name="ffi" unicode="ffi" horiz-adv-x="904" 
d="M271 492h163l11 35q11 29 12 32q-35 4 -50 23q30 4 48.5 28t18.5 56q0 27 -13.5 44t-39.5 17q-53 0 -85.5 -48t-55.5 -150zM157 21q-32 -130 -96.5 -187.5t-166.5 -60.5v2q44 20 75 93t64 216l88 382h-63l3 10l67 21l6 22q68 224 284 224q96 0 134 -49q75 61 187 61
q73 0 117 -28.5t44 -71.5q0 -42 -29 -65t-70 -23q-51 0 -72 27q32 4 52 28t20 57q0 28 -15.5 44t-44.5 16q-108 0 -151 -194l-11 -53h306l-98 -396q-3 -10 -3 -19q0 -39 42 -39q23 0 53 15l1 -2q-58 -61 -134 -61q-48 0 -74 24.5t-26 65.5q0 18 4 34l88 352h-164l-106 -425
q-32 -130 -96 -188t-166 -60v2q44 20 75 93.5t63 214.5l84 363h-162z" />
    <glyph glyph-name="ffl" unicode="ffl" horiz-adv-x="902" 
d="M271 492h163l13 50q4 12 5 17q-33 6 -45 23q30 4 48.5 28t18.5 56q0 27 -13.5 44t-39.5 17q-53 0 -85.5 -48t-55.5 -150zM157 21q-32 -130 -96.5 -187.5t-166.5 -60.5v2q44 20 75 93t64 216l88 382h-63l3 10l67 21l6 22q68 224 284 224q86 0 126 -40q64 52 158 52
q83 0 121 -55q60 16 119 53h4l-160 -657q-3 -10 -3 -19q0 -39 42 -39q23 0 53 15l1 -2q-58 -61 -134 -61q-48 0 -74 24.5t-26 65.5q0 18 4 34l128 518q4 22 4 34q0 33 -18.5 53t-53.5 20q-45 0 -72 -42.5t-47 -146.5l-12 -58h103l-11 -26h-97l-105 -425
q-32 -131 -95.5 -188.5t-166.5 -59.5v2q44 20 75 93.5t63 214.5l84 363h-162z" />
    <glyph glyph-name="f_b" unicode="fb" horiz-adv-x="904" 
d="M639 753l-96 -389q33 60 82 99t110 39q73 0 112.5 -49t39.5 -132q0 -131 -79.5 -231t-200.5 -100q-57 0 -100 28t-57 72q-45 -76 -148 -99q24 68 62 221l105 420q4 17 4 35q0 33 -18 52.5t-53 19.5q-45 0 -71 -42t-47 -147l-12 -58h102l-11 -26h-97l-108 -444
q-33 -131 -97 -188.5t-167 -60.5v2q44 20 75.5 93.5t64.5 215.5l87 382h-63l3 10l67 21l12 46q63 212 255 212q84 0 122 -55q60 16 119 53h3zM743 331q0 109 -72 109q-49 0 -90.5 -45t-57.5 -113l-25 -99q-9 -41 -9 -69q0 -44 21.5 -66.5t55.5 -22.5q50 0 91.5 48.5
t63.5 118t22 139.5z" />
    <glyph glyph-name="f_f_b" unicode="ffb" horiz-adv-x="1211" 
d="M271 492h163l13 50q4 12 5 17q-33 6 -45 23q30 4 48.5 28t18.5 56q0 27 -13.5 44t-39.5 17q-53 0 -85.5 -48t-55.5 -150zM157 21q-32 -130 -96.5 -187.5t-166.5 -60.5v2q44 20 75 93t64 216l88 382h-63l3 10l67 21l6 22q68 224 284 224q86 0 126 -40q64 52 158 52
q83 0 121 -55q63 17 119 53h3l-95 -389q33 60 82 99t110 39q73 0 112.5 -49t39.5 -132q0 -131 -79.5 -231t-200.5 -100q-57 0 -100 28t-57 72q-45 -76 -148 -99q27 81 62 221l104 420q5 22 5 35q0 33 -18.5 52.5t-52.5 19.5q-45 0 -72 -42.5t-47 -146.5l-12 -58h103l-11 -26
h-97l-105 -425q-32 -131 -95.5 -188.5t-166.5 -59.5v2q44 20 75 93.5t63 214.5l84 363h-162zM1050 331q0 109 -73 109q-49 0 -90 -44.5t-57 -113.5l-25 -99q-10 -45 -10 -69q0 -44 22 -66.5t56 -22.5q50 0 91.5 48.5t63.5 118t22 139.5z" />
    <glyph glyph-name="f_f_h" unicode="ffh" horiz-adv-x="1206" 
d="M271 492h163l13 50q4 12 5 17q-33 6 -45 23q30 4 48.5 28t18.5 56q0 27 -13.5 44t-39.5 17q-53 0 -85.5 -48t-55.5 -150zM157 21q-32 -130 -96.5 -187.5t-166.5 -60.5v2q44 20 75 93t64 216l88 382h-63l3 10l67 21l6 22q68 224 284 224q86 0 126 -40q64 52 158 52
q83 0 121 -55q61 16 120 53h3l-104 -420q38 77 93.5 123t120.5 46q53 0 79.5 -30t26.5 -79q0 -25 -8 -57l-60 -240q-3 -10 -3 -19q0 -39 42 -39q23 0 53 15l1 -2q-58 -61 -134 -61q-48 0 -74 24.5t-26 65.5q0 18 4 34l56 223q7 30 7 46q0 45 -45 45q-44 0 -89.5 -50
t-67.5 -142l-59 -236h-141l157 632q5 22 5 35q0 33 -18.5 52.5t-52.5 19.5q-45 0 -72 -42.5t-47 -146.5l-12 -58h103l-11 -26h-97l-105 -425q-32 -131 -95.5 -188.5t-166.5 -59.5v2q44 20 75 93.5t63 214.5l84 363h-162z" />
    <glyph glyph-name="f_f_j" unicode="ffj" horiz-adv-x="888" 
d="M271 492h163l11 35q11 29 12 32q-35 4 -50 23q30 4 48.5 28t18.5 56q0 27 -13.5 44t-39.5 17q-53 0 -85.5 -48t-55.5 -150zM494 -191q47 0 75 45t51 139l118 473h-164l-106 -425q-9 -36 -21 -67q39 -3 57 -25q-30 -4 -48 -26t-18 -53q0 -27 14.5 -44t41.5 -17zM157 21
q-32 -130 -96.5 -187.5t-166.5 -60.5v2q44 20 75 93t64 216l88 382h-63l3 10l67 21l6 22q68 224 284 224q96 0 134 -49q75 61 187 61q73 0 117 -28.5t44 -71.5q0 -42 -29 -65t-70 -23q-51 0 -72 27q32 4 52 28t20 57q0 28 -15.5 44t-44.5 16q-108 0 -151 -194l-11 -53h307
l-105 -422q-37 -148 -107.5 -212.5t-180.5 -64.5q-91 0 -133 50q-60 -48 -154 -50v2q44 20 75 93.5t63 214.5l84 363h-162z" />
    <glyph glyph-name="f_f_k" unicode="ffk" horiz-adv-x="1201" 
d="M271 492h163l13 50q4 12 5 17q-33 6 -45 23q30 4 48.5 28t18.5 56q0 27 -13.5 44t-39.5 17q-53 0 -85.5 -48t-55.5 -150zM157 21q-32 -130 -96.5 -187.5t-166.5 -60.5v2q44 20 75 93t64 216l88 382h-63l3 10l67 21l6 22q68 224 284 224q86 0 126 -40q64 52 158 52
q83 0 121 -55q61 16 120 53h3l-111 -446q44 81 113 138t141 57q49 0 77.5 -26.5t28.5 -69.5q0 -68 -55.5 -110.5t-143.5 -56.5l64 -143q25 -52 70 -52q23 0 46 13v-2q-26 -32 -63.5 -48.5t-73.5 -16.5q-47 0 -75.5 23t-44.5 72l-62 159q25 -10 55 -10q64 0 110 38.5t46 96.5
q0 28 -15.5 45t-42.5 17q-54 0 -114.5 -62.5t-87.5 -168.5l-49 -200h-141l157 632q5 22 5 35q0 33 -18.5 52.5t-52.5 19.5q-45 0 -72 -42.5t-47 -146.5l-12 -58h103l-11 -26h-97l-105 -425q-32 -131 -95.5 -188.5t-166.5 -59.5v2q44 20 75 93.5t63 214.5l84 363h-162z" />
    <glyph glyph-name="f_h" unicode="fh" horiz-adv-x="904" 
d="M140 543q63 212 255 212q84 0 122 -55q63 17 119 53h4l-104 -420q37 76 92.5 122.5t121.5 46.5q53 0 79 -30t26 -79q0 -25 -8 -57l-60 -240q-3 -10 -3 -19q0 -18 11.5 -28.5t30.5 -10.5q24 0 54 15l1 -2q-60 -61 -134 -61q-48 0 -74.5 24.5t-26.5 65.5q0 14 5 34l55 223
q7 24 7 46q0 45 -44 45t-89.5 -50t-68.5 -142l-58 -236h-141l157 632q4 17 4 35q0 33 -18 52.5t-53 19.5q-45 0 -71 -42t-47 -147l-12 -58h102l-11 -26h-97l-108 -444q-33 -131 -97 -188.5t-167 -60.5v2q44 20 75.5 93.5t64.5 215.5l87 382h-63l3 10l67 21z" />
    <glyph glyph-name="f_j" unicode="fj" horiz-adv-x="580" 
d="M183 -197q47 0 75 45t52 139l120 479h-164l-109 -445q-9 -34 -16 -54q34 -3 53 -24q-31 -4 -48.5 -25.5t-17.5 -53.5q0 -27 14 -44t41 -17zM183 -213q-84 0 -127 43q-61 -54 -162 -57v2q44 20 75 93t64 216l88 382h-63l3 10l67 21l10 30q77 228 294 228q72 0 116 -28.5
t44 -71.5q0 -42 -29 -65t-70 -23q-50 0 -71 27q32 4 51.5 28t19.5 57q0 27 -15.5 43.5t-43.5 16.5q-110 0 -151 -194l-12 -53h306l-107 -428q-37 -148 -107 -212.5t-180 -64.5z" />
    <glyph glyph-name="f_k" unicode="fk" horiz-adv-x="894" 
d="M473 667q0 33 -18 52.5t-53 19.5q-45 0 -71 -42t-47 -147l-12 -58h102l-11 -26h-97l-108 -444q-33 -131 -97 -188.5t-167 -60.5v2q44 20 75.5 93.5t64.5 215.5l87 382h-63l3 10l67 21l12 46q63 212 255 212q85 0 121 -55q64 17 120 53h4l-112 -446q44 81 113.5 138
t141.5 57q49 0 77 -26.5t28 -69.5q0 -68 -55.5 -110.5t-143.5 -56.5l65 -143q23 -52 70 -52q22 0 45 13v-2q-26 -32 -63.5 -48.5t-73.5 -16.5q-47 0 -75.5 23t-44.5 72l-62 159q25 -10 56 -10q63 0 109 38.5t46 96.5q0 28 -15.5 45t-42.5 17q-53 0 -114 -62.5t-87 -168.5
l-50 -200h-141l158 632q4 17 4 35z" />
    <glyph glyph-name="f_idieresis" unicode="f&#xef;" horiz-adv-x="596" 
d="M648 719q34 0 55 -21t21 -53q0 -34 -24 -57.5t-60 -23.5q-32 0 -53 21t-21 51q0 35 24 59t58 24zM271 492h306l-98 -396q-3 -10 -3 -19q0 -39 42 -39q23 0 53 15l1 -2q-58 -61 -134 -61q-48 0 -74 24.5t-26 65.5q0 18 4 34l88 352h-164l-109 -445q-32 -130 -96.5 -187.5
t-166.5 -60.5v2q44 20 75 93t64 216l88 382h-63l3 10l67 21l11 39q35 112 96 165.5t156 53.5q64 0 99.5 -27.5t35.5 -70.5q0 -41 -28.5 -63.5t-68.5 -22.5q-45 0 -65 24q31 4 49.5 27.5t18.5 56.5q0 60 -43 60q-37 0 -60 -40.5t-44 -142.5z" />
    <glyph glyph-name="f_f_idieresis" unicode="ff&#xef;" horiz-adv-x="904" 
d="M271 492h163l12 44q3 10 8 23q-35 6 -47 23q30 4 48.5 28t18.5 56q0 27 -13.5 44t-39.5 17q-53 0 -85.5 -48t-55.5 -150zM956 719q33 -1 54 -22t21 -52q0 -35 -24 -58.5t-59 -22.5q-33 -1 -54 20t-21 52q0 34 24 58t59 25zM157 21q-32 -130 -96.5 -187.5t-166.5 -60.5v2
q44 20 75 93t64 216l88 382h-63l3 10l67 21l6 22q68 224 284 224q84 0 126 -40q63 52 155 52q63 -1 98.5 -28.5t36.5 -69.5q-1 -42 -30 -65t-68 -21q-45 -3 -64 24q30 3 48.5 27t18.5 57q0 59 -42 60q-38 -1 -61 -41.5t-44 -141.5l-13 -64h306l-98 -396q-3 -10 -3 -19
q0 -39 42 -39q23 0 53 15l1 -2q-58 -61 -134 -61q-48 0 -74 24.5t-26 65.5q0 18 4 34l88 352h-164l-106 -425q-32 -130 -96 -188t-166 -60v2q44 20 75 93.5t63 214.5l84 363h-162z" />
    <glyph glyph-name=".notdef" horiz-adv-x="500" 
 />
    <glyph glyph-name=".null" horiz-adv-x="0" 
 />
    <glyph glyph-name="nonmarkingreturn" horiz-adv-x="333" 
 />
    <glyph glyph-name="space" unicode=" " horiz-adv-x="200" 
 />
    <glyph glyph-name="exclam" unicode="!" horiz-adv-x="287" 
d="M351 700l-213 -471h-5l29 471h189zM194 80q0 -37 -25 -62.5t-62 -25.5t-62.5 25.5t-25.5 62.5t25.5 62.5t62.5 25.5t62 -25.5t25 -62.5z" />
    <glyph glyph-name="quotedbl" unicode="&#x22;" horiz-adv-x="453" 
d="M168 404h-3q11 162 -19 248q16 26 41.5 42t52.5 16t47.5 -16.5t22.5 -41.5q-32 -38 -67.5 -100t-54.5 -105zM368 404h-4q11 162 -18 248q15 26 41 42t53 16t47.5 -16.5t22.5 -41.5q-32 -38 -67.5 -100t-54.5 -105z" />
    <glyph glyph-name="numbersign" unicode="#" horiz-adv-x="635" 
d="M377 243l85 215h-152l-85 -215h152zM282 0l86 219h-152l-86 -219h-24l86 219h-158l10 24h157l84 215h-171l10 24h171l85 218h25l-86 -218h152l86 218h25l-85 -218h156l-10 -24h-156l-84 -215h171l-11 -24h-169l-86 -219h-26z" />
    <glyph glyph-name="dollar" unicode="$" horiz-adv-x="588" 
d="M384 690h-10l-62 -250l56 -24l67 268q-24 6 -51 6zM225 544q0 -58 72 -96l60 240q-58 -8 -94.5 -48t-37.5 -96zM256 7h10l67 268q-31 14 -56 23l-71 -285q22 -6 50 -6zM436 163q0 36 -23 60.5t-66 45.5l-65 -261q69 8 111.5 50.5t42.5 104.5zM255 -11q-28 0 -55 3
l-26 -106h-17l27 109q-82 13 -132.5 51.5t-50.5 87.5q0 44 30.5 71.5t74.5 26.5q45 0 64 -30q-28 -3 -46 -25.5t-18 -55.5t23 -61t61 -42l71 287q-74 31 -115.5 69.5t-41.5 107.5q0 96 73.5 158t183.5 67l26 103h17l-25 -102h5q29 0 56 -3l26 105h16l-27 -108
q71 -12 113 -45t42 -75q0 -39 -27.5 -63t-65.5 -24q-21 0 -39.5 9t-25.5 20q26 2 45 22.5t19 52.5q0 56 -67 80l-66 -269q31 -13 50.5 -22t45.5 -25.5t40.5 -33.5t25 -42.5t10.5 -56.5q0 -103 -82 -168.5t-195 -71.5l-26 -104h-16l26 103h-7z" />
    <glyph glyph-name="percent" unicode="%" horiz-adv-x="683" 
d="M79 0h-45l588 672q-23 -17 -63 -30t-79 -13q-55 0 -99 22q21 -30 21 -74q0 -71 -52.5 -123t-124.5 -52q-54 0 -91 39t-37 94q0 71 52.5 123t124.5 52q38 0 98 -30t109 -30q95 0 185 69l11 -9zM222 420q35 0 64.5 74.5t29.5 136.5q0 61 -39 61q-35 0 -64 -74t-30 -137
q0 -61 39 -61zM462 -5q-54 0 -91 39t-37 94q0 71 52.5 123t124.5 52q54 0 91 -39t37 -94q0 -71 -52.5 -123t-124.5 -52zM459 13q35 0 64.5 74.5t29.5 136.5q0 61 -39 61q-35 0 -64 -74t-30 -137q-2 -61 39 -61z" />
    <glyph glyph-name="ampersand" unicode="&#x26;" horiz-adv-x="851" 
d="M603 -10q-101 0 -190 103q-101 -103 -201 -103q-81 0 -135.5 46t-54.5 124q0 79 62.5 132.5t154.5 70.5q-31 74 -31 130q0 99 65.5 158t156.5 59q81 0 126.5 -34.5t45.5 -89.5q0 -71 -67 -121t-161 -69q27 -53 57 -101q28 -45 58 -85q90 114 125 148q72 70 135 70
q40 0 62.5 -20t22.5 -52q0 -35 -25 -59.5t-64 -25.5q14 16 14 40q0 43 -49 43q-28 0 -55 -11.5t-55.5 -38t-47.5 -48t-51 -61.5q101 -128 192 -128q55 0 104 37l2 -3q-74 -111 -196 -111zM327 566q0 -66 42 -160q61 26 97.5 73.5t36.5 112.5q0 43 -18 72t-55 29
q-45 0 -74 -35t-29 -92zM280 48q56 0 119 61q-32 38 -84 116q-46 67 -73 129q-92 -55 -92 -163q0 -62 35.5 -102.5t94.5 -40.5z" />
    <glyph glyph-name="quotesingle" unicode="'" horiz-adv-x="254" 
d="M168 404h-3q11 162 -19 248q16 26 41.5 42t52.5 16t47.5 -16.5t22.5 -41.5q-32 -38 -67.5 -100t-54.5 -105z" />
    <glyph glyph-name="parenleft" unicode="(" horiz-adv-x="348" 
d="M47 197q0 170 111.5 316t285.5 236h18q-127 -91 -210.5 -268.5t-83.5 -343.5q0 -177 77 -260h-18q-180 114 -180 320z" />
    <glyph glyph-name="parenright" unicode=")" horiz-adv-x="348" 
d="M335 429q0 -170 -111.5 -316t-285.5 -236h-18q127 91 210.5 268.5t83.5 343.5q0 177 -77 260h18q180 -114 180 -320z" />
    <glyph glyph-name="asterisk" unicode="*" horiz-adv-x="429" 
d="M279 759l118 -29q-16 -9 -43 -49t-41 -79q43 9 86 28.5t54 34.5l9 -122q-14 13 -59.5 26t-87.5 14q20 -37 52 -72t50 -42l-112 -46q8 14 6 63t-14 89q-29 -30 -52.5 -71.5t-24.5 -60.5l-79 93q19 -2 64 15t80 40q-39 17 -85.5 27t-63.5 5l63 103q3 -18 32.5 -55.5
t62.5 -64.5q6 41 0.5 89t-15.5 64z" />
    <glyph glyph-name="plus" unicode="+" horiz-adv-x="479" 
d="M451 308h-183l-45 -181h-28l45 181h-180l6 28h182l45 181h28l-45 -181h181z" />
    <glyph glyph-name="comma" unicode="," horiz-adv-x="241" 
d="M109 19q-19 -16 -49 -16t-49 20t-19 50q0 38 25 63t64 25q40 0 62.5 -27.5t22.5 -71.5q0 -83 -65 -137t-157 -57l2 17q66 5 112.5 42t50.5 92z" />
    <glyph glyph-name="hyphen" unicode="-" horiz-adv-x="322" 
d="M39 257l13 51h249l-13 -51h-249z" />
    <glyph glyph-name="period" unicode="." horiz-adv-x="241" 
d="M167 80q0 -37 -25.5 -62.5t-62.5 -25.5t-62 25.5t-25 62.5t25 62.5t62 25.5t62.5 -25.5t25.5 -62.5z" />
    <glyph glyph-name="slash" unicode="/" horiz-adv-x="349" 
d="M-84 -123l512 872h33l-513 -872h-32z" />
    <glyph glyph-name="zero" unicode="0" horiz-adv-x="670" 
d="M292 -10q-113 0 -177 77.5t-64 192.5q0 61 16.5 124t49 121.5t77 104t106 73t130.5 27.5q113 0 177.5 -77.5t64.5 -192.5q0 -61 -16.5 -124.5t-49.5 -121.5t-77.5 -103.5t-106 -73t-130.5 -27.5zM292 10q128 0 204 336q30 131 30 198q0 146 -96 146q-126 0 -204 -336
q-30 -131 -30 -198q0 -146 96 -146z" />
    <glyph glyph-name="one" unicode="1" horiz-adv-x="387" 
d="M308 0h-350v4l26.5 8.5t22.5 7.5t17.5 6.5t15.5 7t11 7t10.5 8l6.5 9.5t6.5 12.5t4.5 15.5l131 526q3 14 3 23q0 5 -1 9t-3 7.5t-4.5 6.5t-7.5 6l-9 5.5t-12 6t-13.5 5.5t-16.5 7t-19 8v4h255l-154 -614q-3 -13 -3 -23q0 -5 1 -9t3.5 -8t4.5 -6.5t7 -6t8.5 -5.5
t11.5 -5.5t13.5 -5.5l16 -6t17.5 -7v-4z" />
    <glyph glyph-name="two" unicode="2" horiz-adv-x="564" 
d="M356 693q-64 0 -105 -46t-41 -113q0 -34 15.5 -53t44.5 -19t52 16h2q-46 -76 -127 -76q-45 0 -72.5 28.5t-27.5 73.5q0 93 79.5 149.5t182.5 56.5q101 0 165 -42.5t64 -122.5q0 -39 -11.5 -73t-38 -65.5t-54 -56t-76 -55.5t-87.5 -53.5l-104 -59.5l-110 -64h183
q92 0 135.5 15.5t95.5 74.5h2l-79 -208h-498v2q269 219 342 289q119 113 148 201q15 45 15 97q0 49 -24 76.5t-71 27.5z" />
    <glyph glyph-name="three" unicode="3" horiz-adv-x="561" 
d="M220 7q72 0 117.5 75.5t45.5 161.5q0 121 -125 129v9q90 1 138 68t48 153q0 41 -19.5 65.5t-59.5 24.5q-48 0 -80 -39t-32 -88q0 -24 11 -38.5t30 -15.5q16 0 27 6h2q-34 -46 -95 -46q-40 0 -65 22t-25 60q0 73 67.5 114.5t159.5 41.5t156 -40.5t64 -111.5
q0 -79 -67.5 -127t-164.5 -56q76 -9 126.5 -51t50.5 -106q0 -74 -47 -127.5t-115.5 -77t-147.5 -23.5q-33 0 -68 8t-70 24.5t-57 48.5t-22 73q0 57 36.5 92t90.5 35q34 0 61 -16t34 -45h-2q-11 11 -30 11q-33 0 -52.5 -31.5t-19.5 -72.5q0 -51 25.5 -80.5t73.5 -29.5z" />
    <glyph glyph-name="four" unicode="4" horiz-adv-x="640" 
d="M327 221l97 384l-369 -384h272zM302 124l18 69h-326v3l492 510h110l-122 -485h39q44 0 65 13t51 56h2l-41 -166h-2q-10 44 -24 56.5t-58 12.5h-39l-18 -69q-9 -36 -9 -60q0 -40 35 -62v-2h-259v2q38 19 56 45t30 77z" />
    <glyph glyph-name="five" unicode="5" horiz-adv-x="564" 
d="M222 7q51 0 91 41.5t58.5 98t18.5 112.5q0 144 -116 144q-37 0 -78.5 -20t-70.5 -49h-2l117 373q105 -20 205 -20q67 0 103.5 7t68.5 35h2q-17 -82 -64 -127.5t-139 -45.5q-99 0 -189 33l-63 -204q74 60 180 60q89 -1 142.5 -49t53.5 -130q0 -122 -94 -199t-224 -77
q-46 0 -92.5 14t-85 51t-38.5 91q0 55 37 90t91 35q33 0 60.5 -16t34.5 -45h-2q-11 11 -30 11q-33 0 -52.5 -31.5t-19.5 -72.5q0 -51 25 -80.5t72 -29.5z" />
    <glyph glyph-name="six" unicode="6" horiz-adv-x="608" 
d="M469 532q27 0 44.5 22.5t17.5 57.5q0 37 -21.5 59t-62.5 22q-61 0 -115.5 -61t-86 -143.5t-41.5 -164.5q30 51 78 81.5t109 30.5q78 0 132 -47t54 -125q0 -117 -85.5 -195.5t-209.5 -78.5q-109 0 -170.5 75.5t-61.5 193.5q0 108 49.5 211t142.5 171.5t205 68.5
q82 0 135.5 -36.5t53.5 -99.5q0 -47 -31 -76t-76 -29q-40 0 -66 20t-28 54h2q10 -11 32 -11zM274 8q47 0 85 48.5t56 112.5t18 123q0 112 -84 112q-47 0 -85.5 -48.5t-57 -113t-18.5 -123.5q0 -51 21 -81t65 -30z" />
    <glyph glyph-name="seven" unicode="7" horiz-adv-x="526" 
d="M222 700h422v-2l-169 -188q-191 -207 -240 -501l-165 -15q27 76 66.5 146t97 139.5t102 116l120.5 121.5l50 48h-250q-67 0 -103 -19t-76 -76h-2l80 240q16 -10 67 -10z" />
    <glyph glyph-name="eight" unicode="8" horiz-adv-x="580" 
d="M582 564q0 -68 -53.5 -110.5t-124.5 -50.5q146 -71 146 -177q0 -109 -85 -172.5t-198 -63.5q-105 0 -178 46t-73 127q0 72 59 118.5t139 57.5q-89 56 -89 146q0 97 73.5 161t181.5 64q47 0 91.5 -14.5t77.5 -49t33 -82.5zM492 580q0 50 -30 81.5t-82 31.5
q-55 0 -93.5 -37.5t-38.5 -95.5q0 -69 73 -109l74 -41q42 22 69.5 69.5t27.5 100.5zM338 268l-116 65q-46 -25 -75 -72t-29 -108q0 -66 41.5 -105.5t107.5 -39.5q62 0 108.5 39t46.5 103q0 72 -84 118z" />
    <glyph glyph-name="nine" unicode="9" horiz-adv-x="608" 
d="M387 692q-47 0 -85 -48.5t-56 -112.5t-18 -123q0 -112 84 -112q47 0 85.5 48.5t57 113t18.5 123.5q0 51 -21 81t-65 30zM192 168q-27 0 -44.5 -22.5t-17.5 -57.5q0 -37 21.5 -59t62.5 -22q61 0 115.5 61t86 143.5t41.5 164.5q-67 -112 -187 -112q-78 0 -132 47t-54 125
q0 117 85.5 195.5t209.5 78.5q109 0 170.5 -75.5t61.5 -193.5q0 -108 -49.5 -211t-142.5 -171.5t-205 -68.5q-82 0 -135.5 36.5t-53.5 99.5q0 47 31 76t76 29q40 0 66 -20t28 -54h-2q-10 11 -32 11z" />
    <glyph glyph-name="colon" unicode=":" horiz-adv-x="241" 
d="M242 378q0 -37 -25.5 -62.5t-62.5 -25.5t-62 25.5t-25 62.5t25 62.5t62 25.5t62.5 -25.5t25.5 -62.5zM167 80q0 -37 -25.5 -62.5t-62.5 -25.5t-62 25.5t-25 62.5t25 62.5t62 25.5t62.5 -25.5t25.5 -62.5z" />
    <glyph glyph-name="semicolon" unicode=";" horiz-adv-x="241" 
d="M242 378q0 -37 -25.5 -62.5t-62.5 -25.5t-62 25.5t-25 62.5t25 62.5t62 25.5t62.5 -25.5t25.5 -62.5zM109 19q-19 -16 -49 -16t-49 20t-19 50q0 38 25 63t64 25q40 0 62.5 -27.5t22.5 -71.5q0 -83 -65 -137t-157 -57l2 17q66 5 112.5 42t50.5 92z" />
    <glyph glyph-name="less" unicode="&#x3c;" horiz-adv-x="351" 
d="M45 313l4 14l325 165l-9 -35l-278 -139l208 -139l-7 -31z" />
    <glyph glyph-name="equal" unicode="=" horiz-adv-x="484" 
d="M78 374l7 28h392l-7 -28h-392zM46 245l7 28h392l-7 -28h-392z" />
    <glyph glyph-name="greater" unicode="&#x3e;" horiz-adv-x="351" 
d="M344 327l-4 -14l-325 -165l9 35l278 139l-208 139l7 31z" />
    <glyph glyph-name="question" unicode="?" horiz-adv-x="514" 
d="M321 691q-53 0 -86 -32.5t-33 -84.5q0 -26 14 -41.5t37 -15.5q19 0 31 8h2q-33 -68 -101 -68q-39 0 -65 26.5t-26 64.5q0 77 68 119.5t160 42.5q98 0 160.5 -50.5t62.5 -129.5q0 -103 -83 -164t-210 -74l-18 -70h-21l47 186q77 10 126 52.5t49 119.5q0 52 -31 81.5
t-83 29.5zM194 168q37 0 62 -25.5t25 -62.5t-25 -62.5t-62 -25.5t-62.5 25.5t-25.5 62.5t25.5 62.5t62.5 25.5z" />
    <glyph glyph-name="at" unicode="@" horiz-adv-x="914" 
d="M726 456l-85 -294q-7 -21 -7 -39q0 -37 40 -37q56 0 114 84t58 199q0 128 -85 197.5t-218 69.5q-116 0 -216.5 -63.5t-158.5 -168t-58 -221.5q0 -152 93 -235t242 -83q194 0 328 104l2 -5q-61 -61 -149.5 -93.5t-182.5 -32.5q-181 0 -292 89t-111 255q0 128 69 238
t185.5 174t250.5 64q153 0 249 -75t96 -214q0 -146 -81.5 -237t-175.5 -91q-106 0 -114 101q-53 -101 -145 -101q-60 0 -96 41.5t-36 111.5q0 109 68.5 188.5t166.5 79.5q48 0 78 -23t37 -58q23 29 59.5 50t74.5 25zM537 224l28 102q7 21 7 41q0 29 -15 44.5t-38 15.5
q-54 0 -100.5 -80t-47.5 -166q0 -41 14.5 -67.5t41.5 -26.5q37 0 65.5 37.5t44.5 99.5z" />
    <glyph glyph-name="A" unicode="A" horiz-adv-x="724" 
d="M434 245l-54 281l-202 -281h256zM101 2v-2h-162v2q35 22 55.5 43.5t53.5 67.5l429 597h5l128 -597q10 -47 20 -68.5t33 -42.5v-2h-265v2q35 18 49.5 34.5t14.5 42.5q0 13 -3 28l-20 110h-280l-65 -90q-29 -42 -29 -70q0 -33 36 -55z" />
    <glyph glyph-name="B" unicode="B" horiz-adv-x="675" 
d="M320 0h-346v2q38 19 56 45t31 77l113 452q8 38 8 59q0 39 -35 63v2h317q102 0 159 -35.5t57 -109.5q0 -87 -65.5 -136.5t-163.5 -58.5q79 -6 132.5 -40.5t53.5 -100.5q0 -57 -27.5 -101t-74.5 -69t-101 -37t-114 -12zM268 370h71q85 0 141 52.5t56 138.5q0 53 -30.5 83
t-89.5 30h-72zM183 26h95q93 0 152 56t59 148q0 114 -142 114h-85z" />
    <glyph glyph-name="C" unicode="C" horiz-adv-x="659" 
d="M485 688q-77 0 -141.5 -59t-99.5 -150t-35 -190q0 -107 50.5 -168.5t139.5 -61.5q72 0 129 33t108 106h5q-46 -100 -125 -154t-183 -54q-128 0 -205 78t-77 203q0 183 123.5 311t298.5 128q56 0 111 -18t67 -18q29 0 63 29l-41 -226h-2q-45 211 -186 211z" />
    <glyph glyph-name="D" unicode="D" horiz-adv-x="755" 
d="M-26 0v2q38 19 56 45t31 77l113 452q9 43 9 59q0 39 -36 63v2h280q152 0 241 -71t89 -197q0 -134 -66 -233.5t-174.5 -149t-243.5 -49.5h-299zM183 26h90q100 0 176.5 63.5t114.5 162t38 212.5q0 97 -45 153.5t-140 56.5h-72z" />
    <glyph glyph-name="E" unicode="E" horiz-adv-x="652" 
d="M147 700h468q47 0 67 8l-10 -186h-2q-24 80 -63.5 116t-124.5 36h-138l-75 -301h111q62 0 94.5 20.5t72.5 88.5h2l-59 -237h-2q-6 66 -28.5 83t-86.5 17h-111l-79 -319h148q48 0 86.5 12t73.5 40t58 52.5t62 71.5h2l-78 -202h-561v2q38 19 56 45t31 77l113 452q8 38 8 59
q0 39 -35 63v2z" />
    <glyph glyph-name="F" unicode="F" horiz-adv-x="616" 
d="M260 333l-54 -214q-7 -27 -7 -47q0 -24 13 -39.5t44 -30.5v-2h-282v2q38 19 56 45t31 77l113 452q9 36 9 59q0 39 -36 63v2h459q47 0 67 8l-10 -186h-2q-25 81 -64 116.5t-124 35.5h-129l-77 -313h109q62 0 94.5 20.5t72.5 88.5h2l-59 -237h-2q-6 66 -28.5 83t-86.5 17
h-109z" />
    <glyph glyph-name="G" unicode="G" horiz-adv-x="750" 
d="M518 159l11 42q10 40 10 58q0 39 -37 64v2h258v-2q-38 -19 -56 -45t-31 -77l-55 -211h-2l-55 100q-41 -48 -100 -74t-124 -26q-130 0 -208 77.5t-78 203.5q0 92 36.5 175t96.5 140t138.5 90.5t161.5 33.5q55 0 111.5 -18t70.5 -18q30 0 64 29l-41 -226h-2
q-45 211 -192 211q-82 0 -151 -74t-104.5 -180.5t-35.5 -211.5q0 -92 36.5 -147.5t103.5 -55.5q135 0 174 140z" />
    <glyph glyph-name="H" unicode="H" horiz-adv-x="801" 
d="M234 2v-2h-260v2q38 19 56 45t31 77l113 452q8 38 8 59q0 39 -35 63v2h260v-2q-38 -19 -56 -45t-31 -77l-50 -202h327l50 202q8 38 8 59q0 39 -35 63v2h260v-2q-38 -19 -55.5 -45t-30.5 -77l-113 -452q-10 -34 -10 -59q0 -39 36 -63v-2h-260v2q38 19 56 45t31 77l55 221
h-327l-55 -221q-9 -36 -9 -59q0 -39 36 -63z" />
    <glyph glyph-name="I" unicode="I" horiz-adv-x="328" 
d="M147 700h260v-2q-38 -19 -56 -45t-31 -77l-113 -452q-9 -36 -9 -59q0 -39 36 -63v-2h-260v2q38 19 56 45t31 77l113 452q9 43 9 59q0 39 -36 63v2z" />
    <glyph glyph-name="J" unicode="J" horiz-adv-x="582" 
d="M340 166l103 410q9 36 9 59q0 39 -36 63v2h260v-2q-38 -19 -56 -45t-31 -77l-92 -369q-28 -110 -104 -163.5t-189 -53.5q-87 0 -146.5 39.5t-59.5 106.5q0 59 40.5 94t94.5 35q59 0 84 -36q-47 -3 -72 -38.5t-25 -84.5q0 -43 21.5 -70t62.5 -27q97 0 136 157z" />
    <glyph glyph-name="K" unicode="K" horiz-adv-x="737" 
d="M234 2v-2h-260v2q38 19 56 45t31 77l113 452q9 36 9 59q0 39 -36 63v2h260v-2q-38 -19 -56 -45t-31 -77l-63 -251l371 288q28 20 28 45t-33 40v2h199v-2q-85 -34 -184 -112l-194 -149l153 -329q22 -43 41 -66t49 -40v-2h-264v2q35 18 35 46q0 18 -14 49l-118 251l-78 -59
l-41 -165q-9 -36 -9 -59q0 -39 36 -63z" />
    <glyph glyph-name="L" unicode="L" horiz-adv-x="628" 
d="M320 576l-137 -550h132q39 0 72.5 9.5t57.5 22t54 41t49.5 51.5l56.5 68h2l-85 -218h-548v2q38 19 56 45t31 77l113 452q9 36 9 59q0 39 -36 63v2h260v-2q-38 -19 -56 -45t-31 -77z" />
    <glyph glyph-name="M" unicode="M" horiz-adv-x="896" 
d="M212 607l-113 -455q-9 -36 -9 -63q0 -64 51 -87v-2h-186v2q85 39 112 146l107 431q8 34 8 52q0 40 -39 67v2h201l99 -501l333 501h200v-2q-38 -19 -56 -45t-31 -77l-113 -452q-9 -36 -9 -59q0 -39 36 -63v-2h-260v2q38 19 56 44.5t31 77.5l122 489l-413 -624h-2z" />
    <glyph glyph-name="N" unicode="N" horiz-adv-x="733" 
d="M602 202l86 346q9 35 9 62q0 64 -51 88v2h185v-2q-84 -39 -111 -146l-139 -557h-28l-341 612l-113 -455q-9 -36 -9 -63q0 -64 51 -87v-2h-186v2q85 39 112 146l107 431q8 34 8 52q0 40 -40 67v2h193z" />
    <glyph glyph-name="O" unicode="O" horiz-adv-x="760" 
d="M52 277q0 117 55 216t152.5 158t214.5 59q129 0 208 -80t79 -207q0 -179 -122.5 -306t-300.5 -127q-128 0 -207 80t-79 207zM202 193q0 -80 34.5 -131t101.5 -51t123 58t93 154q56 148 56 284q0 80 -34.5 131t-101.5 51q-66 0 -122 -58t-93 -154q-57 -150 -57 -284z" />
    <glyph glyph-name="P" unicode="P" horiz-adv-x="655" 
d="M-26 0v2q38 19 56 45t31 77l113 452q9 36 9 59q0 39 -36 63v2h329q107 0 167.5 -42t60.5 -121q0 -81 -47.5 -138t-120 -82t-160.5 -25h-127l-43 -173q-8 -34 -8 -50q0 -41 50 -67v-2h-274zM256 318h84q97 0 157 63t60 164q0 129 -131 129h-82z" />
    <glyph glyph-name="Q" unicode="Q" horiz-adv-x="760" 
d="M577 -176q-37 0 -63 14t-43 45t-24 52t-19 65q-41 -10 -90 -10q-128 0 -207 80t-79 207q0 117 55 216t152.5 158t214.5 59q129 0 208 -80t79 -207q0 -128 -67 -234.5t-177 -158.5q16 -31 24 -44t24.5 -33.5t35 -28.5t42.5 -8q49 0 81 40h2q-36 -132 -149 -132zM202 193
q0 -89 40 -138q39 97 127 97q67 0 112 -61q41 51 73 132q56 148 56 284q0 80 -34.5 131t-101.5 51q-66 0 -122 -58t-93 -154q-57 -150 -57 -284zM338 11q41 0 81 24q-13 42 -30.5 64.5t-47.5 22.5q-60 0 -88 -79q35 -32 85 -32z" />
    <glyph glyph-name="R" unicode="R" horiz-adv-x="727" 
d="M344 674l-79 -321h96q94 0 148.5 54t54.5 145q0 58 -31.5 90t-92.5 32h-96zM258 326l-51 -202q-9 -36 -9 -59q0 -39 36 -63v-2h-260v2q38 19 56 45t31 77l113 452q9 36 9 59q0 39 -36 63v2h347q101 0 161.5 -39.5t60.5 -116.5q0 -97 -76 -151.5t-185 -59.5
q125 -14 139 -128q7 -68 9 -80q7 -51 22 -76.5t51 -46.5v-2h-197q-16 36 -23 108q-2 35 -9 113q-5 54 -26.5 79.5t-73.5 25.5h-89z" />
    <glyph glyph-name="S" unicode="S" horiz-adv-x="597" 
d="M579 501q-20 86 -71 138t-129 52q-68 0 -106.5 -37.5t-38.5 -94.5q0 -49 32.5 -82t79 -52t93 -40t79 -60.5t32.5 -97.5q0 -108 -82.5 -172.5t-199.5 -64.5q-54 0 -121 18t-80 18q-31 0 -72 -24l39 225h2q23 -100 85.5 -159t146.5 -59q74 0 114.5 42t40.5 103
q0 35 -17.5 61t-45 42.5t-61 31t-66.5 31t-60.5 37t-45 53.5t-17.5 77q0 101 77.5 162t192.5 61q52 0 112.5 -18.5t75.5 -18.5q29 0 58 23l-45 -195h-2z" />
    <glyph glyph-name="T" unicode="T" horiz-adv-x="742" 
d="M220 700h524q44 0 64 8l-20 -224h-2q-17 54 -30 84t-33 57t-48 38t-68 11h-58l-138 -555q-9 -33 -9 -54q0 -38 39 -63v-2h-265v2q39 20 57 44t31 73l138 555h-52q-40 0 -72 -10.5t-66.5 -38.5t-61 -56t-74.5 -85h-2l87 224q15 -8 59 -8z" />
    <glyph glyph-name="U" unicode="U" horiz-adv-x="706" 
d="M709 561l-72 -287q-70 -284 -315 -284q-113 0 -180.5 56t-67.5 154q0 37 10 76l75 300q10 40 10 59q0 39 -37 63v2h261v-2q-38 -19 -56 -44.5t-31 -77.5l-75 -300q-11 -40 -11 -81q0 -71 39 -110t109 -39q181 0 238 232l70 279q9 36 9 62q0 56 -47 79v2h172v-2
q-42 -19 -65.5 -51.5t-35.5 -85.5z" />
    <glyph glyph-name="V" unicode="V" horiz-adv-x="716" 
d="M291 -10l-124 597q-10 48 -19.5 69t-33.5 42v2h263v-2q-36 -18 -50.5 -34.5t-14.5 -42.5q0 -13 3 -28l76 -420l285 400q28 40 28 70q0 33 -36 55v2h162v-2q-34 -22 -54 -43t-55 -68l-425 -597h-5z" />
    <glyph glyph-name="W" unicode="W" horiz-adv-x="981" 
d="M610 -10l-57 505l-307 -505h-8l-75 600q-5 43 -15 64t-34 44v2h261v-2q-35 -15 -49.5 -32.5t-14.5 -47.5q0 -13 1 -26l42 -374l194 319l-6 53q-5 42 -15.5 63.5t-33.5 44.5v2h258v-2q-36 -14 -50 -31.5t-14 -48.5q0 -14 1 -25l32 -385l229 372q21 36 21 60q0 35 -40 58v2
h165v-2q-35 -23 -56 -44t-48 -64l-374 -600h-7z" />
    <glyph glyph-name="X" unicode="X" horiz-adv-x="724" 
d="M114 2v-2h-174v2q39 20 66.5 41.5t73.5 65.5l249 237l-108 246q-19 41 -34.5 63.5t-42.5 42.5v2h255v-2q-38 -23 -38 -57q0 -16 10 -41l75 -173l174 170q30 27 30 56q0 23 -26 45v2h171v-2q-63 -32 -141 -107l-196 -191l127 -292q18 -41 34 -63t43 -43v-2h-255v2
q39 25 39 59q0 16 -10 39l-96 220l-223 -216q-30 -30 -30 -56q0 -24 27 -46z" />
    <glyph glyph-name="Y" unicode="Y" horiz-adv-x="668" 
d="M786 700v-2q-52 -33 -117 -110l-252 -294l-43 -175q-9 -33 -9 -54q0 -38 38 -63v-2h-255v2q39 20 57 44t30 73l44 175l-106 294q-26 73 -63 110v2h249v-2q-50 -27 -50 -69q0 -11 5 -28l93 -274l227 265q25 31 25 57q0 30 -32 49v2h159z" />
    <glyph glyph-name="Z" unicode="Z" horiz-adv-x="678" 
d="M547 0h-584v2l599 672h-146q-28 0 -53 -4.5t-42.5 -8.5t-41 -19.5l-34 -22.5t-38 -34.5t-37 -38l-44.5 -48.5h-2l85 210q15 -8 59 -8h486v-2l-592 -672h130q82 0 138 21t96 58t103 115h2z" />
    <glyph glyph-name="bracketleft" unicode="[" horiz-adv-x="329" 
d="M-5 -123l218 872h234v-3l-131 -34l-199 -797l113 -35v-3h-235z" />
    <glyph glyph-name="backslash" unicode="\" horiz-adv-x="349" 
d="M176 749l80 -872h-28l-79 872h27z" />
    <glyph glyph-name="bracketright" unicode="]" horiz-adv-x="329" 
d="M368 749l-218 -872h-234v3l131 34l199 797l-113 35v3h235z" />
    <glyph glyph-name="asciicircum" unicode="^" horiz-adv-x="450" 
d="M338 710h4l109 -298h-43l-82 228l-196 -228h-49z" />
    <glyph glyph-name="underscore" unicode="_" horiz-adv-x="322" 
d="M-53 -113l13 51h249l-13 -51h-249z" />
    <glyph glyph-name="grave" unicode="`" horiz-adv-x="500" 
d="M414 749q-15 -111 14 -198h-5q-117 82 -152 198h143z" />
    <glyph glyph-name="a" unicode="a" horiz-adv-x="601" 
d="M538 307l-51 -211q-10 -41 18 -53.5t74 10.5l1 -2q-58 -61 -134 -61q-48 0 -74.5 26.5t-24.5 71.5q0 18 7 36q-74 -133 -185 -133q-70 0 -111 47.5t-41 127.5q0 131 85.5 233.5t205.5 102.5q107 0 138 -99q50 74 147 99q-20 -57 -55 -195zM234 50q44 0 82.5 46.5
t56.5 113.5l28 105q10 43 10 67q0 42 -21 64t-53 22q-47 0 -89 -52t-64.5 -123.5t-22.5 -136.5q0 -106 73 -106z" />
    <glyph glyph-name="b" unicode="b" horiz-adv-x="606" 
d="M341 749l-96 -385q33 60 82 99t110 39q73 0 112.5 -49t39.5 -132q0 -131 -79.5 -231t-200.5 -100q-57 0 -100 28t-58 72q-21 -37 -61.5 -63t-86.5 -36q27 77 63 221l107 432q6 20 6 41q0 22 -11 35t-37 27v2h210zM445 331q0 109 -73 109q-49 0 -90 -44.5t-57 -113.5
l-25 -99q-10 -39 -10 -68q0 -45 21.5 -67.5t56.5 -22.5q50 0 91.5 48.5t63.5 118t22 139.5z" />
    <glyph glyph-name="c" unicode="c" horiz-adv-x="473" 
d="M334 502q62 0 102.5 -29.5t40.5 -80.5q0 -42 -29.5 -70t-72.5 -28q-27 0 -48 14t-25 40q12 -7 26 -7q30 0 47 22.5t17 56.5q0 63 -55 63q-43 0 -84 -44.5t-65.5 -112t-24.5 -133.5q0 -73 32.5 -109t86.5 -36q83 0 146 82h6q-32 -68 -87 -104t-126 -36q-88 0 -144 54.5
t-56 146.5q0 124 91 217.5t222 93.5z" />
    <glyph glyph-name="d" unicode="d" horiz-adv-x="610" 
d="M174 -10q-72 0 -114 48t-42 129q0 87 34.5 163.5t98.5 124t142 47.5q56 0 92.5 -31t43.5 -79l60 252q6 26 6 41q0 22 -11 34.5t-37 27.5v2h209l-159 -653q-3 -10 -3 -19q0 -39 42 -39q23 0 53 15l1 -2q-58 -61 -134 -61q-48 0 -74.5 25.5t-26.5 66.5q0 12 8 44
q-76 -136 -189 -136zM161 158q0 -106 78 -106q48 0 86.5 44t56.5 113l25 97q9 33 9 59q0 45 -23 70.5t-58 25.5q-71 0 -122.5 -99.5t-51.5 -203.5z" />
    <glyph glyph-name="e" unicode="e" horiz-adv-x="482" 
d="M222 -10q-90 0 -146 53.5t-56 144.5q0 124 92 219t224 95q69 0 110.5 -30.5t41.5 -78.5q0 -152 -323 -159q-3 -24 -3 -47q0 -69 33.5 -103.5t90.5 -34.5q86 0 153 81h5q-67 -140 -222 -140zM338 484q-54 0 -104.5 -73.5t-66.5 -164.5q98 9 155.5 59t57.5 127q0 52 -42 52
z" />
    <glyph glyph-name="f" unicode="f" horiz-adv-x="315" 
d="M285 556l-14 -64h119l-11 -26h-113l-109 -445q-32 -130 -96.5 -187.5t-166.5 -60.5v2q44 20 75 93t64 216l88 382h-63l3 10l67 21l11 39q35 112 96.5 165.5t157.5 53.5q62 0 99 -24t37 -65q0 -38 -28 -59t-66 -21q-45 0 -61 23q29 5 45.5 27.5t16.5 51.5q0 51 -45 51
q-38 0 -61.5 -40.5t-44.5 -142.5z" />
    <glyph glyph-name="g" unicode="g" horiz-adv-x="559" 
d="M365 419q0 65 -47 65q-73 0 -103 -143q-11 -53 -11 -82q0 -65 47 -65q73 0 103 144q11 53 11 81zM171 -229q-99 0 -169 30t-70 86q0 42 42.5 67t112.5 24q-36 9 -59.5 36t-23.5 64q0 51 38 84t92 46q-62 40 -62 107q0 82 66.5 134.5t178.5 52.5q80 0 131 -40
q52 66 105 66q33 0 52.5 -17.5t19.5 -46.5q0 -39 -26.5 -58t-60.5 -19v2q15 12 15 35q0 43 -48 43q-25 0 -48 -13q40 -38 40 -91q0 -82 -67 -134t-178 -52q-60 0 -106 24q-52 -16 -52 -60q0 -17 12.5 -28.5t36.5 -12.5l192 -4q71 -2 113 -31.5t42 -86.5q0 -68 -47.5 -116
t-118 -69.5t-153.5 -21.5zM279 -33l-136 3q-55 0 -89 -20.5t-34 -64.5q0 -45 42 -70t109 -25q88 0 144 30.5t56 87.5q0 31 -22 44t-70 15z" />
    <glyph glyph-name="h" unicode="h" horiz-adv-x="600" 
d="M212 236l-58 -236h-141l160 644q6 26 6 41q0 22 -11 34.5t-37 27.5v2h209l-103 -416q37 76 92.5 122.5t121.5 46.5q53 0 78.5 -29.5t25.5 -79.5q0 -29 -7 -57l-60 -240q-3 -10 -3 -19q0 -18 11.5 -28.5t30.5 -10.5q23 0 54 15v-2q-58 -61 -133 -61q-48 0 -74.5 24.5
t-26.5 65.5q0 18 4 34l56 223q7 30 7 46q0 45 -44 45t-89.5 -50t-68.5 -142z" />
    <glyph glyph-name="i" unicode="i" horiz-adv-x="290" 
d="M145 648q0 37 26 62.5t63 25.5q36 0 58 -22t22 -56q0 -36 -26 -61.5t-63 -25.5q-36 0 -58 22t-22 55zM271 492l-98 -396q-3 -10 -3 -19q0 -39 41 -39q24 0 54 15l1 -2q-60 -61 -134 -61q-48 0 -74.5 24.5t-26.5 65.5q0 14 5 34l68 272q7 27 7 42q0 35 -41 62v2h201z" />
    <glyph glyph-name="j" unicode="j" horiz-adv-x="278" 
d="M153 648q0 37 26 62.5t63 25.5q36 0 58 -22t22 -56q0 -36 -26 -61.5t-63 -25.5q-36 0 -58 22t-22 55zM276 492l-111 -446q-37 -150 -98.5 -213.5t-158.5 -63.5q-60 0 -99.5 24.5t-39.5 66.5q0 38 28.5 60.5t70.5 22.5q41 0 57 -18q-30 -7 -46 -30t-16 -55
q0 -24 11.5 -39.5t33.5 -15.5q30 0 50.5 40.5t46.5 143.5l104 417q7 27 7 42q0 35 -41 62v2h201z" />
    <glyph glyph-name="k" unicode="k" horiz-adv-x="594" 
d="M339 749l-110 -442q43 81 112.5 138t141.5 57q49 0 77.5 -26.5t28.5 -69.5q0 -68 -55.5 -110.5t-143.5 -56.5l64 -143q23 -52 70 -52q22 0 45 13v-2q-51 -65 -137 -65q-89 0 -120 95l-62 159q27 -10 56 -10q64 0 109.5 38.5t45.5 96.5q0 28 -15 45t-42 17
q-54 0 -114.5 -62.5t-87.5 -168.5l-49 -200h-141l160 644q6 26 6 41q0 22 -11 35t-37 27v2h209z" />
    <glyph glyph-name="l" unicode="l" horiz-adv-x="288" 
d="M35 114l129 530q6 26 6 41q0 22 -11 34.5t-37 27.5v2h209l-159 -653q-3 -10 -3 -19q0 -39 42 -39q23 0 53 15l1 -2q-58 -61 -134 -61q-48 0 -74 25t-26 66q0 17 4 33z" />
    <glyph glyph-name="m" unicode="m" horiz-adv-x="893" 
d="M841 336l-60 -240q-3 -10 -3 -19q0 -18 11.5 -28.5t30.5 -10.5q22 0 54 15v-2q-58 -61 -133 -61q-48 0 -74.5 24.5t-26.5 65.5q0 18 4 34l57 226q7 30 7 47q0 41 -40 41q-42 0 -86 -49.5t-67 -142.5l-58 -236h-142l85 340q8 27 8 47q0 41 -40 41q-42 0 -86.5 -50
t-66.5 -142l-59 -236h-141l96 386q7 27 7 42q0 34 -41 62v2h201l-39 -158q85 168 208 168q50 0 76 -30.5t26 -78.5q0 -27 -9 -59q83 168 208 168q51 0 76 -29t25 -77q0 -26 -8 -60z" />
    <glyph glyph-name="n" unicode="n" horiz-adv-x="603" 
d="M215 236l-59 -236h-141l96 386q7 27 7 42q0 34 -41 62v2h201l-39 -159q37 76 92.5 122.5t121.5 46.5q53 0 79 -30t26 -79q0 -29 -7 -57l-60 -240q-3 -10 -3 -19q0 -39 41 -39q24 0 54 15l1 -2q-60 -61 -134 -61q-48 0 -74.5 25t-26.5 66q0 17 4 33l57 223q6 26 6 46
q0 45 -44 45t-89.5 -50t-67.5 -142z" />
    <glyph glyph-name="o" unicode="o" horiz-adv-x="555" 
d="M21 190q0 129 89 220.5t212 91.5q93 0 152.5 -53.5t59.5 -147.5q0 -130 -89 -220.5t-212 -90.5q-93 0 -152 53t-60 147zM397 364q0 119 -72 119q-42 0 -78 -53t-61 -139q-27 -103 -27 -163q0 -120 72 -120q42 0 78 53.5t60 139.5q28 100 28 163z" />
    <glyph glyph-name="p" unicode="p" horiz-adv-x="608" 
d="M447 331q0 109 -73 109q-49 0 -90 -44.5t-57 -113.5l-25 -96q-8 -31 -8 -61q0 -45 22 -69.5t58 -24.5q48 0 89 48t62.5 116.5t21.5 135.5zM181 99l-80 -320h-141l151 607q7 27 7 42q0 34 -41 62v2h201l-31 -128q33 60 82 99t110 39q73 0 112.5 -49t39.5 -132
q0 -131 -78 -231t-194 -100q-56 0 -94 31.5t-44 77.5z" />
    <glyph glyph-name="q" unicode="q" horiz-adv-x="593" 
d="M306 502q57 0 95.5 -28.5t52.5 -71.5q51 75 148 100q-20 -57 -55 -195l-134 -528h-141l90 347q-74 -136 -189 -136q-72 0 -114 48t-42 129q0 134 83 234.5t206 100.5zM161 156q0 -106 77 -106q47 0 86.5 45t57.5 113l26 105q9 34 9 62q0 44 -23 68.5t-57 24.5
q-47 0 -89 -51.5t-64.5 -123.5t-22.5 -137z" />
    <glyph glyph-name="r" unicode="r" horiz-adv-x="484" 
d="M361 323q21 3 33.5 19t12.5 39q0 20 -11.5 31t-31.5 11q-45 0 -89 -61.5t-66 -148.5l-53 -213h-141l96 386q7 27 7 42q0 34 -41 62v2h201l-43 -177q84 187 190 187q39 0 63.5 -23.5t24.5 -60.5q0 -48 -30.5 -78.5t-75.5 -30.5q-32 0 -46 14z" />
    <glyph glyph-name="s" unicode="s" horiz-adv-x="452" 
d="M70 339q0 68 61 115.5t147 47.5q71 0 117 -27t46 -71q0 -29 -20 -46t-49 -17q-34 0 -53 22q17 2 27 17t10 36q0 32 -22 50.5t-63 18.5q-43 0 -70.5 -22t-27.5 -57q0 -28 19.5 -47t71.5 -48q76 -42 106 -73.5t30 -79.5q0 -72 -65.5 -120t-158.5 -48q-83 0 -135 31.5
t-52 80.5q0 30 21.5 48t53.5 18q36 0 57 -21q-19 -1 -30.5 -16t-11.5 -38q0 -38 28 -62t75 -24q49 0 79.5 23t30.5 61q0 28 -21.5 50.5t-72.5 48.5q-65 34 -96.5 67.5t-31.5 81.5z" />
    <glyph glyph-name="t" unicode="t" horiz-adv-x="351" 
d="M266 466l-88 -356q-2 -12 -2 -17q0 -23 15 -36t40 -13q48 0 92 44l2 -2q-70 -96 -176 -96q-55 0 -84.5 26.5t-29.5 70.5q0 18 4 33l86 346h-60l2 10q156 38 241 189h8l-44 -173h130l-11 -26h-125z" />
    <glyph glyph-name="u" unicode="u" horiz-adv-x="598" 
d="M574 51q-60 -61 -134 -61q-46 0 -73 24.5t-27 64.5q0 21 14 74q-78 -163 -201 -163q-54 0 -84 32.5t-30 84.5q0 19 7 49l58 230q6 27 6 42q0 20 -9.5 33.5t-31.5 28.5v2h201l-85 -343q-5 -22 -5 -36q0 -49 46 -49q43 0 86.5 47t65.5 139l61 242h140l-98 -396
q-3 -10 -3 -19q0 -39 41 -39q24 0 54 15z" />
    <glyph glyph-name="v" unicode="v" horiz-adv-x="542" 
d="M183 196q0 -66 31 -104.5t83 -38.5q77 0 125.5 75t48.5 165q0 53 -25 82t-65 29q-47 0 -62 -34q-2 8 -2 22q0 47 29 78.5t72 31.5q54 0 82.5 -37.5t28.5 -98.5q0 -87 -40 -172.5t-116.5 -144.5t-167.5 -59q-75 0 -117 40t-42 104t46.5 125.5t142.5 137.5l-44 -3
q-77 -5 -107.5 -16.5t-48.5 -43.5q0 3 -0.5 8.5t-0.5 7.5q0 62 30.5 103.5t77.5 41.5q22 0 59.5 -16t59.5 -19l25 38h21q-67 -112 -95.5 -180t-28.5 -122z" />
    <glyph glyph-name="w" unicode="w" horiz-adv-x="832" 
d="M593 492l-70 -230q-26 -90 -26 -142q0 -94 76 -94q51 0 95 47.5t66 111t22 120.5q0 50 -19 77t-52 27q-42 0 -57 -34q-2 16 -2 23q0 46 25 75t66 29q49 0 76 -35.5t27 -93.5q0 -65 -23.5 -133t-62.5 -123.5t-96.5 -91t-119.5 -35.5q-63 0 -109 37t-50 96q-25 -61 -69 -97
t-102 -36q-69 0 -109.5 40t-40.5 103q0 65 53.5 129t153.5 135l-48 -3q-79 -5 -111 -17t-49 -44q-1 5 -1 17q0 60 30.5 102.5t77.5 42.5q22 0 66.5 -16t66.5 -19l22 38h22q-77 -125 -110.5 -197.5t-33.5 -137.5q0 -50 20.5 -78t57.5 -28q73 0 110 125l62 204q8 30 8 43
q0 33 -38 61v2h196z" />
    <glyph glyph-name="x" unicode="x" horiz-adv-x="564" 
d="M374 -10q-88 0 -117 106l-25 99l-10 -25q-66 -180 -169 -180q-33 0 -56.5 22t-23.5 54q0 36 24 58.5t55 22.5q17 0 31 -7q-25 -9 -25 -36q0 -18 11 -29.5t30 -11.5q58 0 113 121l14 32l-36 143q-22 85 -72 85q-20 0 -47 -15v2q23 30 60.5 50.5t79.5 20.5q45 0 70.5 -25
t39.5 -79l19 -74q30 82 73.5 130t96.5 48q34 0 57 -21t23 -53q0 -36 -24 -57t-56 -21q-17 0 -31 6q25 8 25 35q0 18 -11 29t-29 11q-35 0 -61.5 -33t-51.5 -87l-4 -11l42 -163q24 -93 74 -93q25 0 54 19v-2q-23 -32 -61.5 -51.5t-81.5 -19.5z" />
    <glyph glyph-name="y" unicode="y" horiz-adv-x="581" 
d="M582 492l-100 -396q-43 -169 -120 -248t-206 -79q-79 0 -135.5 33t-56.5 88q0 35 25.5 57.5t63.5 22.5q47 0 76 -32q-23 -2 -37.5 -20.5t-14.5 -49.5q0 -36 21 -59t58 -23q65 0 103 61t71 195l29 119q-83 -163 -200 -163q-56 0 -87 33.5t-31 85.5q0 19 7 47l55 222
q7 27 7 42q0 35 -41 62v2h201l-83 -335q-5 -22 -5 -37q0 -48 44 -48q46 0 90.5 47t66.5 139l58 234h141z" />
    <glyph glyph-name="z" unicode="z" horiz-adv-x="534" 
d="M317 -13q-32 0 -61.5 14t-52 34.5l-44.5 40.5t-47.5 34t-50.5 14q-42 0 -42 -40q0 -31 30.5 -42.5t69.5 -1.5q-18 -50 -66 -50q-27 0 -45 18.5t-18 49.5q0 71 64 115t193 76q184 46 237 97q-33 -23 -63 -23q-38 0 -114 23t-127 23q-82 0 -113 -63h-2q48 196 171 196
q31 0 58.5 -14t48.5 -34l41 -40t43.5 -34t47.5 -14q33 0 33 32q0 28 -26 42.5t-62 7.5q17 46 63 46q24 0 40.5 -17t16.5 -44q0 -34 -16.5 -62.5t-40.5 -47.5t-65.5 -37t-74.5 -28.5t-86 -25.5q-152 -40 -206 -84q31 18 64 18q39 0 121.5 -25.5t134.5 -25.5q86 0 112 64h2
q-11 -99 -56 -145.5t-112 -46.5z" />
    <glyph glyph-name="braceleft" unicode="{" horiz-adv-x="368" 
d="M31 310l1 6q120 4 154 145q5 20 9 66t11 75q17 66 79 106.5t150 40.5q29 0 49 -4v-4q-60 0 -103 -36.5t-59 -101.5q-5 -23 -9 -74t-10 -74q-11 -48 -52 -81.5t-77.5 -45.5t-69.5 -15q27 -3 54.5 -12t53 -35t25.5 -62q0 -38 -32.5 -110.5t-32.5 -119.5q0 -43 25.5 -66
t72.5 -23v-4q-23 -4 -52 -4q-75 0 -117 31t-42 84q0 38 31 111t31 118q0 86 -90 89z" />
    <glyph glyph-name="bar" unicode="|" horiz-adv-x="197" 
d="M-5 -123l217 872h29l-217 -872h-29z" />
    <glyph glyph-name="braceright" unicode="}" horiz-adv-x="368" 
d="M371 316l-1 -6q-120 -4 -154 -145q-5 -20 -9 -66t-11 -75q-17 -66 -79 -106.5t-150 -40.5q-29 0 -49 4v4q60 0 103 36.5t59 101.5q5 23 9 74t10 74q11 48 52 81.5t77.5 45.5t69.5 15q-27 3 -54.5 12t-53 35t-25.5 62q0 39 32.5 110.5t32.5 119.5q0 43 -25.5 66t-72.5 23
v4q23 4 52 4q75 0 117 -31t42 -84q0 -38 -31 -111t-31 -118q0 -86 90 -89z" />
    <glyph glyph-name="asciitilde" unicode="~" horiz-adv-x="501" 
d="M47 243h-2q28 71 70.5 111.5t92.5 40.5q36 0 88 -24.5t84 -24.5q66 0 112 56h2q-28 -71 -70.5 -111.5t-92.5 -40.5q-36 0 -87.5 24t-83.5 24q-70 0 -113 -55z" />
    <glyph glyph-name="uni00A0" unicode="&#xa0;" horiz-adv-x="200" 
 />
    <glyph glyph-name="exclamdown" unicode="&#xa1;" horiz-adv-x="287" 
d="M108 471q0 37 25 62.5t62 25.5t62.5 -25.5t25.5 -62.5t-25.5 -62.5t-62.5 -25.5t-62 25.5t-25 62.5zM-49 -149l213 471h5l-29 -471h-189z" />
    <glyph glyph-name="cent" unicode="&#xa2;" horiz-adv-x="514" 
d="M169 199q0 -101 71 -137l104 421q-72 -7 -123.5 -95t-51.5 -189zM216 -114h-19l26 105q-85 5 -140 61.5t-55 144.5q0 125 89.5 215t228.5 90h3l23 94h18l-23 -95q64 -5 104 -37.5t40 -78.5q0 -41 -25.5 -66.5t-63.5 -25.5q-26 0 -45 13t-23 39q11 -8 25 -8q25 0 40 20.5
t15 51.5q0 30 -19 50.5t-53 23.5l-105 -428q20 -7 45 -7q88 0 156 83h6q-34 -68 -91.5 -104t-130.5 -36z" />
    <glyph glyph-name="sterling" unicode="&#xa3;" horiz-adv-x="660" 
d="M452 -27q-30 0 -56 5.5t-53 20l-40 22t-44 31.5t-37 28q-78 -89 -167 -89q-40 0 -65 21.5t-25 55.5q0 40 32 65t80 25q35 0 100 -20q15 45 24 104q7 46 12 98h-112l5 21h109q5 49 12 95q15 117 98 185.5t204 68.5q74 0 121 -32t47 -83q0 -50 -32 -77t-75 -28
q-31 0 -53 12.5t-29 30.5q41 -4 68.5 23t27.5 72q0 30 -18 48t-50 17q-47 0 -80 -39t-50 -107l-40 -160q-3 -15 -7 -26h142l-5 -21h-143q-40 -137 -104 -225q103 -33 164 -33q65 0 100.5 24.5t36.5 66.5q0 22 -11 41q69 -28 69 -100q-1 -64 -46.5 -102.5t-109.5 -38.5z
M52 12q76 0 117 102q-45 24 -94 24q-37 0 -62 -19t-25 -51q0 -26 18 -41t46 -15z" />
    <glyph glyph-name="yen" unicode="&#xa5;" horiz-adv-x="668" 
d="M403 2v-2h-255v2q39 20 57 44t30 73l32 127h-175l6 21h174l7 27l-15 46h-147l5 21h135l-74 227q-23 71 -63 110v2h249v-2q-49 -26 -49 -70q0 -9 4 -27l83 -274l216 262q28 33 28 61q0 29 -30 48v2h155v-2q-55 -35 -117 -110l-187 -227h135l-6 -21h-146l-38 -46l-7 -27
h173l-6 -21h-172l-31 -127q-9 -33 -9 -54q0 -38 38 -63z" />
    <glyph glyph-name="section" unicode="&#xa7;" horiz-adv-x="558" 
d="M183 282l136 -158q40 -47 55 -90q16 16 27 42.5t11 49.5q0 36 -37 77l-136 158q-42 49 -56 90q-37 -39 -37 -92q0 -36 37 -77zM160 -225q-71 0 -117.5 30.5t-46.5 77.5q0 36 23.5 59.5t62.5 23.5q41 0 60 -27q-57 -11 -57 -79q0 -32 20.5 -50.5t55.5 -18.5q53 0 85 39.5
t32 93.5q0 19 -8 37t-17 30t-33 40l-99 112q-64 70 -64 133q0 109 123 185q-8 20 -8 47q0 82 65.5 142t160.5 60q71 0 117.5 -30.5t46.5 -77.5q0 -36 -24 -59.5t-63 -23.5q-41 0 -60 27q58 11 58 79q0 32 -20.5 50.5t-55.5 18.5q-53 0 -85 -39.5t-32 -93.5q0 -19 8 -37
t17 -30t33 -40l99 -112q63 -71 63 -133q0 -109 -122 -185q8 -24 8 -47q0 -82 -65.5 -142t-160.5 -60z" />
    <glyph glyph-name="dieresis" unicode="&#xa8;" horiz-adv-x="500" 
d="M456 719q33 0 54.5 -21t21.5 -53q0 -34 -24 -57.5t-60 -23.5q-33 0 -54 21t-21 51q0 35 24 59t59 24zM256 719q33 0 54.5 -21t21.5 -53q0 -34 -24 -57.5t-60 -23.5q-33 0 -54 21t-21 51q0 35 24 59t59 24z" />
    <glyph glyph-name="copyright" unicode="&#xa9;" horiz-adv-x="810" 
d="M408 -10q-143 0 -239.5 93t-96.5 236q0 169 113 280t273 111q143 0 239.5 -93t96.5 -236q0 -169 -113 -280t-273 -111zM410 11q150 0 256.5 104.5t106.5 263.5q0 135 -91 222.5t-225 87.5q-151 0 -257.5 -104.5t-106.5 -263.5q0 -135 91 -222.5t226 -87.5zM495 553
q-65 0 -109.5 -74t-44.5 -167q0 -58 30 -92.5t81 -34.5q79 0 135 77l3 -1q-27 -61 -77 -96t-113 -35q-78 0 -125.5 48t-47.5 124q0 111 75.5 189t184.5 78q31 0 64 -10.5t42 -10.5q19 0 41 20l-31 -146h-1q-13 62 -37.5 96.5t-69.5 34.5z" />
    <glyph glyph-name="ordfeminine" unicode="&#xaa;" horiz-adv-x="461" 
d="M457 574l-36 -140q-2 -10 -2 -14q0 -25 26 -25q19 0 38 11l1 -5q-39 -42 -90 -42q-35 0 -54.5 18.5t-19.5 49.5q0 9 3 22q-49 -90 -125 -90q-49 0 -77 32.5t-28 87.5q0 91 59 160.5t142 69.5q73 0 94 -66q35 50 106 66q-17 -48 -37 -135zM196 473q0 -68 46 -68
q29 0 54.5 31t36.5 72l19 73q7 24 7 44q0 26 -13 41.5t-33 15.5q-46 0 -81.5 -71t-35.5 -138zM89 269l5 21h296l-6 -21h-295z" />
    <glyph glyph-name="guillemotleft" unicode="&#xab;" horiz-adv-x="490" 
d="M209 243v2q178 83 301 194h4q-79 -125 -159 -202q48 -87 62 -188h-4q-70 113 -204 194zM20 245q175 82 301 194h4q-83 -129 -159 -202q47 -89 62 -188h-4q-70 113 -204 194v2z" />
    <glyph glyph-name="registered" unicode="&#xae;" horiz-adv-x="486" 
d="M325 710q82 0 132.5 -51.5t50.5 -136.5q0 -83 -63.5 -143t-146.5 -60q-81 0 -131.5 51.5t-50.5 135.5q0 83 63.5 143.5t145.5 60.5zM324 695q-76 0 -134.5 -55.5t-58.5 -132.5q0 -78 46.5 -125.5t121.5 -47.5q77 0 135.5 55t58.5 132q0 79 -46.5 126.5t-122.5 47.5z
M312 615l-25 -96h15q27 0 46.5 15t19.5 44q0 37 -42 37h-14zM235 627h121q32 0 52 -13t20 -38q0 -30 -26.5 -47.5t-60.5 -17.5v-2q41 -4 45 -39l3 -26q3 -26 23 -37v-3h-71q-6 14 -9 35l-4 36q-2 19 -8 26.5t-24 7.5h-11l-17 -67q-3 -17 -1 -22t13 -13v-3h-98v3q14 7 19 13
t9 22l38 147q3 17 0.5 23t-13.5 12v3z" />
    <glyph glyph-name="macron" unicode="&#xaf;" horiz-adv-x="500" 
d="M487 598h-297l9 37h296z" />
    <glyph glyph-name="degree" unicode="&#xb0;" horiz-adv-x="277" 
d="M114 594q0 45 36.5 80t84.5 35q45 0 74.5 -30.5t29.5 -76.5q0 -45 -36.5 -80t-84.5 -35q-44 0 -74 30.5t-30 76.5zM137 595q0 -37 24 -61.5t59 -24.5q38 0 67.5 28t29.5 64q0 37 -24 61.5t-60 24.5q-38 0 -67 -28t-29 -64z" />
    <glyph glyph-name="plusminus" unicode="&#xb1;" horiz-adv-x="479" 
d="M463 361h-181l-35 -138h-29l35 138h-181l7 28h181l34 137h29l-34 -137h181zM15 132l7 27h391l-7 -27h-391z" />
    <glyph glyph-name="twosuperior" unicode="&#xb2;" horiz-adv-x="277" 
d="M231 689q-24 0 -39 -14.5t-15 -40.5q0 -31 24 -31q10 0 20 7h3q-21 -37 -59 -37q-20 0 -33 12.5t-13 31.5q0 41 35.5 64t79.5 23q45 0 75 -18t30 -53q0 -15 -5 -28.5t-11.5 -24t-20 -22t-23.5 -19t-30 -18.5t-31 -16l-35.5 -16.5l-34.5 -16.5h73q35 0 51.5 6.5t37.5 28.5
h5l-35 -97h-222v4l44 36l38.5 31.5l31.5 26.5t27.5 24l21 20.5t17.5 20l11.5 18t9 19t4.5 19t2 21.5q0 39 -34 39z" />
    <glyph glyph-name="threesuperior" unicode="&#xb3;" horiz-adv-x="280" 
d="M177 507q-16 0 -24.5 -13t-8.5 -31q0 -42 33 -42q26 0 43 31t17 68q0 38 -42 41v8q34 1 52.5 28.5t18.5 61.5q0 31 -25 31q-19 0 -31.5 -15.5t-12.5 -36.5q0 -23 16 -23q6 0 9 2l1 -2q-14 -17 -43 -17q-19 0 -31.5 10t-12.5 28q0 32 32 50t73 18t70 -17t29 -47
q0 -33 -29 -52.5t-70 -22.5q32 -4 54 -21t22 -43q0 -47 -41.5 -71t-98.5 -24q-34 0 -65 15.5t-31 50.5q0 26 18 41.5t45 15.5q37 0 45 -24l-1 -2q-6 4 -11 4z" />
    <glyph glyph-name="acute" unicode="&#xb4;" horiz-adv-x="500" 
d="M324 749h151q-88 -116 -243 -198h-4q60 76 96 198z" />
    <glyph glyph-name="paragraph" unicode="&#xb6;" horiz-adv-x="518" 
d="M510 594l-160 -645q-20 -80 -73 -132t-126 -52q-55 0 -93 26.5t-38 74.5q0 44 29 69.5t66 25.5q23 0 39 -12t17 -32h-1q-10 8 -25 8q-22 0 -37 -20t-15 -48t20 -47t54 -19q55 0 98 45.5t59 112.5l182 728h-39l-139 -557h-25l39 156q-106 0 -176.5 49.5t-70.5 129.5
q0 77 49 134t126 84t170 27h157l-1 -2q-42 -21 -58 -39t-28 -65z" />
    <glyph glyph-name="periodcentered" unicode="&#xb7;" horiz-adv-x="254" 
d="M222 277q0 -37 -25.5 -62.5t-62.5 -25.5t-62 25.5t-25 62.5t25 62.5t62 25.5t62.5 -25.5t25.5 -62.5z" />
    <glyph glyph-name="cedilla" unicode="&#xb8;" horiz-adv-x="500" 
d="M29 -154l10 8q21 -43 69 -43q32 0 51 18t19 47q0 26 -17 36t-53 12l71 81h18l-52 -61q56 2 91.5 -16.5t35.5 -55.5q0 -44 -39.5 -69.5t-95.5 -25.5q-42 0 -71 19.5t-37 49.5z" />
    <glyph glyph-name="onesuperior" unicode="&#xb9;" horiz-adv-x="205" 
d="M166 660q4 15 -4 21.5t-36 12.5l1 6h131l-62 -250q-4 -15 3 -21.5t35 -12.5l-1 -6h-178l1 6q32 6 42.5 12t14.5 22z" />
    <glyph glyph-name="ordmasculine" unicode="&#xba;" horiz-adv-x="406" 
d="M306 710q65 0 107 -37t42 -101q0 -90 -63 -153t-149 -63q-64 0 -106 37t-42 101q0 90 63 153t148 63zM242 375q57 0 94 127q19 70 19 110q0 79 -48 79q-28 0 -52 -35t-41 -92q-19 -70 -19 -110q0 -79 47 -79zM62 269l5 21h296l-6 -21h-295z" />
    <glyph glyph-name="guillemotright" unicode="&#xbb;" horiz-adv-x="490" 
d="M469 243q-176 -82 -300 -194h-4q79 125 159 202q-48 87 -62 188h4q69 -112 203 -194v-2zM280 243q-175 -82 -301 -194h-4q81 126 160 202q-48 87 -62 188h4q68 -113 203 -194v-2z" />
    <glyph glyph-name="onequarter" unicode="&#xbc;" horiz-adv-x="405" 
d="M210 450l52 210q4 15 -3.5 21.5t-36.5 12.5l1 6h131l-62 -250q-4 -15 3.5 -21.5t35.5 -12.5l-1 -6h-178l1 6q31 6 42 12t15 22zM413 358l-4 -16h-365l4 16h365zM142 94l38 151l-144 -151h106zM131 51l7 27h-135l1 3l201 210h68l-49 -197h13q19 0 26.5 4.5t21.5 21.5h4
l-17 -68h-4q-6 17 -11 21.5t-24 4.5h-13l-7 -27q-5 -21 -3 -29t13 -18v-4h-127v4q17 10 23.5 18.5t11.5 28.5z" />
    <glyph glyph-name="onehalf" unicode="&#xbd;" horiz-adv-x="405" 
d="M262 660q4 15 -3.5 21.5t-36.5 12.5l1 6h131l-62 -250q-4 -15 3.5 -21.5t35.5 -12.5l-1 -6h-178l1 6q31 6 42 12t15 22zM413 358l-4 -16h-365l4 16h365zM112 62h73q36 0 52 6.5t37 28.5h5l-35 -97h-221v4l43.5 36l38.5 31.5l31.5 26t27.5 24.5l20.5 20.5t17.5 20l12 18
t9 19t4 19t2 21.5q0 39 -34 39q-23 0 -38.5 -15t-15.5 -40q0 -31 24 -31q10 0 21 7h2q-21 -37 -59 -37q-20 0 -32.5 12t-12.5 32q0 41 35 64t80 23q44 0 74 -18t30 -53q0 -15 -5 -28.5t-11 -24t-20.5 -22l-23.5 -18.5t-30 -18.5t-31 -16.5l-35.5 -17z" />
    <glyph glyph-name="threequarters" unicode="&#xbe;" horiz-adv-x="405" 
d="M237 507q-16 0 -24.5 -13t-8.5 -31q0 -42 33 -42q26 0 43 30.5t17 68.5t-42 41v8q34 1 52.5 28.5t18.5 61.5q0 31 -25 31q-19 0 -31.5 -15.5t-12.5 -36.5q0 -23 16 -23q6 0 9 2l1 -2q-14 -17 -43 -17q-19 0 -31.5 10t-12.5 28q0 32 32 50t73 18q42 0 71 -17t29 -47
q0 -33 -29 -52.5t-70 -22.5q32 -4 53.5 -21t21.5 -43q0 -47 -41.5 -71t-98.5 -24q-34 0 -65 15.5t-31 50.5q0 26 18.5 41.5t45.5 15.5q36 0 44 -24l-1 -2q-4 4 -11 4zM413 358l-4 -16h-365l4 16h365zM36 94h106l38 151zM96 4q17 10 23.5 18.5t11.5 28.5l7 27h-135l1 3
l201 210h68l-49 -197h13q19 0 26.5 4.5t21.5 21.5h4l-17 -68h-4q-6 17 -11 21.5t-24 4.5h-13l-7 -27q-5 -21 -3 -29t13 -18v-4h-127v4z" />
    <glyph glyph-name="questiondown" unicode="&#xbf;" horiz-adv-x="514" 
d="M336 383q-37 0 -62 25.5t-25 62.5t25 62.5t62 25.5t62.5 -25.5t25.5 -62.5t-25.5 -62.5t-62.5 -25.5zM209 -140q53 0 86 32.5t33 84.5q0 26 -14 41.5t-37 15.5q-19 0 -31 -8h-2q33 68 101 68q39 0 65 -26.5t26 -64.5q0 -77 -68 -119.5t-160 -42.5q-98 0 -160.5 50.5
t-62.5 129.5q0 103 83 164t210 74l18 70h21l-47 -186q-77 -10 -126 -52.5t-49 -119.5q0 -52 31 -81.5t83 -29.5z" />
    <glyph glyph-name="Agrave" unicode="&#xc0;" horiz-adv-x="725" 
d="M538 925q-15 -106 14 -184h-5q-118 76 -151 184h142zM434 245l-54 281l-202 -281h256zM101 2v-2h-162v2q35 22 55.5 43.5t53.5 67.5l429 597h5l128 -597q10 -47 20 -68.5t33 -42.5v-2h-265v2q35 18 49.5 34.5t14.5 42.5q0 13 -3 28l-20 110h-280l-65 -90q-29 -42 -29 -70
q0 -33 36 -55z" />
    <glyph glyph-name="Aacute" unicode="&#xc1;" horiz-adv-x="725" 
d="M493 925h151q-84 -109 -241 -184h-5q62 74 95 184zM434 245l-54 281l-202 -281h256zM101 2v-2h-162v2q35 22 55.5 43.5t53.5 67.5l429 597h5l128 -597q10 -47 20 -68.5t33 -42.5v-2h-265v2q35 18 49.5 34.5t14.5 42.5q0 13 -3 28l-20 110h-280l-65 -90q-29 -42 -29 -70
q0 -33 36 -55z" />
    <glyph glyph-name="Acircumflex" unicode="&#xc2;" horiz-adv-x="725" 
d="M631 736q-76 29 -131 82q-76 -47 -189 -82h-9q66 49 130.5 109t98.5 106h4q10 -48 40 -108.5t66 -106.5h-10zM434 245l-54 281l-202 -281h256zM101 2v-2h-162v2q35 22 55.5 43.5t53.5 67.5l429 597h5l128 -597q10 -47 20 -68.5t33 -42.5v-2h-265v2q35 18 49.5 34.5
t14.5 42.5q0 13 -3 28l-20 110h-280l-65 -90q-29 -42 -29 -70q0 -33 36 -55z" />
    <glyph glyph-name="Atilde" unicode="&#xc3;" horiz-adv-x="725" 
d="M704 921q-27 -74 -68 -116t-85 -42q-31 0 -74 29.5t-72 29.5q-56 0 -101 -66h-7q26 73 67 115.5t85 42.5q32 0 75 -29.5t71 -29.5q57 0 102 66h7zM434 245l-54 281l-202 -281h256zM101 2v-2h-162v2q35 22 55.5 43.5t53.5 67.5l429 597h5l128 -597q10 -47 20 -68.5
t33 -42.5v-2h-265v2q35 18 49.5 34.5t14.5 42.5q0 13 -3 28l-20 110h-280l-65 -90q-29 -42 -29 -70q0 -33 36 -55z" />
    <glyph glyph-name="Adieresis" unicode="&#xc4;" horiz-adv-x="725" 
d="M603 909q33 0 54 -20.5t21 -53.5t-24 -57t-60 -24q-32 0 -53 21t-21 52q0 35 24 58.5t59 23.5zM403 909q33 0 54 -20.5t21 -53.5t-24 -57t-60 -24q-32 0 -53 21t-21 52q0 35 24 58.5t59 23.5zM434 245l-54 281l-202 -281h256zM101 2v-2h-162v2q35 22 55.5 43.5t53.5 67.5
l429 597h5l128 -597q10 -47 20 -68.5t33 -42.5v-2h-265v2q35 18 49.5 34.5t14.5 42.5q0 13 -3 28l-20 110h-280l-65 -90q-29 -42 -29 -70q0 -33 36 -55z" />
    <glyph glyph-name="Aring" unicode="&#xc5;" horiz-adv-x="725" 
d="M399 843q0 41 34 73.5t78 32.5q41 0 68.5 -28t27.5 -71q0 -41 -34 -73.5t-77 -32.5q-42 0 -69.5 28t-27.5 71zM578 850q0 31 -20 51t-49 20q-32 0 -56 -24t-24 -54q0 -31 19.5 -51t49.5 -20q32 0 56 24t24 54zM434 245l-54 281l-202 -281h256zM101 2v-2h-162v2
q35 22 55.5 43.5t53.5 67.5l429 597h5l128 -597q10 -47 20 -68.5t33 -42.5v-2h-265v2q35 18 49.5 34.5t14.5 42.5q0 13 -3 28l-20 110h-280l-65 -90q-29 -42 -29 -70q0 -33 36 -55z" />
    <glyph glyph-name="AE" unicode="&#xc6;" horiz-adv-x="1063" 
d="M606 669l-341 -376h247zM107 2v-2h-168v2q32 20 55 41.5t67 68.5l452 498q23 22 23 42q0 26 -41 46v2h531q47 0 67 8l-10 -186h-2q-24 80 -63.5 116t-124.5 36h-138l-75 -301h111q62 0 94 20t73 89h2l-59 -237h-2q-6 66 -28.5 83t-86.5 17h-111l-79 -319h149q61 0 113 25
t84.5 57.5t81.5 93.5h2l-79 -202h-562v2q38 19 56 44.5t31 77.5l35 141h-266l-135 -149q-36 -39 -36 -67q0 -30 39 -47z" />
    <glyph glyph-name="Ccedilla" unicode="&#xc7;" horiz-adv-x="659" 
d="M244 -223q-42 0 -71 19.5t-37 49.5l10 8q21 -43 69 -43q31 0 50.5 18t19.5 47q0 26 -17 36t-53 12l62 70q-104 17 -165 92.5t-61 184.5q0 183 123.5 311t298.5 128q56 0 111 -18t67 -18q29 0 63 29l-41 -226h-2q-45 211 -186 211q-77 0 -141.5 -59t-99.5 -150t-35 -190
q0 -107 50.5 -168.5t139.5 -61.5q72 0 129 33t108 106h5q-46 -100 -125 -154t-183 -54q-14 0 -40 2l-41 -48q56 2 91.5 -16.5t35.5 -55.5q0 -44 -39.5 -69.5t-95.5 -25.5z" />
    <glyph glyph-name="Egrave" unicode="&#xc8;" 
d="M499 925q-15 -106 14 -184h-5q-118 76 -151 184h142zM147 700h468q47 0 67 8l-10 -186h-2q-24 80 -63.5 116t-124.5 36h-138l-75 -301h111q62 0 94.5 20.5t72.5 88.5h2l-59 -237h-2q-6 66 -28.5 83t-86.5 17h-111l-79 -319h148q48 0 86.5 12t73.5 40t58 52.5t62 71.5h2
l-78 -202h-561v2q38 19 56 45t31 77l113 452q8 38 8 59q0 39 -35 63v2z" />
    <glyph glyph-name="Eacute" unicode="&#xc9;" 
d="M454 925h151q-84 -109 -241 -184h-5q62 74 95 184zM147 700h468q47 0 67 8l-10 -186h-2q-24 80 -63.5 116t-124.5 36h-138l-75 -301h111q62 0 94.5 20.5t72.5 88.5h2l-59 -237h-2q-6 66 -28.5 83t-86.5 17h-111l-79 -319h148q48 0 86.5 12t73.5 40t58 52.5t62 71.5h2
l-78 -202h-561v2q38 19 56 45t31 77l113 452q8 38 8 59q0 39 -35 63v2z" />
    <glyph glyph-name="Ecircumflex" unicode="&#xca;" 
d="M591 736q-76 29 -131 82q-76 -47 -189 -82h-9q66 49 130.5 109t98.5 106h4q10 -48 40 -108.5t66 -106.5h-10zM147 700h468q47 0 67 8l-10 -186h-2q-24 80 -63.5 116t-124.5 36h-138l-75 -301h111q62 0 94.5 20.5t72.5 88.5h2l-59 -237h-2q-6 66 -28.5 83t-86.5 17h-111
l-79 -319h148q48 0 86.5 12t73.5 40t58 52.5t62 71.5h2l-78 -202h-561v2q38 19 56 45t31 77l113 452q8 38 8 59q0 39 -35 63v2z" />
    <glyph glyph-name="Edieresis" unicode="&#xcb;" 
d="M564 909q34 0 54.5 -20.5t20.5 -53.5t-24 -57t-60 -24q-32 0 -53 21t-21 52q0 35 24 58.5t59 23.5zM364 909q34 0 54.5 -20.5t20.5 -53.5t-24 -57t-60 -24q-32 0 -53 21t-21 52q0 35 24 58.5t59 23.5zM147 700h468q47 0 67 8l-10 -186h-2q-24 80 -63.5 116t-124.5 36
h-138l-75 -301h111q62 0 94.5 20.5t72.5 88.5h2l-59 -237h-2q-6 66 -28.5 83t-86.5 17h-111l-79 -319h148q48 0 86.5 12t73.5 40t58 52.5t62 71.5h2l-78 -202h-561v2q38 19 56 45t31 77l113 452q8 38 8 59q0 39 -35 63v2z" />
    <glyph glyph-name="Igrave" unicode="&#xcc;" horiz-adv-x="328" 
d="M349 925q-15 -106 14 -184h-5q-118 76 -151 184h142zM147 700h260v-2q-38 -19 -56 -45t-31 -77l-113 -452q-9 -36 -9 -59q0 -39 36 -63v-2h-260v2q38 19 56 45t31 77l113 452q9 43 9 59q0 39 -36 63v2z" />
    <glyph glyph-name="Iacute" unicode="&#xcd;" horiz-adv-x="328" 
d="M304 925h151q-84 -109 -241 -184h-5q62 74 95 184zM147 700h260v-2q-38 -19 -56 -45t-31 -77l-113 -452q-9 -36 -9 -59q0 -39 36 -63v-2h-260v2q38 19 56 45t31 77l113 452q9 43 9 59q0 39 -36 63v2z" />
    <glyph glyph-name="Icircumflex" unicode="&#xce;" horiz-adv-x="328" 
d="M442 736q-76 29 -131 82q-76 -47 -189 -82h-9q66 49 130.5 109t98.5 106h4q10 -48 40 -108.5t66 -106.5h-10zM147 700h260v-2q-38 -19 -56 -45t-31 -77l-113 -452q-9 -36 -9 -59q0 -39 36 -63v-2h-260v2q38 19 56 45t31 77l113 452q9 43 9 59q0 39 -36 63v2z" />
    <glyph glyph-name="Idieresis" unicode="&#xcf;" horiz-adv-x="328" 
d="M414 909q34 0 54.5 -20.5t20.5 -53.5t-24 -57t-60 -24q-32 0 -53 21t-21 52q0 35 24 58.5t59 23.5zM214 909q34 0 54.5 -20.5t20.5 -53.5t-24 -57t-60 -24q-32 0 -53 21t-21 52q0 35 24 58.5t59 23.5zM147 700h260v-2q-38 -19 -56 -45t-31 -77l-113 -452q-9 -36 -9 -59
q0 -39 36 -63v-2h-260v2q38 19 56 45t31 77l113 452q9 43 9 59q0 39 -36 63v2z" />
    <glyph glyph-name="Eth" unicode="&#xd0;" horiz-adv-x="755" 
d="M273 0h-299v2q38 19 56 45t31 77l55 221h-51l7 29h52l50 202q9 43 9 59q0 39 -36 63v2h280q152 0 241 -71t89 -197q0 -134 -66 -233.5t-174.5 -149t-243.5 -49.5zM183 26h90q100 0 176.5 63.5t114.5 162t38 212.5q0 97 -45 153.5t-140 56.5h-72l-75 -300h135l-7 -29h-135
z" />
    <glyph glyph-name="Ntilde" unicode="&#xd1;" horiz-adv-x="733" 
d="M727 921q-27 -74 -68 -116t-85 -42q-32 0 -75 29.5t-71 29.5q-56 0 -101 -66h-7q26 73 67 115.5t85 42.5q32 0 75 -29.5t71 -29.5q57 0 102 66h7zM602 202l86 346q9 35 9 62q0 64 -51 88v2h185v-2q-84 -39 -111 -146l-139 -557h-28l-341 612l-113 -455q-9 -36 -9 -63
q0 -64 51 -87v-2h-186v2q85 39 112 146l107 431q8 34 8 52q0 40 -40 67v2h193z" />
    <glyph glyph-name="Ograve" unicode="&#xd2;" horiz-adv-x="761" 
d="M565 925q-15 -106 14 -184h-5q-118 76 -151 184h142zM52 277q0 117 55 216t152.5 158t214.5 59q129 0 208 -80t79 -207q0 -179 -122.5 -306t-300.5 -127q-128 0 -207 80t-79 207zM202 193q0 -80 34.5 -131t101.5 -51t123 58t93 154q56 148 56 284q0 80 -34.5 131
t-101.5 51q-66 0 -122 -58t-93 -154q-57 -150 -57 -284z" />
    <glyph glyph-name="Oacute" unicode="&#xd3;" horiz-adv-x="761" 
d="M520 925h151q-84 -109 -241 -184h-5q62 74 95 184zM52 277q0 117 55 216t152.5 158t214.5 59q129 0 208 -80t79 -207q0 -179 -122.5 -306t-300.5 -127q-128 0 -207 80t-79 207zM202 193q0 -80 34.5 -131t101.5 -51t123 58t93 154q56 148 56 284q0 80 -34.5 131t-101.5 51
q-66 0 -122 -58t-93 -154q-57 -150 -57 -284z" />
    <glyph glyph-name="Ocircumflex" unicode="&#xd4;" horiz-adv-x="761" 
d="M666 736q-76 29 -131 82q-76 -47 -189 -82h-9q66 49 130.5 109t98.5 106h4q10 -48 40 -108.5t66 -106.5h-10zM52 277q0 117 55 216t152.5 158t214.5 59q129 0 208 -80t79 -207q0 -179 -122.5 -306t-300.5 -127q-128 0 -207 80t-79 207zM202 193q0 -80 34.5 -131
t101.5 -51t123 58t93 154q56 148 56 284q0 80 -34.5 131t-101.5 51q-66 0 -122 -58t-93 -154q-57 -150 -57 -284z" />
    <glyph glyph-name="Otilde" unicode="&#xd5;" horiz-adv-x="761" 
d="M740 921q-27 -74 -68 -116t-85 -42q-31 0 -74 29.5t-72 29.5q-56 0 -101 -66h-7q26 73 67 115.5t85 42.5q32 0 75 -29.5t71 -29.5q57 0 102 66h7zM52 277q0 117 55 216t152.5 158t214.5 59q129 0 208 -80t79 -207q0 -179 -122.5 -306t-300.5 -127q-128 0 -207 80t-79 207
zM202 193q0 -80 34.5 -131t101.5 -51t123 58t93 154q56 148 56 284q0 80 -34.5 131t-101.5 51q-66 0 -122 -58t-93 -154q-57 -150 -57 -284z" />
    <glyph glyph-name="Odieresis" unicode="&#xd6;" horiz-adv-x="761" 
d="M634 909q34 0 54.5 -20.5t20.5 -53.5t-24 -57t-60 -24q-32 0 -53 21t-21 52q0 35 24 58.5t59 23.5zM434 909q34 0 54.5 -20.5t20.5 -53.5t-24 -57t-60 -24q-32 0 -53 21t-21 52q0 35 24 58.5t59 23.5zM52 277q0 117 55 216t152.5 158t214.5 59q129 0 208 -80t79 -207
q0 -179 -122.5 -306t-300.5 -127q-128 0 -207 80t-79 207zM202 193q0 -80 34.5 -131t101.5 -51t123 58t93 154q56 148 56 284q0 80 -34.5 131t-101.5 51q-66 0 -122 -58t-93 -154q-57 -150 -57 -284z" />
    <glyph glyph-name="multiply" unicode="&#xd7;" horiz-adv-x="398" 
d="M201 325l-100 134l22 17l98 -134l166 134l16 -21l-166 -134l100 -134l-22 -17l-98 134l-166 -134l-16 21z" />
    <glyph glyph-name="Oslash" unicode="&#xd8;" horiz-adv-x="763" 
d="M203 193v-17l406 363q-6 68 -40 109t-94 41q-66 0 -122 -58t-93 -154q-57 -150 -57 -284zM339 11q67 0 123 58t93 154q56 148 56 284l-404 -361q9 -61 42.5 -98t89.5 -37zM339 -10q-133 0 -212 85l-99 -89l-17 18l100 89q-58 77 -58 184q0 117 55 216t152.5 158t214.5 59
q141 0 221 -94l98 88l17 -18l-100 -89q51 -73 51 -174q0 -179 -122.5 -306t-300.5 -127z" />
    <glyph glyph-name="Ugrave" unicode="&#xd9;" horiz-adv-x="706" 
d="M541 925q-15 -106 14 -184h-5q-118 76 -151 184h142zM709 561l-72 -287q-70 -284 -315 -284q-113 0 -180.5 56t-67.5 154q0 37 10 76l75 300q10 40 10 59q0 39 -37 63v2h261v-2q-38 -19 -56 -44.5t-31 -77.5l-75 -300q-11 -40 -11 -81q0 -71 39 -110t109 -39
q181 0 238 232l70 279q9 36 9 62q0 56 -47 79v2h172v-2q-42 -19 -65.5 -51.5t-35.5 -85.5z" />
    <glyph glyph-name="Uacute" unicode="&#xda;" horiz-adv-x="706" 
d="M535 925h151q-84 -109 -241 -184h-5q62 74 95 184zM709 561l-72 -287q-70 -284 -315 -284q-113 0 -180.5 56t-67.5 154q0 37 10 76l75 300q10 40 10 59q0 39 -37 63v2h261v-2q-38 -19 -56 -44.5t-31 -77.5l-75 -300q-11 -40 -11 -81q0 -71 39 -110t109 -39q181 0 238 232
l70 279q9 36 9 62q0 56 -47 79v2h172v-2q-42 -19 -65.5 -51.5t-35.5 -85.5z" />
    <glyph glyph-name="Ucircumflex" unicode="&#xdb;" horiz-adv-x="706" 
d="M674 736q-76 29 -131 82q-76 -47 -189 -82h-9q66 49 130.5 109t98.5 106h4q10 -48 40 -108.5t66 -106.5h-10zM709 561l-72 -287q-70 -284 -315 -284q-113 0 -180.5 56t-67.5 154q0 37 10 76l75 300q10 40 10 59q0 39 -37 63v2h261v-2q-38 -19 -56 -44.5t-31 -77.5
l-75 -300q-11 -40 -11 -81q0 -71 39 -110t109 -39q181 0 238 232l70 279q9 36 9 62q0 56 -47 79v2h172v-2q-42 -19 -65.5 -51.5t-35.5 -85.5z" />
    <glyph glyph-name="Udieresis" unicode="&#xdc;" horiz-adv-x="706" 
d="M645 909q33 0 54 -20.5t21 -53.5t-24 -57t-60 -24q-32 0 -53 21t-21 52q0 35 24 58.5t59 23.5zM445 909q33 0 54 -20.5t21 -53.5t-24 -57t-60 -24q-32 0 -53 21t-21 52q0 35 24 58.5t59 23.5zM709 561l-72 -287q-70 -284 -315 -284q-113 0 -180.5 56t-67.5 154
q0 37 10 76l75 300q10 40 10 59q0 39 -37 63v2h261v-2q-38 -19 -56 -44.5t-31 -77.5l-75 -300q-11 -40 -11 -81q0 -71 39 -110t109 -39q181 0 238 232l70 279q9 36 9 62q0 56 -47 79v2h172v-2q-42 -19 -65.5 -51.5t-35.5 -85.5z" />
    <glyph glyph-name="Yacute" unicode="&#xdd;" horiz-adv-x="668" 
d="M503 925h151q-84 -109 -241 -184h-5q62 74 95 184zM786 700v-2q-52 -33 -117 -110l-252 -294l-43 -175q-9 -33 -9 -54q0 -38 38 -63v-2h-255v2q39 20 57 44t30 73l44 175l-106 294q-26 73 -63 110v2h249v-2q-50 -27 -50 -69q0 -11 5 -28l93 -274l227 265q25 31 25 57
q0 30 -32 49v2h159z" />
    <glyph glyph-name="Thorn" unicode="&#xde;" horiz-adv-x="655" 
d="M248 0h-274v2q38 19 56 45t31 77l113 452q9 36 9 59q0 39 -36 63v2h259v-2q-38 -19 -56 -45t-31 -77l-4 -16h126q107 0 167 -42.5t60 -120.5q0 -119 -95 -182t-232 -63h-127l-8 -33q-8 -34 -8 -50q0 -41 50 -67v-2zM221 178h83q98 0 158 62.5t60 164.5q0 128 -131 128
h-82z" />
    <glyph glyph-name="germandbls" unicode="&#xdf;" horiz-adv-x="655" 
d="M406 415q0 -23 19 -45t71 -56q66 -44 94.5 -77t28.5 -79q0 -73 -59.5 -120.5t-148.5 -47.5q-80 0 -133 32.5t-53 80.5q0 31 20.5 49t51.5 18q35 0 58 -21q-41 -2 -41 -58q0 -37 27 -61t70 -24q46 0 75 24t29 65q0 26 -20 47.5t-68 53.5q-58 36 -83 67t-25 73
q0 51 29.5 85.5t91.5 75.5q49 32 71.5 66t22.5 82q0 44 -24.5 69t-67.5 25q-59 0 -98 -49t-66 -162l-120 -505q-32 -131 -96.5 -189t-167.5 -61v2q43 20 74.5 93.5t64.5 215.5l88 386h-62l3 12l66 15l13 46q34 105 110 158.5t186 53.5q79 0 130 -33t51 -88q0 -48 -37 -79.5
t-103 -61.5q-37 -17 -54.5 -34t-17.5 -44z" />
    <glyph glyph-name="agrave" unicode="&#xe0;" horiz-adv-x="601" 
d="M439 749q-15 -111 14 -198h-5q-117 82 -152 198h143zM538 307l-51 -211q-10 -41 18 -53.5t74 10.5l1 -2q-58 -61 -134 -61q-48 0 -74.5 26.5t-24.5 71.5q0 18 7 36q-74 -133 -185 -133q-70 0 -111 47.5t-41 127.5q0 131 85.5 233.5t205.5 102.5q107 0 138 -99
q50 74 147 99q-20 -57 -55 -195zM234 50q44 0 82.5 46.5t56.5 113.5l28 105q10 43 10 67q0 42 -21 64t-53 22q-47 0 -89 -52t-64.5 -123.5t-22.5 -136.5q0 -106 73 -106z" />
    <glyph glyph-name="aacute" unicode="&#xe1;" horiz-adv-x="601" 
d="M391 749h151q-88 -116 -243 -198h-4q60 76 96 198zM538 307l-51 -211q-10 -41 18 -53.5t74 10.5l1 -2q-58 -61 -134 -61q-48 0 -74.5 26.5t-24.5 71.5q0 18 7 36q-74 -133 -185 -133q-70 0 -111 47.5t-41 127.5q0 131 85.5 233.5t205.5 102.5q107 0 138 -99q50 74 147 99
q-20 -57 -55 -195zM234 50q44 0 82.5 46.5t56.5 113.5l28 105q10 43 10 67q0 42 -21 64t-53 22q-47 0 -89 -52t-64.5 -123.5t-22.5 -136.5q0 -106 73 -106z" />
    <glyph glyph-name="acircumflex" unicode="&#xe2;" horiz-adv-x="601" 
d="M532 541q-73 30 -131 90q-81 -53 -189 -90h-10q66 52 131 114t99 111h4q10 -51 39.5 -114t65.5 -111h-9zM538 307l-51 -211q-10 -41 18 -53.5t74 10.5l1 -2q-58 -61 -134 -61q-48 0 -74.5 26.5t-24.5 71.5q0 18 7 36q-74 -133 -185 -133q-70 0 -111 47.5t-41 127.5
q0 131 85.5 233.5t205.5 102.5q107 0 138 -99q50 74 147 99q-20 -57 -55 -195zM234 50q44 0 82.5 46.5t56.5 113.5l28 105q10 43 10 67q0 42 -21 64t-53 22q-47 0 -89 -52t-64.5 -123.5t-22.5 -136.5q0 -106 73 -106z" />
    <glyph glyph-name="atilde" unicode="&#xe3;" horiz-adv-x="601" 
d="M595 731q-26 -73 -67 -115.5t-85 -42.5q-32 0 -75 29.5t-71 29.5q-58 0 -101 -66h-7q26 73 67 115.5t85 42.5q31 0 74 -29.5t72 -29.5q58 0 101 66h7zM538 307l-51 -211q-10 -41 18 -53.5t74 10.5l1 -2q-58 -61 -134 -61q-48 0 -74.5 26.5t-24.5 71.5q0 18 7 36
q-74 -133 -185 -133q-70 0 -111 47.5t-41 127.5q0 131 85.5 233.5t205.5 102.5q107 0 138 -99q50 74 147 99q-20 -57 -55 -195zM234 50q44 0 82.5 46.5t56.5 113.5l28 105q10 43 10 67q0 42 -21 64t-53 22q-47 0 -89 -52t-64.5 -123.5t-22.5 -136.5q0 -106 73 -106z" />
    <glyph glyph-name="adieresis" unicode="&#xe4;" horiz-adv-x="601" 
d="M502 719q33 0 54.5 -21t21.5 -53q0 -34 -24 -57.5t-60 -23.5q-33 0 -54 21t-21 51q0 35 24 59t59 24zM302 719q33 0 54.5 -21t21.5 -53q0 -34 -24 -57.5t-60 -23.5q-33 0 -54 21t-21 51q0 35 24 59t59 24zM538 307l-51 -211q-10 -41 18 -53.5t74 10.5l1 -2
q-58 -61 -134 -61q-48 0 -74.5 26.5t-24.5 71.5q0 18 7 36q-74 -133 -185 -133q-70 0 -111 47.5t-41 127.5q0 131 85.5 233.5t205.5 102.5q107 0 138 -99q50 74 147 99q-20 -57 -55 -195zM234 50q44 0 82.5 46.5t56.5 113.5l28 105q10 43 10 67q0 42 -21 64t-53 22
q-47 0 -89 -52t-64.5 -123.5t-22.5 -136.5q0 -106 73 -106z" />
    <glyph glyph-name="aring" unicode="&#xe5;" horiz-adv-x="601" 
d="M298 653q0 41 34 73.5t78 32.5q41 0 68.5 -28t27.5 -71q0 -41 -34 -73.5t-78 -32.5q-41 0 -68.5 28t-27.5 71zM476 660q0 31 -19.5 51t-48.5 20q-32 0 -56 -24t-24 -54q0 -31 19.5 -51t49.5 -20q31 0 55 24t24 54zM538 307l-51 -211q-10 -41 18 -53.5t74 10.5l1 -2
q-58 -61 -134 -61q-48 0 -74.5 26.5t-24.5 71.5q0 18 7 36q-74 -133 -185 -133q-70 0 -111 47.5t-41 127.5q0 131 85.5 233.5t205.5 102.5q107 0 138 -99q50 74 147 99q-20 -57 -55 -195zM234 50q44 0 82.5 46.5t56.5 113.5l28 105q10 43 10 67q0 42 -21 64t-53 22
q-47 0 -89 -52t-64.5 -123.5t-22.5 -136.5q0 -106 73 -106z" />
    <glyph glyph-name="ae" unicode="&#xe6;" horiz-adv-x="803" 
d="M544 -10q-68 0 -118 31.5t-71 87.5q-75 -118 -183 -118q-72 0 -113.5 47.5t-41.5 127.5q0 131 85.5 233.5t205.5 102.5q98 0 134 -87q90 87 216 87q69 0 110.5 -30.5t41.5 -78.5q0 -152 -323 -159q-3 -24 -3 -47q0 -69 33.5 -103.5t90.5 -34.5q86 0 153 81h5
q-67 -140 -222 -140zM660 484q-54 0 -104.5 -73.5t-66.5 -164.5q98 9 155.5 59t57.5 127q0 52 -42 52zM236 50q30 0 60.5 22t52.5 58q-7 25 -7 58q0 116 80 207q-6 35 -29 54t-51 19q-50 0 -93 -52t-65.5 -123.5t-22.5 -136.5q0 -106 75 -106z" />
    <glyph glyph-name="ccedilla" unicode="&#xe7;" horiz-adv-x="473" 
d="M150 -223q-42 0 -71 19.5t-37 49.5l10 8q21 -43 69 -43q31 0 50.5 18t19.5 47q0 26 -17 36t-53 12l61 69q-73 12 -117 64.5t-44 133.5q0 124 91 217.5t222 93.5q62 0 102.5 -29.5t40.5 -80.5q0 -42 -29.5 -70t-72.5 -28q-27 0 -48 14t-25 40q12 -7 26 -7q30 0 47 22.5
t17 56.5q0 63 -55 63q-43 0 -84 -44.5t-65.5 -112t-24.5 -133.5q0 -73 32.5 -109t86.5 -36q83 0 146 82h6q-32 -68 -87 -104t-126 -36q-15 0 -23 1l-40 -47q56 2 91.5 -16.5t35.5 -55.5q0 -44 -39.5 -69.5t-95.5 -25.5z" />
    <glyph glyph-name="egrave" unicode="&#xe8;" horiz-adv-x="481" 
d="M379 749q-15 -111 14 -198h-5q-117 82 -152 198h143zM222 -10q-90 0 -146 53.5t-56 144.5q0 124 92 219t224 95q69 0 110.5 -30.5t41.5 -78.5q0 -152 -323 -159q-3 -24 -3 -47q0 -69 33.5 -103.5t90.5 -34.5q86 0 153 81h5q-67 -140 -222 -140zM338 484
q-54 0 -104.5 -73.5t-66.5 -164.5q98 9 155.5 59t57.5 127q0 52 -42 52z" />
    <glyph glyph-name="eacute" unicode="&#xe9;" horiz-adv-x="481" 
d="M358 749h151q-88 -116 -243 -198h-4q60 76 96 198zM222 -10q-90 0 -146 53.5t-56 144.5q0 124 92 219t224 95q69 0 110.5 -30.5t41.5 -78.5q0 -152 -323 -159q-3 -24 -3 -47q0 -69 33.5 -103.5t90.5 -34.5q86 0 153 81h5q-67 -140 -222 -140zM338 484q-54 0 -104.5 -73.5
t-66.5 -164.5q98 9 155.5 59t57.5 127q0 52 -42 52z" />
    <glyph glyph-name="ecircumflex" unicode="&#xea;" horiz-adv-x="481" 
d="M499 541q-73 30 -131 90q-81 -53 -189 -90h-10q66 52 131 114t99 111h4q10 -51 39.5 -114t65.5 -111h-9zM222 -10q-90 0 -146 53.5t-56 144.5q0 124 92 219t224 95q69 0 110.5 -30.5t41.5 -78.5q0 -152 -323 -159q-3 -24 -3 -47q0 -69 33.5 -103.5t90.5 -34.5
q86 0 153 81h5q-67 -140 -222 -140zM338 484q-54 0 -104.5 -73.5t-66.5 -164.5q98 9 155.5 59t57.5 127q0 52 -42 52z" />
    <glyph glyph-name="edieresis" unicode="&#xeb;" horiz-adv-x="481" 
d="M469 719q33 0 54.5 -21t21.5 -53q0 -34 -24 -57.5t-60 -23.5q-33 0 -54 21t-21 51q0 35 24 59t59 24zM269 719q33 0 54.5 -21t21.5 -53q0 -34 -24 -57.5t-60 -23.5q-33 0 -54 21t-21 51q0 35 24 59t59 24zM222 -10q-90 0 -146 53.5t-56 144.5q0 124 92 219t224 95
q69 0 110.5 -30.5t41.5 -78.5q0 -152 -323 -159q-3 -24 -3 -47q0 -69 33.5 -103.5t90.5 -34.5q86 0 153 81h5q-67 -140 -222 -140zM338 484q-54 0 -104.5 -73.5t-66.5 -164.5q98 9 155.5 59t57.5 127q0 52 -42 52z" />
    <glyph glyph-name="igrave" unicode="&#xec;" horiz-adv-x="290" 
d="M277 749q-15 -111 14 -198h-5q-117 82 -152 198h143zM271 492l-98 -396q-3 -10 -3 -19q0 -39 41 -39q24 0 54 15l1 -2q-60 -61 -134 -61q-48 0 -74.5 24.5t-26.5 65.5q0 14 5 34l68 272q7 27 7 42q0 34 -41 62v2h201z" />
    <glyph glyph-name="iacute" unicode="&#xed;" horiz-adv-x="290" 
d="M228 749h151q-88 -116 -243 -198h-4q60 76 96 198zM271 492l-98 -396q-3 -10 -3 -19q0 -39 41 -39q24 0 54 15l1 -2q-60 -61 -134 -61q-48 0 -74.5 24.5t-26.5 65.5q0 14 5 34l68 272q7 27 7 42q0 34 -41 62v2h201z" />
    <glyph glyph-name="icircumflex" unicode="&#xee;" horiz-adv-x="290" 
d="M345 541q-60 25 -113 84q-72 -49 -173 -84h-9q59 46 118.5 109t96.5 116h4q25 -143 86 -225h-10zM271 492l-98 -396q-3 -10 -3 -19q0 -39 41 -39q24 0 54 15l1 -2q-60 -61 -134 -61q-48 0 -74.5 24.5t-26.5 65.5q0 14 5 34l68 272q7 27 7 42q0 34 -41 62v2h201z" />
    <glyph glyph-name="idieresis" unicode="&#xef;" horiz-adv-x="290" 
d="M339 719q33 0 54.5 -21t21.5 -53q0 -34 -24 -57.5t-60 -23.5q-33 0 -54 21t-21 51q0 35 24 59t59 24zM139 719q33 0 54.5 -21t21.5 -53q0 -34 -24 -57.5t-60 -23.5q-33 0 -54 21t-21 51q0 35 24 59t59 24zM271 492l-98 -396q-3 -10 -3 -19q0 -39 41 -39q24 0 54 15l1 -2
q-60 -61 -134 -61q-48 0 -74.5 24.5t-26.5 65.5q0 14 5 34l68 272q7 27 7 42q0 34 -41 62v2h201z" />
    <glyph glyph-name="eth" unicode="&#xf0;" horiz-adv-x="554" 
d="M233 -10q-93 0 -152.5 53.5t-59.5 146.5q0 129 89 220.5t212 91.5q47 0 80 -24q-11 89 -49 149l-144 -57l-10 23l139 55q-60 76 -165 101l3 10q131 -13 222 -87l105 41l10 -22l-94 -37q58 -55 89 -130.5t30 -162.5q0 -157 -85 -264t-220 -107zM231 8q42 0 78 53.5
t60 139.5q28 100 28 163q0 119 -72 119q-42 0 -78.5 -53t-60.5 -139q-28 -107 -28 -163q0 -120 73 -120z" />
    <glyph glyph-name="ntilde" unicode="&#xf1;" horiz-adv-x="603" 
d="M595 731q-26 -73 -67 -115.5t-85 -42.5q-32 0 -75 29.5t-71 29.5q-58 0 -101 -66h-7q26 73 67 115.5t85 42.5q31 0 74 -29.5t72 -29.5q58 0 101 66h7zM215 236l-59 -236h-141l96 386q7 27 7 42q0 34 -41 62v2h201l-39 -159q37 76 92.5 122.5t121.5 46.5q53 0 79 -30
t26 -79q0 -29 -7 -57l-60 -240q-3 -10 -3 -19q0 -39 41 -39q24 0 54 15l1 -2q-60 -61 -134 -61q-48 0 -74.5 25t-26.5 66q0 17 4 33l57 223q6 26 6 46q0 45 -44 45t-89.5 -50t-67.5 -142z" />
    <glyph glyph-name="ograve" unicode="&#xf2;" horiz-adv-x="555" 
d="M417 749q-15 -111 14 -198h-5q-117 82 -152 198h143zM21 190q0 129 89 220.5t212 91.5q93 0 152.5 -53.5t59.5 -147.5q0 -130 -89 -220.5t-212 -90.5q-93 0 -152 53t-60 147zM397 364q0 119 -72 119q-42 0 -78 -53t-61 -139q-27 -103 -27 -163q0 -120 72 -120
q42 0 78 53.5t60 139.5q28 100 28 163z" />
    <glyph glyph-name="oacute" unicode="&#xf3;" horiz-adv-x="555" 
d="M377 749h151q-88 -116 -243 -198h-4q60 76 96 198zM21 190q0 129 89 220.5t212 91.5q93 0 152.5 -53.5t59.5 -147.5q0 -130 -89 -220.5t-212 -90.5q-93 0 -152 53t-60 147zM397 364q0 119 -72 119q-42 0 -78 -53t-61 -139q-27 -103 -27 -163q0 -120 72 -120q42 0 78 53.5
t60 139.5q28 100 28 163z" />
    <glyph glyph-name="ocircumflex" unicode="&#xf4;" horiz-adv-x="555" 
d="M510 541q-73 30 -131 90q-81 -53 -189 -90h-10q66 52 131 114t99 111h4q10 -51 39.5 -114t65.5 -111h-9zM21 190q0 129 89 220.5t212 91.5q93 0 152.5 -53.5t59.5 -147.5q0 -130 -89 -220.5t-212 -90.5q-93 0 -152 53t-60 147zM397 364q0 119 -72 119q-42 0 -78 -53
t-61 -139q-27 -103 -27 -163q0 -120 72 -120q42 0 78 53.5t60 139.5q28 100 28 163z" />
    <glyph glyph-name="otilde" unicode="&#xf5;" horiz-adv-x="555" 
d="M573 731q-26 -73 -67 -115.5t-85 -42.5q-32 0 -75 29.5t-71 29.5q-58 0 -101 -66h-7q26 73 67 115.5t85 42.5q31 0 74 -29.5t72 -29.5q58 0 101 66h7zM21 190q0 129 89 220.5t212 91.5q93 0 152.5 -53.5t59.5 -147.5q0 -130 -89 -220.5t-212 -90.5q-93 0 -152 53t-60 147
zM397 364q0 119 -72 119q-42 0 -78 -53t-61 -139q-27 -103 -27 -163q0 -120 72 -120q42 0 78 53.5t60 139.5q28 100 28 163z" />
    <glyph glyph-name="odieresis" unicode="&#xf6;" horiz-adv-x="555" 
d="M480 719q33 0 54.5 -21t21.5 -53q0 -34 -24 -57.5t-60 -23.5q-33 0 -54 21t-21 51q0 35 24 59t59 24zM280 719q33 0 54.5 -21t21.5 -53q0 -34 -24 -57.5t-60 -23.5q-33 0 -54 21t-21 51q0 35 24 59t59 24zM21 190q0 129 89 220.5t212 91.5q93 0 152.5 -53.5t59.5 -147.5
q0 -130 -89 -220.5t-212 -90.5q-93 0 -152 53t-60 147zM397 364q0 119 -72 119q-42 0 -78 -53t-61 -139q-27 -103 -27 -163q0 -120 72 -120q42 0 78 53.5t60 139.5q28 100 28 163z" />
    <glyph glyph-name="divide" unicode="&#xf7;" horiz-adv-x="479" 
d="M299 454q-13 0 -22.5 9.5t-9.5 23.5q0 13 9.5 22.5t22.5 9.5q14 0 23.5 -9.5t9.5 -22.5t-10 -23t-23 -10zM60 308l6 28h391l-6 -28h-391zM218 125q-13 0 -22.5 9.5t-9.5 22.5q0 14 9 23.5t23 9.5t23.5 -9.5t9.5 -23.5q0 -13 -10 -22.5t-23 -9.5z" />
    <glyph glyph-name="oslash" unicode="&#xf8;" horiz-adv-x="559" 
d="M188 291q-22 -82 -26 -139l237 206v6q0 119 -72 119q-42 0 -78 -53t-61 -139zM233 8q42 0 78 53.5t60 139.5q20 73 26 125l-236 -205q2 -113 72 -113zM235 -10q-99 0 -157 58l-77 -67l-17 16l79 68q-40 53 -40 125q0 129 89 220.5t212 91.5q105 0 165 -66l75 66l17 -15
l-79 -69q34 -48 34 -117q0 -130 -89 -220.5t-212 -90.5z" />
    <glyph glyph-name="ugrave" unicode="&#xf9;" horiz-adv-x="598" 
d="M402 749q-15 -111 14 -198h-5q-117 82 -152 198h143zM574 51q-60 -61 -134 -61q-46 0 -73 24.5t-27 64.5q0 21 14 74q-78 -163 -201 -163q-54 0 -84 32.5t-30 84.5q0 19 7 49l58 230q6 27 6 42q0 20 -9.5 33.5t-31.5 28.5v2h201l-85 -343q-5 -22 -5 -36q0 -49 46 -49
q43 0 86.5 47t65.5 139l61 242h140l-98 -396q-3 -10 -3 -19q0 -39 41 -39q24 0 54 15z" />
    <glyph glyph-name="uacute" unicode="&#xfa;" horiz-adv-x="598" 
d="M382 749h151q-88 -116 -243 -198h-4q60 76 96 198zM574 51q-60 -61 -134 -61q-46 0 -73 24.5t-27 64.5q0 21 14 74q-78 -163 -201 -163q-54 0 -84 32.5t-30 84.5q0 19 7 49l58 230q6 27 6 42q0 20 -9.5 33.5t-31.5 28.5v2h201l-85 -343q-5 -22 -5 -36q0 -49 46 -49
q43 0 86.5 47t65.5 139l61 242h140l-98 -396q-3 -10 -3 -19q0 -39 41 -39q24 0 54 15z" />
    <glyph glyph-name="ucircumflex" unicode="&#xfb;" horiz-adv-x="598" 
d="M523 541q-73 30 -131 90q-81 -53 -189 -90h-10q66 52 131 114t99 111h4q10 -51 39.5 -114t65.5 -111h-9zM574 51q-60 -61 -134 -61q-46 0 -73 24.5t-27 64.5q0 21 14 74q-78 -163 -201 -163q-54 0 -84 32.5t-30 84.5q0 19 7 49l58 230q6 27 6 42q0 20 -9.5 33.5
t-31.5 28.5v2h201l-85 -343q-5 -22 -5 -36q0 -49 46 -49q43 0 86.5 47t65.5 139l61 242h140l-98 -396q-3 -10 -3 -19q0 -39 41 -39q24 0 54 15z" />
    <glyph glyph-name="udieresis" unicode="&#xfc;" horiz-adv-x="598" 
d="M493 719q33 0 54.5 -21t21.5 -53q0 -34 -24 -57.5t-60 -23.5q-33 0 -54 21t-21 51q0 35 24 59t59 24zM293 719q33 0 54.5 -21t21.5 -53q0 -34 -24 -57.5t-60 -23.5q-33 0 -54 21t-21 51q0 35 24 59t59 24zM574 51q-60 -61 -134 -61q-46 0 -73 24.5t-27 64.5q0 21 14 74
q-78 -163 -201 -163q-54 0 -84 32.5t-30 84.5q0 19 7 49l58 230q6 27 6 42q0 20 -9.5 33.5t-31.5 28.5v2h201l-85 -343q-5 -22 -5 -36q0 -49 46 -49q43 0 86.5 47t65.5 139l61 242h140l-98 -396q-3 -10 -3 -19q0 -39 41 -39q24 0 54 15z" />
    <glyph glyph-name="yacute" unicode="&#xfd;" horiz-adv-x="581" 
d="M380 749h151q-88 -116 -243 -198h-4q60 76 96 198zM582 492l-100 -396q-43 -169 -120 -248t-206 -79q-79 0 -135.5 33t-56.5 88q0 35 25.5 57.5t63.5 22.5q47 0 76 -32q-23 -2 -37.5 -20.5t-14.5 -49.5q0 -36 21 -59t58 -23q65 0 103 61t71 195l29 119
q-83 -163 -200 -163q-56 0 -87 33.5t-31 85.5q0 19 7 47l55 222q7 27 7 42q0 35 -41 62v2h201l-83 -335q-5 -22 -5 -37q0 -48 44 -48q46 0 90.5 47t66.5 139l58 234h141z" />
    <glyph glyph-name="thorn" unicode="&#xfe;" horiz-adv-x="605" 
d="M444 331q0 109 -73 109q-48 0 -89.5 -44.5t-58.5 -113.5l-24 -96q-8 -31 -8 -61q0 -45 22 -69.5t58 -24.5q48 0 88.5 48t62.5 116.5t22 135.5zM339 749l-96 -385q77 138 193 138q72 0 111.5 -49t39.5 -132q0 -131 -77.5 -231t-194.5 -100q-56 0 -93.5 31t-44.5 78
l-79 -320h-141l215 865q8 29 8 42q0 33 -41 61v2h200z" />
    <glyph glyph-name="ydieresis" unicode="&#xff;" horiz-adv-x="581" 
d="M491 719q33 0 54.5 -21t21.5 -53q0 -34 -24 -57.5t-60 -23.5q-33 0 -54 21t-21 51q0 35 24 59t59 24zM291 719q33 0 54.5 -21t21.5 -53q0 -34 -24 -57.5t-60 -23.5q-33 0 -54 21t-21 51q0 35 24 59t59 24zM582 492l-100 -396q-43 -169 -120 -248t-206 -79
q-79 0 -135.5 33t-56.5 88q0 35 25.5 57.5t63.5 22.5q47 0 76 -32q-23 -2 -37.5 -20.5t-14.5 -49.5q0 -36 21 -59t58 -23q65 0 103 61t71 195l29 119q-83 -163 -200 -163q-56 0 -87 33.5t-31 85.5q0 19 7 47l55 222q7 27 7 42q0 35 -41 62v2h201l-83 -335q-5 -22 -5 -37
q0 -48 44 -48q46 0 90.5 47t66.5 139l58 234h141z" />
    <glyph glyph-name="Amacron" unicode="&#x100;" horiz-adv-x="725" 
d="M635 782h-297l9 37h297zM434 245l-54 281l-202 -281h256zM101 2v-2h-162v2q35 22 55.5 43.5t53.5 67.5l429 597h5l128 -597q10 -47 20 -68.5t33 -42.5v-2h-265v2q35 18 49.5 34.5t14.5 42.5q0 13 -3 28l-20 110h-280l-65 -90q-29 -42 -29 -70q0 -33 36 -55z" />
    <glyph glyph-name="amacron" unicode="&#x101;" horiz-adv-x="601" 
d="M536 598h-297l9 37h296zM538 307l-51 -211q-10 -41 18 -53.5t74 10.5l1 -2q-58 -61 -134 -61q-48 0 -74.5 26.5t-24.5 71.5q0 18 7 36q-74 -133 -185 -133q-70 0 -111 47.5t-41 127.5q0 131 85.5 233.5t205.5 102.5q107 0 138 -99q50 74 147 99q-20 -57 -55 -195zM234 50
q44 0 82.5 46.5t56.5 113.5l28 105q10 43 10 67q0 42 -21 64t-53 22q-47 0 -89 -52t-64.5 -123.5t-22.5 -136.5q0 -106 73 -106z" />
    <glyph glyph-name="Abreve" unicode="&#x102;" horiz-adv-x="725" 
d="M672 930q-20 -86 -73 -135t-122 -49q-67 0 -96.5 49t-11.5 135h6q-3 -43 35 -65.5t89 -22.5q52 0 101 23t65 65h7zM434 245l-54 281l-202 -281h256zM101 2v-2h-162v2q35 22 55.5 43.5t53.5 67.5l429 597h5l128 -597q10 -47 20 -68.5t33 -42.5v-2h-265v2q35 18 49.5 34.5
t14.5 42.5q0 13 -3 28l-20 110h-280l-65 -90q-29 -42 -29 -70q0 -33 36 -55z" />
    <glyph glyph-name="abreve" unicode="&#x103;" horiz-adv-x="601" 
d="M575 752q-19 -87 -72.5 -139.5t-121.5 -52.5q-67 0 -97.5 52.5t-11.5 139.5h7q-4 -47 34 -71t90 -24t100.5 24t65.5 71h6zM538 307l-51 -211q-10 -41 18 -53.5t74 10.5l1 -2q-58 -61 -134 -61q-48 0 -74.5 26.5t-24.5 71.5q0 18 7 36q-74 -133 -185 -133q-70 0 -111 47.5
t-41 127.5q0 131 85.5 233.5t205.5 102.5q107 0 138 -99q50 74 147 99q-20 -57 -55 -195zM234 50q44 0 82.5 46.5t56.5 113.5l28 105q10 43 10 67q0 42 -21 64t-53 22q-47 0 -89 -52t-64.5 -123.5t-22.5 -136.5q0 -106 73 -106z" />
    <glyph glyph-name="Aogonek" unicode="&#x104;" horiz-adv-x="724" 
d="M472 -133q-66 -106 -166 -106q-37 0 -61 19.5t-24 51.5q0 50 53.5 94t142.5 86q45 23 45 66q0 14 -3 29l-20 110h-280l-65 -90q-29 -42 -29 -70q0 -33 36 -55v-2h-162v2q35 22 55.5 43.5t53.5 67.5l429 597h5l128 -597q10 -47 20 -68.5t33 -42.5v-2h-245
q-102 -69 -102 -138q0 -45 50 -45q54 0 103 52zM380 526l-202 -281h256z" />
    <glyph glyph-name="aogonek" unicode="&#x105;" horiz-adv-x="601" 
d="M398 -239q-37 0 -61 19.5t-24 51.5q0 80 154 159q-7 -1 -21 -1q-48 0 -74.5 26.5t-24.5 71.5q0 18 7 36q-74 -133 -185 -133q-70 0 -111 47.5t-41 127.5q0 131 85.5 233.5t205.5 102.5q107 0 138 -99q50 74 147 99q-20 -57 -55 -195l-51 -211q-10 -41 18 -53.5t74 10.5
l1 -2q-19 -19 -68 -49q-104 -62 -104 -138q0 -47 50 -47q54 0 103 52l3 -2q-66 -106 -166 -106zM234 50q44 0 82.5 46.5t56.5 113.5l28 105q10 43 10 67q0 42 -20.5 64t-53.5 22q-47 0 -89 -52t-64.5 -123.5t-22.5 -136.5q0 -106 73 -106z" />
    <glyph glyph-name="Cacute" unicode="&#x106;" horiz-adv-x="659" 
d="M510 925h151q-84 -109 -241 -184h-5q62 74 95 184zM485 688q-77 0 -141.5 -59t-99.5 -150t-35 -190q0 -107 50.5 -168.5t139.5 -61.5q72 0 129 33t108 106h5q-46 -100 -125 -154t-183 -54q-128 0 -205 78t-77 203q0 183 123.5 311t298.5 128q56 0 111 -18t67 -18
q29 0 63 29l-41 -226h-2q-45 211 -186 211z" />
    <glyph glyph-name="cacute" unicode="&#x107;" horiz-adv-x="473" 
d="M367 749h151q-88 -116 -243 -198h-4q60 76 96 198zM334 502q62 0 102.5 -29.5t40.5 -80.5q0 -42 -29.5 -70t-72.5 -28q-27 0 -48 14t-25 40q12 -7 26 -7q30 0 47 22.5t17 56.5q0 63 -55 63q-43 0 -84 -44.5t-65.5 -112t-24.5 -133.5q0 -73 32.5 -109t86.5 -36
q83 0 146 82h6q-32 -68 -87 -104t-126 -36q-88 0 -144 54.5t-56 146.5q0 124 91 217.5t222 93.5z" />
    <glyph glyph-name="Ccircumflex" unicode="&#x108;" horiz-adv-x="659" 
d="M647 736q-76 29 -131 82q-76 -47 -189 -82h-9q66 49 130.5 109t98.5 106h4q10 -48 40 -108.5t66 -106.5h-10zM485 688q-77 0 -141.5 -59t-99.5 -150t-35 -190q0 -107 50.5 -168.5t139.5 -61.5q72 0 129 33t108 106h5q-46 -100 -125 -154t-183 -54q-128 0 -205 78t-77 203
q0 183 123.5 311t298.5 128q56 0 111 -18t67 -18q29 0 63 29l-41 -226h-2q-45 211 -186 211z" />
    <glyph glyph-name="ccircumflex" unicode="&#x109;" horiz-adv-x="473" 
d="M508 541q-73 30 -131 90q-81 -53 -189 -90h-10q66 52 131 114t99 111h4q10 -51 39.5 -114t65.5 -111h-9zM334 502q62 0 102.5 -29.5t40.5 -80.5q0 -42 -29.5 -70t-72.5 -28q-27 0 -48 14t-25 40q12 -7 26 -7q30 0 47 22.5t17 56.5q0 63 -55 63q-43 0 -84 -44.5
t-65.5 -112t-24.5 -133.5q0 -73 32.5 -109t86.5 -36q83 0 146 82h6q-32 -68 -87 -104t-126 -36q-88 0 -144 54.5t-56 146.5q0 124 91 217.5t222 93.5z" />
    <glyph glyph-name="Cdotaccent" unicode="&#x10a;" horiz-adv-x="659" 
d="M523 918q35 0 57 -22t22 -55q0 -37 -26 -62.5t-63 -25.5q-35 0 -57 22.5t-22 55.5q0 36 25.5 61.5t63.5 25.5zM485 688q-77 0 -141.5 -59t-99.5 -150t-35 -190q0 -107 50.5 -168.5t139.5 -61.5q72 0 129 33t108 106h5q-46 -100 -125 -154t-183 -54q-128 0 -205 78
t-77 203q0 183 123.5 311t298.5 128q56 0 111 -18t67 -18q29 0 63 29l-41 -226h-2q-45 211 -186 211z" />
    <glyph glyph-name="cdotaccent" unicode="&#x10b;" horiz-adv-x="473" 
d="M383 736q35 0 57 -22.5t22 -55.5q0 -36 -25.5 -61.5t-63.5 -25.5q-35 0 -57 22t-22 55q0 37 26 62.5t63 25.5zM334 502q62 0 102.5 -29.5t40.5 -80.5q0 -42 -29.5 -70t-72.5 -28q-27 0 -48 14t-25 40q12 -7 26 -7q30 0 47 22.5t17 56.5q0 63 -55 63q-43 0 -84 -44.5
t-65.5 -112t-24.5 -133.5q0 -73 32.5 -109t86.5 -36q83 0 146 82h6q-32 -68 -87 -104t-126 -36q-88 0 -144 54.5t-56 146.5q0 124 91 217.5t222 93.5z" />
    <glyph glyph-name="Ccaron" unicode="&#x10c;" horiz-adv-x="659" 
d="M392 951q79 -32 131 -82q70 43 189 82h9q-163 -124 -229 -215h-4q-9 48 -39 108t-67 107h10zM485 688q-77 0 -141.5 -59t-99.5 -150t-35 -190q0 -107 50.5 -168.5t139.5 -61.5q72 0 129 33t108 106h5q-46 -100 -125 -154t-183 -54q-128 0 -205 78t-77 203
q0 183 123.5 311t298.5 128q56 0 111 -18t67 -18q29 0 63 29l-41 -226h-2q-45 211 -186 211z" />
    <glyph glyph-name="ccaron" unicode="&#x10d;" horiz-adv-x="473" 
d="M249 767q74 -31 131 -90q81 53 189 90h9q-160 -126 -229 -225h-4q-9 50 -39.5 113t-66.5 112h10zM334 502q62 0 102.5 -29.5t40.5 -80.5q0 -42 -29.5 -70t-72.5 -28q-27 0 -48 14t-25 40q12 -7 26 -7q30 0 47 22.5t17 56.5q0 63 -55 63q-43 0 -84 -44.5t-65.5 -112
t-24.5 -133.5q0 -73 32.5 -109t86.5 -36q83 0 146 82h6q-32 -68 -87 -104t-126 -36q-88 0 -144 54.5t-56 146.5q0 124 91 217.5t222 93.5z" />
    <glyph glyph-name="Dcaron" unicode="&#x10e;" horiz-adv-x="755" 
d="M362 951q79 -32 131 -82q70 43 189 82h9q-163 -124 -229 -215h-4q-9 48 -39 108t-67 107h10zM-26 0v2q38 19 56 45t31 77l113 452q9 43 9 59q0 39 -36 63v2h280q152 0 241 -71t89 -197q0 -134 -66 -233.5t-174.5 -149t-243.5 -49.5h-299zM183 26h90q100 0 176.5 63.5
t114.5 162t38 212.5q0 97 -45 153.5t-140 56.5h-72z" />
    <glyph glyph-name="dcaron" unicode="&#x10f;" horiz-adv-x="610" 
d="M849 749q-27 -58 -77.5 -118.5t-106.5 -98.5h-4q48 105 66 217h122zM174 -10q-72 0 -114 48t-42 129q0 87 34.5 163.5t98.5 124t142 47.5q56 0 92.5 -31t43.5 -79l60 252q6 26 6 41q0 22 -11 34.5t-37 27.5v2h209l-159 -653q-3 -10 -3 -19q0 -39 42 -39q23 0 53 15l1 -2
q-58 -61 -134 -61q-48 0 -74.5 25.5t-26.5 66.5q0 12 8 44q-76 -136 -189 -136zM161 158q0 -106 78 -106q48 0 86.5 44t56.5 113l25 97q9 33 9 59q0 45 -23 70.5t-58 25.5q-71 0 -122.5 -99.5t-51.5 -203.5z" />
    <glyph glyph-name="Dcroat" unicode="&#x110;" horiz-adv-x="755" 
d="M273 0h-299v2q38 19 56 45t31 77l55 221h-51l7 29h52l50 202q9 43 9 59q0 39 -36 63v2h280q152 0 241 -71t89 -197q0 -134 -66 -233.5t-174.5 -149t-243.5 -49.5zM183 26h90q100 0 176.5 63.5t114.5 162t38 212.5q0 97 -45 153.5t-140 56.5h-72l-75 -300h135l-7 -29h-135
z" />
    <glyph glyph-name="dcroat" unicode="&#x111;" horiz-adv-x="610" 
d="M456 -10q-48 0 -74.5 25.5t-26.5 66.5q0 12 8 44q-76 -136 -189 -136q-72 0 -114 48t-42 129q0 87 34.5 163.5t98.5 124t142 47.5q56 0 92.5 -31t43.5 -79l45 187h-120l7 25h118l10 40q6 26 6 41q0 22 -11 34.5t-37 27.5v2h209l-35 -145h58l-7 -25h-57l-118 -483
q-3 -10 -3 -19q0 -39 42 -39q23 0 53 15l1 -2q-58 -61 -134 -61zM161 158q0 -106 78 -106q48 0 86.5 44t56.5 113l25 97q9 33 9 59q0 45 -23 70.5t-58 25.5q-71 0 -122.5 -99.5t-51.5 -203.5z" />
    <glyph glyph-name="Emacron" unicode="&#x112;" 
d="M597 782h-297l9 37h297zM147 700h468q47 0 67 8l-10 -186h-2q-24 80 -63.5 116t-124.5 36h-138l-75 -301h111q62 0 94.5 20.5t72.5 88.5h2l-59 -237h-2q-6 66 -28.5 83t-86.5 17h-111l-79 -319h148q48 0 86.5 12t73.5 40t58 52.5t62 71.5h2l-78 -202h-561v2q38 19 56 45
t31 77l113 452q8 38 8 59q0 39 -35 63v2z" />
    <glyph glyph-name="emacron" unicode="&#x113;" horiz-adv-x="481" 
d="M504 598h-297l9 37h296zM222 -10q-90 0 -146 53.5t-56 144.5q0 124 92 219t224 95q69 0 110.5 -30.5t41.5 -78.5q0 -152 -323 -159q-3 -24 -3 -47q0 -69 33.5 -103.5t90.5 -34.5q86 0 153 81h5q-67 -140 -222 -140zM338 484q-54 0 -104.5 -73.5t-66.5 -164.5
q98 9 155.5 59t57.5 127q0 52 -42 52z" />
    <glyph glyph-name="Ebreve" unicode="&#x114;" 
d="M633 930q-20 -86 -73 -135t-122 -49q-67 0 -96.5 49t-11.5 135h6q-3 -43 35 -65.5t89 -22.5q52 0 101 23t65 65h7zM147 700h468q47 0 67 8l-10 -186h-2q-24 80 -63.5 116t-124.5 36h-138l-75 -301h111q62 0 94.5 20.5t72.5 88.5h2l-59 -237h-2q-6 66 -28.5 83t-86.5 17
h-111l-79 -319h148q48 0 86.5 12t73.5 40t58 52.5t62 71.5h2l-78 -202h-561v2q38 19 56 45t31 77l113 452q8 38 8 59q0 39 -35 63v2z" />
    <glyph glyph-name="ebreve" unicode="&#x115;" horiz-adv-x="481" 
d="M543 752q-19 -87 -72.5 -139.5t-121.5 -52.5q-67 0 -97.5 52.5t-11.5 139.5h7q-4 -47 34 -71t90 -24t100.5 24t65.5 71h6zM222 -10q-90 0 -146 53.5t-56 144.5q0 124 92 219t224 95q69 0 110.5 -30.5t41.5 -78.5q0 -152 -323 -159q-3 -24 -3 -47q0 -69 33.5 -103.5
t90.5 -34.5q86 0 153 81h5q-67 -140 -222 -140zM338 484q-54 0 -104.5 -73.5t-66.5 -164.5q98 9 155.5 59t57.5 127q0 52 -42 52z" />
    <glyph glyph-name="Edotaccent" unicode="&#x116;" 
d="M468 918q35 0 57 -22t22 -55q0 -37 -26 -62.5t-63 -25.5q-35 0 -57 22.5t-22 55.5q0 36 25.5 61.5t63.5 25.5zM147 700h468q47 0 67 8l-10 -186h-2q-24 80 -63.5 116t-124.5 36h-138l-75 -301h111q62 0 94.5 20.5t72.5 88.5h2l-59 -237h-2q-6 66 -28.5 83t-86.5 17h-111
l-79 -319h148q48 0 86.5 12t73.5 40t58 52.5t62 71.5h2l-78 -202h-561v2q38 19 56 45t31 77l113 452q8 38 8 59q0 39 -35 63v2z" />
    <glyph glyph-name="edotaccent" unicode="&#x117;" horiz-adv-x="481" 
d="M374 736q35 0 57 -22.5t22 -55.5q0 -36 -25.5 -61.5t-63.5 -25.5q-35 0 -57 22t-22 55q0 37 26 62.5t63 25.5zM222 -10q-90 0 -146 53.5t-56 144.5q0 124 92 219t224 95q69 0 110.5 -30.5t41.5 -78.5q0 -152 -323 -159q-3 -24 -3 -47q0 -69 33.5 -103.5t90.5 -34.5
q86 0 153 81h5q-67 -140 -222 -140zM338 484q-54 0 -104.5 -73.5t-66.5 -164.5q98 9 155.5 59t57.5 127q0 52 -42 52z" />
    <glyph glyph-name="Eogonek" unicode="&#x118;" 
d="M477 -133q-66 -106 -166 -106q-37 0 -61 19.5t-24 51.5q0 83 171 168h-423v2q38 19 56 45t31 77l113 452q8 38 8 59q0 39 -35 63v2h468q47 0 67 8l-10 -186h-2q-24 80 -63.5 116t-124.5 36h-138l-75 -301h111q62 0 94.5 20.5t72.5 88.5h2l-59 -237h-2q-6 66 -28.5 83
t-86.5 17h-111l-79 -319h148q48 0 86.5 12t73.5 40t58 52.5t62 71.5h2l-78 -202h-112q-102 -69 -102 -138q0 -45 50 -45q54 0 103 52z" />
    <glyph glyph-name="eogonek" unicode="&#x119;" horiz-adv-x="481" 
d="M195 -239q-37 0 -60.5 19.5t-23.5 51.5q0 81 160 162q-21 -4 -49 -4q-90 0 -146 53.5t-56 144.5q0 124 92 219t224 95q69 0 110.5 -30.5t41.5 -78.5q0 -53 -43 -89t-113 -52t-166 -18q-4 -21 -4 -47q0 -69 33.5 -103.5t90.5 -34.5q86 0 153 81h5q-38 -78 -121 -122
q-118 -62 -118 -146q0 -45 50 -45q55 0 104 52l2 -2q-66 -106 -166 -106zM168 246q96 9 154 59t58 127q0 52 -42 52q-54 0 -104 -73.5t-66 -164.5z" />
    <glyph glyph-name="Ecaron" unicode="&#x11a;" 
d="M336 951q79 -32 131 -82q70 43 189 82h9q-163 -124 -229 -215h-4q-9 48 -39 108t-67 107h10zM147 700h468q47 0 67 8l-10 -186h-2q-24 80 -63.5 116t-124.5 36h-138l-75 -301h111q62 0 94.5 20.5t72.5 88.5h2l-59 -237h-2q-6 66 -28.5 83t-86.5 17h-111l-79 -319h148
q48 0 86.5 12t73.5 40t58 52.5t62 71.5h2l-78 -202h-561v2q38 19 56 45t31 77l113 452q8 38 8 59q0 39 -35 63v2z" />
    <glyph glyph-name="ecaron" unicode="&#x11b;" horiz-adv-x="481" 
d="M241 767q74 -31 131 -90q81 53 189 90h9q-160 -126 -229 -225h-4q-9 50 -39.5 113t-66.5 112h10zM222 -10q-90 0 -146 53.5t-56 144.5q0 124 92 219t224 95q69 0 110.5 -30.5t41.5 -78.5q0 -152 -323 -159q-3 -24 -3 -47q0 -69 33.5 -103.5t90.5 -34.5q86 0 153 81h5
q-67 -140 -222 -140zM338 484q-54 0 -104.5 -73.5t-66.5 -164.5q98 9 155.5 59t57.5 127q0 52 -42 52z" />
    <glyph glyph-name="Gcircumflex" unicode="&#x11c;" horiz-adv-x="750" 
d="M666 736q-76 29 -131 82q-76 -47 -189 -82h-9q66 49 130.5 109t98.5 106h4q10 -48 40 -108.5t66 -106.5h-10zM518 159l11 42q10 40 10 58q0 39 -37 64v2h258v-2q-38 -19 -56 -45t-31 -77l-55 -211h-2l-55 100q-41 -48 -100 -74t-124 -26q-130 0 -208 77.5t-78 203.5
q0 92 36.5 175t96.5 140t138.5 90.5t161.5 33.5q55 0 111.5 -18t70.5 -18q30 0 64 29l-41 -226h-2q-45 211 -192 211q-82 0 -151 -74t-104.5 -180.5t-35.5 -211.5q0 -92 36.5 -147.5t103.5 -55.5q135 0 174 140z" />
    <glyph glyph-name="gcircumflex" unicode="&#x11d;" horiz-adv-x="559" 
d="M524 557q-73 30 -131 90q-81 -53 -189 -90h-10q66 52 131 114t99 111h4q10 -51 39.5 -114t65.5 -111h-9zM365 419q0 65 -47 65q-73 0 -103 -143q-11 -53 -11 -82q0 -65 47 -65q73 0 103 144q11 53 11 81zM171 -229q-99 0 -169 30t-70 86q0 42 42.5 67t112.5 24
q-36 9 -59.5 36t-23.5 64q0 51 38 84t92 46q-62 40 -62 107q0 82 66.5 134.5t178.5 52.5q80 0 131 -40q52 66 105 66q33 0 52.5 -17.5t19.5 -46.5q0 -39 -26.5 -58t-60.5 -19v2q15 12 15 35q0 43 -48 43q-25 0 -48 -13q40 -38 40 -91q0 -82 -67 -134t-178 -52q-60 0 -106 24
q-52 -16 -52 -60q0 -17 12.5 -28.5t36.5 -12.5l192 -4q71 -2 113 -31.5t42 -86.5q0 -68 -47.5 -116t-118 -69.5t-153.5 -21.5zM279 -33l-136 3q-55 0 -89 -20.5t-34 -64.5q0 -45 42 -70t109 -25q88 0 144 30.5t56 87.5q0 31 -22 44t-70 15z" />
    <glyph glyph-name="Gbreve" unicode="&#x11e;" horiz-adv-x="750" 
d="M708 930q-20 -86 -73 -135t-122 -49q-67 0 -96.5 49t-11.5 135h6q-3 -43 35 -65.5t89 -22.5q52 0 101 23t65 65h7zM518 159l11 42q10 40 10 58q0 39 -37 64v2h258v-2q-38 -19 -56 -45t-31 -77l-55 -211h-2l-55 100q-41 -48 -100 -74t-124 -26q-130 0 -208 77.5t-78 203.5
q0 92 36.5 175t96.5 140t138.5 90.5t161.5 33.5q55 0 111.5 -18t70.5 -18q30 0 64 29l-41 -226h-2q-45 211 -192 211q-82 0 -151 -74t-104.5 -180.5t-35.5 -211.5q0 -92 36.5 -147.5t103.5 -55.5q135 0 174 140z" />
    <glyph glyph-name="gbreve" unicode="&#x11f;" horiz-adv-x="559" 
d="M563 752q-19 -87 -72.5 -139.5t-121.5 -52.5q-67 0 -97.5 52.5t-11.5 139.5h7q-4 -47 34 -71t90 -24t100.5 24t65.5 71h6zM365 419q0 65 -47 65q-73 0 -103 -143q-11 -53 -11 -82q0 -65 47 -65q73 0 103 144q11 53 11 81zM171 -229q-99 0 -169 30t-70 86q0 42 42.5 67
t112.5 24q-36 9 -59.5 36t-23.5 64q0 51 38 84t92 46q-62 40 -62 107q0 82 66.5 134.5t178.5 52.5q80 0 131 -40q52 66 105 66q33 0 52.5 -17.5t19.5 -46.5q0 -39 -26.5 -58t-60.5 -19v2q15 12 15 35q0 43 -48 43q-25 0 -48 -13q40 -38 40 -91q0 -82 -67 -134t-178 -52
q-60 0 -106 24q-52 -16 -52 -60q0 -17 12.5 -28.5t36.5 -12.5l192 -4q71 -2 113 -31.5t42 -86.5q0 -68 -47.5 -116t-118 -69.5t-153.5 -21.5zM279 -33l-136 3q-55 0 -89 -20.5t-34 -64.5q0 -45 42 -70t109 -25q88 0 144 30.5t56 87.5q0 31 -22 44t-70 15z" />
    <glyph glyph-name="Gdotaccent" unicode="&#x120;" horiz-adv-x="750" 
d="M542 918q35 0 57 -22t22 -55q0 -37 -26 -62.5t-63 -25.5q-35 0 -57 22.5t-22 55.5q0 36 25.5 61.5t63.5 25.5zM518 159l11 42q10 40 10 58q0 39 -37 64v2h258v-2q-38 -19 -56 -45t-31 -77l-55 -211h-2l-55 100q-41 -48 -100 -74t-124 -26q-130 0 -208 77.5t-78 203.5
q0 92 36.5 175t96.5 140t138.5 90.5t161.5 33.5q55 0 111.5 -18t70.5 -18q30 0 64 29l-41 -226h-2q-45 211 -192 211q-82 0 -151 -74t-104.5 -180.5t-35.5 -211.5q0 -92 36.5 -147.5t103.5 -55.5q135 0 174 140z" />
    <glyph glyph-name="gdotaccent" unicode="&#x121;" horiz-adv-x="559" 
d="M395 736q35 0 57 -22.5t22 -55.5q0 -36 -25.5 -61.5t-63.5 -25.5q-35 0 -57 22t-22 55q0 37 26 62.5t63 25.5zM365 419q0 65 -47 65q-73 0 -103 -143q-11 -53 -11 -82q0 -65 47 -65q73 0 103 144q11 53 11 81zM171 -229q-99 0 -169 30t-70 86q0 42 42.5 67t112.5 24
q-36 9 -59.5 36t-23.5 64q0 51 38 84t92 46q-62 40 -62 107q0 82 66.5 134.5t178.5 52.5q80 0 131 -40q52 66 105 66q33 0 52.5 -17.5t19.5 -46.5q0 -39 -26.5 -58t-60.5 -19v2q15 12 15 35q0 43 -48 43q-25 0 -48 -13q40 -38 40 -91q0 -82 -67 -134t-178 -52q-60 0 -106 24
q-52 -16 -52 -60q0 -17 12.5 -28.5t36.5 -12.5l192 -4q71 -2 113 -31.5t42 -86.5q0 -68 -47.5 -116t-118 -69.5t-153.5 -21.5zM279 -33l-136 3q-55 0 -89 -20.5t-34 -64.5q0 -45 42 -70t109 -25q88 0 144 30.5t56 87.5q0 31 -22 44t-70 15z" />
    <glyph glyph-name="uni0122" unicode="&#x122;" horiz-adv-x="750" 
d="M518 159l11 42q10 40 10 58q0 39 -37 64v2h258v-2q-38 -19 -56 -45t-31 -77l-55 -211h-2l-55 100q-41 -48 -100 -74t-124 -26q-130 0 -208 77.5t-78 203.5q0 92 36.5 175t96.5 140t138.5 90.5t161.5 33.5q55 0 111.5 -18t70.5 -18q30 0 64 29l-41 -226h-2
q-45 211 -192 211q-82 0 -151 -74t-104.5 -180.5t-35.5 -211.5q0 -92 36.5 -147.5t103.5 -55.5q135 0 174 140zM384 -125q0 -61 -50 -101t-132 -41l3 15q110 10 125 83q-20 -16 -50 -16q-26 0 -42.5 17.5t-17.5 42.5q0 33 25 56.5t60 23.5q36 0 57.5 -22t21.5 -58z" />
    <glyph glyph-name="uni0123" unicode="&#x123;" horiz-adv-x="559" 
d="M295 633q0 61 50 101t132 41l-3 -15q-110 -10 -125 -82q21 15 50 15q26 0 42.5 -17.5t17.5 -42.5q0 -33 -25 -56.5t-60 -23.5q-36 0 -57.5 22t-21.5 58zM365 419q0 65 -47 65q-73 0 -103 -143q-11 -53 -11 -82q0 -65 47 -65q73 0 103 144q11 53 11 81zM171 -229
q-99 0 -169 30t-70 86q0 42 42.5 67t112.5 24q-36 9 -59.5 36t-23.5 64q0 51 38 84t92 46q-62 40 -62 107q0 82 66.5 134.5t178.5 52.5q80 0 131 -40q52 66 105 66q33 0 52.5 -17.5t19.5 -46.5q0 -39 -26.5 -58t-60.5 -19v2q15 12 15 35q0 43 -48 43q-25 0 -48 -13
q40 -38 40 -91q0 -82 -67 -134t-178 -52q-60 0 -106 24q-52 -16 -52 -60q0 -17 12.5 -28.5t36.5 -12.5l192 -4q71 -2 113 -31.5t42 -86.5q0 -68 -47.5 -116t-118 -69.5t-153.5 -21.5zM279 -33l-136 3q-55 0 -89 -20.5t-34 -64.5q0 -45 42 -70t109 -25q88 0 144 30.5t56 87.5
q0 31 -22 44t-70 15z" />
    <glyph glyph-name="Hcircumflex" unicode="&#x124;" horiz-adv-x="801" 
d="M678 736q-76 29 -131 82q-76 -47 -189 -82h-9q66 49 130.5 109t98.5 106h4q10 -48 40 -108.5t66 -106.5h-10zM234 2v-2h-260v2q38 19 56 45t31 77l113 452q8 38 8 59q0 39 -35 63v2h260v-2q-38 -19 -56 -45t-31 -77l-50 -202h327l50 202q8 38 8 59q0 39 -35 63v2h260v-2
q-38 -19 -55.5 -45t-30.5 -77l-113 -452q-10 -34 -10 -59q0 -39 36 -63v-2h-260v2q38 19 56 45t31 77l55 221h-327l-55 -221q-9 -36 -9 -59q0 -39 36 -63z" />
    <glyph glyph-name="hcircumflex" unicode="&#x125;" horiz-adv-x="600" 
d="M574 776q-76 29 -131 82q-76 -47 -189 -82h-9q66 49 130.5 109t98.5 106h4q10 -48 40 -108.5t66 -106.5h-10zM212 236l-58 -236h-141l160 644q6 26 6 41q0 22 -11 34.5t-37 27.5v2h209l-103 -416q37 76 92.5 122.5t121.5 46.5q53 0 78.5 -29.5t25.5 -79.5q0 -29 -7 -57
l-60 -240q-3 -10 -3 -19q0 -18 11.5 -28.5t30.5 -10.5q23 0 54 15v-2q-58 -61 -133 -61q-48 0 -74.5 24.5t-26.5 65.5q0 18 4 34l56 223q7 30 7 46q0 45 -44 45t-89.5 -50t-68.5 -142z" />
    <glyph glyph-name="Hbar" unicode="&#x126;" horiz-adv-x="801" 
d="M590 347l30 120h-327l-30 -120h327zM234 2v-2h-260v2q38 19 56 45t31 77l86 343h-66l7 29h66l20 80q8 38 8 59q0 39 -35 63v2h260v-2q-38 -19 -56 -45t-31 -77l-20 -80h327l20 80q8 38 8 59q0 39 -35 63v2h260v-2q-38 -19 -55.5 -45t-30.5 -77l-20 -80h62l-7 -29h-62
l-86 -343q-10 -34 -10 -59q0 -39 36 -63v-2h-260v2q38 19 56 45t31 77l49 194h-327l-49 -194q-9 -36 -9 -59q0 -39 36 -63z" />
    <glyph glyph-name="hbar" unicode="&#x127;" horiz-adv-x="600" 
d="M581 51q-58 -61 -133 -61q-48 0 -74.5 24.5t-26.5 65.5q0 18 4 34l56 223q7 30 7 46q0 45 -44 45t-89.5 -50t-68.5 -142l-58 -236h-141l144 579h-58l7 25h57l10 40q6 26 6 41q0 22 -11 34.5t-37 27.5v2h209l-36 -145h119l-6 -25h-119l-61 -246q37 76 92.5 122.5
t121.5 46.5q53 0 78.5 -29.5t25.5 -79.5q0 -29 -7 -57l-60 -240q-3 -10 -3 -19q0 -18 11.5 -28.5t30.5 -10.5q23 0 54 15v-2z" />
    <glyph glyph-name="Itilde" unicode="&#x128;" horiz-adv-x="328" 
d="M516 921q-27 -74 -68 -116t-85 -42q-31 0 -74 29.5t-72 29.5q-56 0 -101 -66h-7q26 73 67 115.5t85 42.5q32 0 75 -29.5t71 -29.5q57 0 102 66h7zM147 700h260v-2q-38 -19 -56 -45t-31 -77l-113 -452q-9 -36 -9 -59q0 -39 36 -63v-2h-260v2q38 19 56 45t31 77l113 452
q9 43 9 59q0 39 -36 63v2z" />
    <glyph glyph-name="itilde" unicode="&#x129;" horiz-adv-x="290" 
d="M410 732q-22 -75 -55.5 -117t-72.5 -42q-27 0 -64 29t-61 29q-44 0 -79 -65h-8q22 75 55 117t72 42q27 0 64.5 -29.5t60.5 -29.5q43 0 80 66h8zM271 492l-98 -396q-3 -10 -3 -19q0 -39 41 -39q24 0 54 15l1 -2q-60 -61 -134 -61q-48 0 -74.5 24.5t-26.5 65.5q0 14 5 34
l68 272q7 27 7 42q0 34 -41 62v2h201z" />
    <glyph glyph-name="Imacron" unicode="&#x12a;" horiz-adv-x="328" 
d="M446 782h-297l9 37h297zM147 700h260v-2q-38 -19 -56 -45t-31 -77l-113 -452q-9 -36 -9 -59q0 -39 36 -63v-2h-260v2q38 19 56 45t31 77l113 452q9 43 9 59q0 39 -36 63v2z" />
    <glyph glyph-name="imacron" unicode="&#x12b;" horiz-adv-x="290" 
d="M349 598h-249l9 37h249zM271 492l-98 -396q-3 -10 -3 -19q0 -39 41 -39q24 0 54 15l1 -2q-60 -61 -134 -61q-48 0 -74.5 24.5t-26.5 65.5q0 14 5 34l68 272q7 27 7 42q0 34 -41 62v2h201z" />
    <glyph glyph-name="Ibreve" unicode="&#x12c;" horiz-adv-x="328" 
d="M484 930q-20 -86 -73 -135t-122 -49q-67 0 -96.5 49t-11.5 135h6q-3 -43 35 -65.5t89 -22.5q52 0 101 23t65 65h7zM147 700h260v-2q-38 -19 -56 -45t-31 -77l-113 -452q-9 -36 -9 -59q0 -39 36 -63v-2h-260v2q38 19 56 45t31 77l113 452q9 43 9 59q0 39 -36 63v2z" />
    <glyph glyph-name="ibreve" unicode="&#x12d;" horiz-adv-x="290" 
d="M393 752q-21 -90 -65.5 -141t-109.5 -51t-89 52t-3 140h6q-4 -48 27 -71.5t81 -23.5q49 0 88.5 23.5t57.5 71.5h7zM271 492l-98 -396q-3 -10 -3 -19q0 -39 41 -39q24 0 54 15l1 -2q-60 -61 -134 -61q-48 0 -74.5 24.5t-26.5 65.5q0 14 5 34l68 272q7 27 7 42q0 34 -41 62
v2h201z" />
    <glyph glyph-name="Iogonek" unicode="&#x12e;" horiz-adv-x="328" 
d="M201 -133q-66 -106 -166 -106q-37 0 -61 19.5t-24 51.5q0 83 171 168h-147v2q38 19 56 45t31 77l113 452q9 43 9 59q0 39 -36 63v2h260v-2q-38 -19 -56 -45t-31 -77l-113 -452q-9 -36 -9 -59q0 -39 36 -63v-2h-87q-102 -69 -102 -138q0 -45 50 -45q54 0 103 52z" />
    <glyph glyph-name="iogonek" unicode="&#x12f;" horiz-adv-x="290" 
d="M234 736q36 0 58 -22t22 -56q0 -36 -26 -61.5t-63 -25.5q-36 0 -58 22t-22 55q0 37 26 62.5t63 25.5zM83 -239q-37 0 -60.5 19.5t-23.5 51.5q0 79 154 159q-7 -1 -21 -1q-57 0 -83.5 35t-12.5 89l68 272q9 47 2.5 64.5t-36.5 39.5v2h201l-98 -396q-11 -41 17.5 -53.5
t74.5 10.5l1 -2q-24 -25 -60 -46q-113 -65 -113 -143q0 -45 50 -45q55 0 104 52l2 -2q-66 -106 -166 -106z" />
    <glyph glyph-name="Idotaccent" unicode="&#x130;" horiz-adv-x="328" 
d="M318 918q35 0 57 -22t22 -55q0 -37 -26 -62.5t-63 -25.5q-35 0 -57 22.5t-22 55.5q0 36 25.5 61.5t63.5 25.5zM147 700h260v-2q-38 -19 -56 -45t-31 -77l-113 -452q-9 -36 -9 -59q0 -39 36 -63v-2h-260v2q38 19 56 45t31 77l113 452q9 43 9 59q0 39 -36 63v2z" />
    <glyph glyph-name="dotlessi" unicode="&#x131;" horiz-adv-x="290" 
d="M271 492l-98 -396q-3 -10 -3 -19q0 -39 41 -39q24 0 54 15l1 -2q-60 -61 -134 -61q-48 0 -74.5 24.5t-26.5 65.5q0 14 5 34l68 272q7 27 7 42q0 34 -41 62v2h201z" />
    <glyph glyph-name="Jcircumflex" unicode="&#x134;" horiz-adv-x="582" 
d="M707 736q-76 29 -131 82q-76 -47 -189 -82h-9q66 49 130.5 109t98.5 106h4q10 -48 40 -108.5t66 -106.5h-10zM340 166l103 410q9 36 9 59q0 39 -36 63v2h260v-2q-38 -19 -56 -45t-31 -77l-92 -369q-28 -110 -104 -163.5t-189 -53.5q-87 0 -146.5 39.5t-59.5 106.5
q0 59 40.5 94t94.5 35q59 0 84 -36q-47 -3 -72 -38.5t-25 -84.5q0 -43 21.5 -70t62.5 -27q97 0 136 157z" />
    <glyph glyph-name="jcircumflex" unicode="&#x135;" horiz-adv-x="278" 
d="M347 541q-60 25 -113 84q-72 -49 -173 -84h-9q59 46 118.5 109t96.5 116h4q25 -143 86 -225h-10zM276 492l-111 -446q-37 -150 -98.5 -213.5t-158.5 -63.5q-60 0 -99.5 24.5t-39.5 66.5q0 38 28.5 60.5t70.5 22.5q41 0 57 -18q-30 -7 -46 -30t-16 -55q0 -24 11.5 -39.5
t33.5 -15.5q30 0 50.5 40.5t46.5 143.5l104 417q7 27 7 42q0 35 -41 62v2h201z" />
    <glyph glyph-name="uni0136" unicode="&#x136;" horiz-adv-x="737" 
d="M234 2v-2h-260v2q38 19 56 45t31 77l113 452q9 36 9 59q0 39 -36 63v2h260v-2q-38 -19 -56 -45t-31 -77l-63 -251l371 288q28 20 28 45t-33 40v2h199v-2q-85 -34 -184 -112l-194 -149l153 -329q22 -43 41 -66t49 -40v-2h-264v2q35 18 35 46q0 18 -14 49l-118 251l-78 -59
l-41 -165q-9 -36 -9 -59q0 -39 36 -63zM368 -125q0 -61 -50 -101t-132 -41l3 15q110 10 125 83q-20 -16 -50 -16q-26 0 -42.5 17.5t-17.5 42.5q0 33 25 56.5t60 23.5q36 0 57.5 -22t21.5 -58z" />
    <glyph glyph-name="uni0137" unicode="&#x137;" horiz-adv-x="594" 
d="M339 749l-110 -442q43 81 112.5 138t141.5 57q49 0 77.5 -26.5t28.5 -69.5q0 -68 -55.5 -110.5t-143.5 -56.5l64 -143q23 -52 70 -52q22 0 45 13v-2q-51 -65 -137 -65q-89 0 -120 95l-62 159q27 -10 56 -10q64 0 109.5 38.5t45.5 96.5q0 28 -15 45t-42 17
q-54 0 -114.5 -62.5t-87.5 -168.5l-49 -200h-141l160 644q6 26 6 41q0 22 -11 35t-37 27v2h209zM308 -125q0 -61 -50 -101t-132 -41l3 15q110 10 125 83q-20 -16 -50 -16q-26 0 -42.5 17.5t-17.5 42.5q0 33 25 56.5t60 23.5q36 0 57.5 -22t21.5 -58z" />
    <glyph glyph-name="kgreenlandic" unicode="&#x138;" horiz-adv-x="605" 
d="M286 492l-46 -185q43 81 112.5 138t141.5 57q49 0 77.5 -26.5t28.5 -69.5q0 -68 -55.5 -110.5t-143.5 -56.5l64 -143q23 -52 70 -52q22 0 45 13v-2q-51 -65 -137 -65q-89 0 -120 95l-62 159q27 -10 56 -10q64 0 109.5 38.5t45.5 96.5q0 28 -15 45t-42 17
q-54 0 -114.5 -62.5t-87.5 -168.5l-49 -200h-141l96 386q7 32 7 42q0 22 -11.5 34.5t-37.5 27.5v2h209z" />
    <glyph glyph-name="Lacute" unicode="&#x139;" horiz-adv-x="628" 
d="M370 925h151q-84 -109 -241 -184h-5q62 74 95 184zM320 576l-137 -550h132q39 0 72.5 9.5t57.5 22t54 41t49.5 51.5l56.5 68h2l-85 -218h-548v2q38 19 56 45t31 77l113 452q9 36 9 59q0 39 -36 63v2h260v-2q-38 -19 -56 -45t-31 -77z" />
    <glyph glyph-name="lacute" unicode="&#x13a;" horiz-adv-x="288" 
d="M319 959h151q-84 -109 -241 -184h-5q62 74 95 184zM35 114l129 530q6 26 6 41q0 22 -11 34.5t-37 27.5v2h209l-159 -653q-3 -10 -3 -19q0 -39 42 -39q23 0 53 15l1 -2q-58 -61 -134 -61q-48 0 -74 25t-26 66q0 17 4 33z" />
    <glyph glyph-name="uni013B" unicode="&#x13b;" horiz-adv-x="628" 
d="M320 576l-137 -550h132q39 0 72.5 9.5t57.5 22t54 41t49.5 51.5l56.5 68h2l-85 -218h-548v2q38 19 56 45t31 77l113 452q9 36 9 59q0 39 -36 63v2h260v-2q-38 -19 -56 -45t-31 -77zM338 -125q0 -61 -50 -101t-132 -41l3 15q110 10 125 83q-20 -16 -50 -16
q-26 0 -42.5 17.5t-17.5 42.5q0 33 25 56.5t60 23.5q36 0 57.5 -22t21.5 -58z" />
    <glyph glyph-name="uni013C" unicode="&#x13c;" horiz-adv-x="288" 
d="M35 114l129 530q6 26 6 41q0 22 -11 34.5t-37 27.5v2h209l-159 -653q-3 -10 -3 -19q0 -39 42 -39q23 0 53 15l1 -2q-58 -61 -134 -61q-48 0 -74 25t-26 66q0 17 4 33zM146 -125q0 -61 -50 -101t-132 -41l3 15q110 10 125 83q-20 -16 -50 -16q-26 0 -42.5 17.5t-17.5 42.5
q0 33 25 56.5t60 23.5q36 0 57.5 -22t21.5 -58z" />
    <glyph glyph-name="Lcaron" unicode="&#x13d;" horiz-adv-x="628" 
d="M320 576l-137 -550h132q39 0 72.5 9.5t57.5 22t54 41t49.5 51.5l56.5 68h2l-85 -218h-548v2q38 19 56 45t31 77l113 452q9 36 9 59q0 39 -36 63v2h260v-2q-38 -19 -56 -45t-31 -77zM666 699q-27 -58 -77.5 -118.5t-106.5 -98.5h-4q48 105 66 217h122z" />
    <glyph glyph-name="lcaron" unicode="&#x13e;" horiz-adv-x="288" 
d="M35 114l129 530q6 26 6 41q0 22 -11 34.5t-37 27.5v2h209l-159 -653q-3 -10 -3 -19q0 -39 42 -39q23 0 53 15l1 -2q-58 -61 -134 -61q-48 0 -74 25t-26 66q0 17 4 33zM529 749q-27 -58 -77.5 -118.5t-106.5 -98.5h-4q48 105 66 217h122z" />
    <glyph glyph-name="Ldot" unicode="&#x13f;" horiz-adv-x="628" 
d="M320 576l-137 -550h132q39 0 72.5 9.5t57.5 22t54 41t49.5 51.5l56.5 68h2l-85 -218h-548v2q38 19 56 45t31 77l113 452q9 36 9 59q0 39 -36 63v2h260v-2q-38 -19 -56 -45t-31 -77zM580 468q35 0 57 -22.5t22 -55.5q0 -36 -25.5 -61.5t-63.5 -25.5q-35 0 -57 22t-22 55
q0 37 26 62.5t63 25.5z" />
    <glyph glyph-name="ldot" unicode="&#x140;" horiz-adv-x="452" 
d="M35 114l129 530q6 26 6 41q0 22 -11 34.5t-37 27.5v2h209l-159 -653q-3 -10 -3 -19q0 -39 42 -39q23 0 53 15l1 -2q-58 -61 -134 -61q-48 0 -74 25t-26 66q0 17 4 33zM396 450q35 0 57 -22.5t22 -55.5q0 -36 -25.5 -61.5t-63.5 -25.5q-35 0 -57 22t-22 55q0 37 26 62.5
t63 25.5z" />
    <glyph glyph-name="Lslash" unicode="&#x141;" horiz-adv-x="628" 
d="M522 -1h-548v2q38 19 56 45t31 77l49 197l-65 -21l9 31l64 22l56 223q9 36 9 59q0 39 -36 63v2h260v-2q-38 -19 -56 -45t-31 -77l-45 -180l136 45l-8 -31l-136 -46l-84 -338h132q39 0 72.5 9.5t57.5 22t54 41t49.5 51.5l56.5 68h2z" />
    <glyph glyph-name="lslash" unicode="&#x142;" horiz-adv-x="319" 
d="M143 -10q-48 0 -74 25t-26 66q0 17 4 33l62 255l-78 -42l9 33l77 42l59 242q6 26 6 41q0 22 -11 34.5t-37 27.5v2h209l-70 -289l86 47l-9 -33l-85 -47l-81 -331q-3 -10 -3 -19q0 -39 42 -39q23 0 53 15l1 -2q-58 -61 -134 -61z" />
    <glyph glyph-name="Nacute" unicode="&#x143;" horiz-adv-x="733" 
d="M515 925h151q-84 -109 -241 -184h-5q62 74 95 184zM602 202l86 346q9 35 9 62q0 64 -51 88v2h185v-2q-84 -39 -111 -146l-139 -557h-28l-341 612l-113 -455q-9 -36 -9 -63q0 -64 51 -87v-2h-186v2q85 39 112 146l107 431q8 34 8 52q0 40 -40 67v2h193z" />
    <glyph glyph-name="nacute" unicode="&#x144;" horiz-adv-x="603" 
d="M393 749h151q-88 -116 -243 -198h-4q60 76 96 198zM215 236l-59 -236h-141l96 386q7 27 7 42q0 34 -41 62v2h201l-39 -159q37 76 92.5 122.5t121.5 46.5q53 0 79 -30t26 -79q0 -29 -7 -57l-60 -240q-3 -10 -3 -19q0 -39 41 -39q24 0 54 15l1 -2q-60 -61 -134 -61
q-48 0 -74.5 25t-26.5 66q0 17 4 33l57 223q6 26 6 46q0 45 -44 45t-89.5 -50t-67.5 -142z" />
    <glyph glyph-name="uni0145" unicode="&#x145;" horiz-adv-x="733" 
d="M602 202l86 346q9 35 9 62q0 64 -51 88v2h185v-2q-84 -39 -111 -146l-139 -557h-28l-341 612l-113 -455q-9 -36 -9 -63q0 -64 51 -87v-2h-186v2q85 39 112 146l107 431q8 34 8 52q0 40 -40 67v2h193zM367 -125q0 -61 -50 -101t-132 -41l3 15q110 10 125 83
q-20 -16 -50 -16q-26 0 -42.5 17.5t-17.5 42.5q0 33 25 56.5t60 23.5q36 0 57.5 -22t21.5 -58z" />
    <glyph glyph-name="uni0146" unicode="&#x146;" horiz-adv-x="603" 
d="M215 236l-59 -236h-141l96 386q7 27 7 42q0 34 -41 62v2h201l-39 -159q37 76 92.5 122.5t121.5 46.5q53 0 79 -30t26 -79q0 -29 -7 -57l-60 -240q-3 -10 -3 -19q0 -39 41 -39q24 0 54 15l1 -2q-60 -61 -134 -61q-48 0 -74.5 25t-26.5 66q0 17 4 33l57 223q6 26 6 46
q0 45 -44 45t-89.5 -50t-67.5 -142zM309 -125q0 -61 -50 -101t-132 -41l3 15q110 10 125 83q-20 -16 -50 -16q-26 0 -42.5 17.5t-17.5 42.5q0 33 25 56.5t60 23.5q36 0 57.5 -22t21.5 -58z" />
    <glyph glyph-name="Ncaron" unicode="&#x147;" horiz-adv-x="733" 
d="M398 951q79 -32 131 -82q70 43 189 82h9q-163 -124 -229 -215h-4q-9 48 -39 108t-67 107h10zM602 202l86 346q9 35 9 62q0 64 -51 88v2h185v-2q-84 -39 -111 -146l-139 -557h-28l-341 612l-113 -455q-9 -36 -9 -63q0 -64 51 -87v-2h-186v2q85 39 112 146l107 431
q8 34 8 52q0 40 -40 67v2h193z" />
    <glyph glyph-name="ncaron" unicode="&#x148;" horiz-adv-x="603" 
d="M275 767q74 -31 131 -90q81 53 189 90h9q-160 -126 -229 -225h-4q-9 50 -39.5 113t-66.5 112h10zM215 236l-59 -236h-141l96 386q7 27 7 42q0 34 -41 62v2h201l-39 -159q37 76 92.5 122.5t121.5 46.5q53 0 79 -30t26 -79q0 -29 -7 -57l-60 -240q-3 -10 -3 -19
q0 -39 41 -39q24 0 54 15l1 -2q-60 -61 -134 -61q-48 0 -74.5 25t-26.5 66q0 17 4 33l57 223q6 26 6 46q0 45 -44 45t-89.5 -50t-67.5 -142z" />
    <glyph glyph-name="Eng" unicode="&#x14a;" horiz-adv-x="733" 
d="M551 -3l-339 610l-116 -464q-8 -38 -8 -62q0 -57 47 -79v-2h-172v2q42 19 65 51.5t36 85.5l110 440q8 34 8 52q0 40 -40 67v2h193l267 -498l88 355q9 36 9 62q0 56 -47 79v2h172v-2q-42 -19 -65 -51.5t-36 -85.5l-141 -565q-30 -121 -76 -174t-113 -53q-54 0 -88.5 25.5
t-34.5 65.5q0 39 29 63.5t72 24.5q37 0 58 -19q-29 -8 -46.5 -30t-17.5 -53q0 -22 11 -35.5t32 -13.5q98 0 143 200z" />
    <glyph glyph-name="eng" unicode="&#x14b;" horiz-adv-x="591" 
d="M317 -31l93 368q6 26 6 46q0 45 -44 45t-89.5 -50t-67.5 -142l-59 -236h-141l96 386q7 27 7 42q0 34 -41 62v2h201l-39 -159q37 76 92.5 122.5t121.5 46.5q53 0 79 -30t26 -79q0 -29 -7 -57l-73 -290q-38 -150 -99.5 -213.5t-158.5 -63.5q-59 0 -98.5 24.5t-39.5 66.5
q0 38 28.5 60.5t69.5 22.5q40 0 58 -18q-31 -7 -47 -30t-16 -55q0 -24 11.5 -39.5t33.5 -15.5q30 0 50.5 40.5t46.5 143.5z" />
    <glyph glyph-name="Omacron" unicode="&#x14c;" horiz-adv-x="761" 
d="M663 782h-297l9 37h297zM52 277q0 117 55 216t152.5 158t214.5 59q129 0 208 -80t79 -207q0 -179 -122.5 -306t-300.5 -127q-128 0 -207 80t-79 207zM202 193q0 -80 34.5 -131t101.5 -51t123 58t93 154q56 148 56 284q0 80 -34.5 131t-101.5 51q-66 0 -122 -58t-93 -154
q-57 -150 -57 -284z" />
    <glyph glyph-name="omacron" unicode="&#x14d;" horiz-adv-x="555" 
d="M514 598h-297l9 37h296zM21 190q0 129 89 220.5t212 91.5q93 0 152.5 -53.5t59.5 -147.5q0 -130 -89 -220.5t-212 -90.5q-93 0 -152 53t-60 147zM397 364q0 119 -72 119q-42 0 -78 -53t-61 -139q-27 -103 -27 -163q0 -120 72 -120q42 0 78 53.5t60 139.5q28 100 28 163z
" />
    <glyph glyph-name="Obreve" unicode="&#x14e;" horiz-adv-x="761" 
d="M704 930q-20 -86 -73 -135t-122 -49q-67 0 -96.5 49t-11.5 135h6q-3 -43 35 -65.5t89 -22.5q52 0 101 23t65 65h7zM52 277q0 117 55 216t152.5 158t214.5 59q129 0 208 -80t79 -207q0 -179 -122.5 -306t-300.5 -127q-128 0 -207 80t-79 207zM202 193q0 -80 34.5 -131
t101.5 -51t123 58t93 154q56 148 56 284q0 80 -34.5 131t-101.5 51q-66 0 -122 -58t-93 -154q-57 -150 -57 -284z" />
    <glyph glyph-name="obreve" unicode="&#x14f;" horiz-adv-x="555" 
d="M553 752q-19 -87 -72.5 -139.5t-121.5 -52.5q-67 0 -97.5 52.5t-11.5 139.5h7q-4 -47 34 -71t90 -24t100.5 24t65.5 71h6zM21 190q0 129 89 220.5t212 91.5q93 0 152.5 -53.5t59.5 -147.5q0 -130 -89 -220.5t-212 -90.5q-93 0 -152 53t-60 147zM397 364q0 119 -72 119
q-42 0 -78 -53t-61 -139q-27 -103 -27 -163q0 -120 72 -120q42 0 78 53.5t60 139.5q28 100 28 163z" />
    <glyph glyph-name="Ohungarumlaut" unicode="&#x150;" horiz-adv-x="761" 
d="M452 925h143q-88 -112 -238 -184h-4q66 78 99 184zM634 925h143q-88 -112 -238 -184h-4q66 78 99 184zM52 277q0 117 55 216t152.5 158t214.5 59q129 0 208 -80t79 -207q0 -179 -122.5 -306t-300.5 -127q-128 0 -207 80t-79 207zM202 193q0 -80 34.5 -131t101.5 -51
t123 58t93 154q56 148 56 284q0 80 -34.5 131t-101.5 51q-66 0 -122 -58t-93 -154q-57 -150 -57 -284z" />
    <glyph glyph-name="ohungarumlaut" unicode="&#x151;" horiz-adv-x="555" 
d="M502 749h144q-90 -118 -239 -198h-5q69 87 100 198zM331 749h143q-88 -117 -238 -198h-5q66 84 100 198zM21 190q0 129 89 220.5t212 91.5q93 0 152.5 -53.5t59.5 -147.5q0 -130 -89 -220.5t-212 -90.5q-93 0 -152 53t-60 147zM397 364q0 119 -72 119q-42 0 -78 -53
t-61 -139q-27 -103 -27 -163q0 -120 72 -120q42 0 78 53.5t60 139.5q28 100 28 163z" />
    <glyph glyph-name="OE" unicode="&#x152;" horiz-adv-x="1066" 
d="M612 674h-77q-100 0 -176.5 -62.5t-114.5 -160t-38 -211.5q0 -98 45.5 -156t139.5 -58h59zM949 0h-565q-152 0 -242 73t-91 199q0 133 66 232t174.5 147.5t243.5 48.5h494q48 0 68 8l-11 -186h-2q-23 80 -62.5 116t-125.5 36h-138l-75 -301h111q62 0 94.5 20.5t73.5 88.5
h2l-59 -237h-2q-7 66 -29 83t-86 17h-111l-80 -319h148q38 0 72.5 9.5t59 22.5t53 39.5t47 46.5t49.5 58h2z" />
    <glyph glyph-name="oe" unicode="&#x153;" horiz-adv-x="839" 
d="M573 -10q-99 0 -154 82q-84 -82 -186 -82q-93 0 -152.5 53.5t-59.5 146.5q0 129 89 220.5t212 91.5q109 0 166 -86q88 86 199 86q69 0 110.5 -30.5t41.5 -78.5q0 -152 -323 -159q-3 -24 -3 -47q0 -69 33.5 -103.5t90.5 -34.5q85 0 153 81h5q-68 -140 -222 -140zM689 484
q-54 0 -104.5 -73.5t-66.5 -164.5q97 9 154.5 59t57.5 127q0 52 -41 52zM231 8q42 0 78 53.5t60 139.5q26 94 28 163q0 119 -72 119q-42 0 -78.5 -53t-60.5 -139q-27 -102 -28 -163q0 -120 73 -120z" />
    <glyph glyph-name="Racute" unicode="&#x154;" horiz-adv-x="727" 
d="M469 925h151q-84 -109 -241 -184h-5q62 74 95 184zM344 674l-79 -321h96q94 0 148.5 54t54.5 145q0 58 -31.5 90t-92.5 32h-96zM258 326l-51 -202q-9 -36 -9 -59q0 -39 36 -63v-2h-260v2q38 19 56 45t31 77l113 452q9 36 9 59q0 39 -36 63v2h347q101 0 161.5 -39.5
t60.5 -116.5q0 -97 -76 -151.5t-185 -59.5q125 -14 139 -128q7 -68 9 -80q7 -51 22 -76.5t51 -46.5v-2h-197q-16 36 -23 108q-2 35 -9 113q-5 54 -26.5 79.5t-73.5 25.5h-89z" />
    <glyph glyph-name="racute" unicode="&#x155;" horiz-adv-x="484" 
d="M357 749h151q-88 -116 -243 -198h-4q60 76 96 198zM361 323q21 3 33.5 19t12.5 39q0 20 -11.5 31t-31.5 11q-45 0 -89 -61.5t-66 -148.5l-53 -213h-141l96 386q7 27 7 42q0 34 -41 62v2h201l-43 -177q84 187 190 187q39 0 63.5 -23.5t24.5 -60.5q0 -48 -30.5 -78.5
t-75.5 -30.5q-32 0 -46 14z" />
    <glyph glyph-name="uni0156" unicode="&#x156;" horiz-adv-x="727" 
d="M344 674l-79 -321h96q94 0 148.5 54t54.5 145q0 58 -31.5 90t-92.5 32h-96zM258 326l-51 -202q-9 -36 -9 -59q0 -39 36 -63v-2h-260v2q38 19 56 45t31 77l113 452q9 36 9 59q0 39 -36 63v2h347q101 0 161.5 -39.5t60.5 -116.5q0 -97 -76 -151.5t-185 -59.5
q125 -14 139 -128q7 -68 9 -80q7 -51 22 -76.5t51 -46.5v-2h-197q-16 36 -23 108q-2 35 -9 113q-5 54 -26.5 79.5t-73.5 25.5h-89zM385 -125q0 -61 -50 -101t-132 -41l3 15q110 10 125 83q-20 -16 -50 -16q-26 0 -42.5 17.5t-17.5 42.5q0 33 25 56.5t60 23.5q36 0 57.5 -22
t21.5 -58z" />
    <glyph glyph-name="uni0157" unicode="&#x157;" horiz-adv-x="484" 
d="M361 323q21 3 33.5 19t12.5 39q0 20 -11.5 31t-31.5 11q-45 0 -89 -61.5t-66 -148.5l-53 -213h-141l96 386q7 27 7 42q0 34 -41 62v2h201l-43 -177q84 187 190 187q39 0 63.5 -23.5t24.5 -60.5q0 -48 -30.5 -78.5t-75.5 -30.5q-32 0 -46 14zM138 -125q0 -61 -50 -101
t-132 -41l3 15q110 10 125 83q-20 -16 -50 -16q-26 0 -42.5 17.5t-17.5 42.5q0 33 25 56.5t60 23.5q36 0 57.5 -22t21.5 -58z" />
    <glyph glyph-name="Rcaron" unicode="&#x158;" horiz-adv-x="727" 
d="M352 951q79 -32 131 -82q70 43 189 82h9q-163 -124 -229 -215h-4q-9 48 -39 108t-67 107h10zM344 674l-79 -321h96q94 0 148.5 54t54.5 145q0 58 -31.5 90t-92.5 32h-96zM258 326l-51 -202q-9 -36 -9 -59q0 -39 36 -63v-2h-260v2q38 19 56 45t31 77l113 452q9 36 9 59
q0 39 -36 63v2h347q101 0 161.5 -39.5t60.5 -116.5q0 -97 -76 -151.5t-185 -59.5q125 -14 139 -128q7 -68 9 -80q7 -51 22 -76.5t51 -46.5v-2h-197q-16 36 -23 108q-2 35 -9 113q-5 54 -26.5 79.5t-73.5 25.5h-89z" />
    <glyph glyph-name="rcaron" unicode="&#x159;" horiz-adv-x="484" 
d="M240 767q74 -31 131 -90q81 53 189 90h9q-160 -126 -229 -225h-4q-9 50 -39.5 113t-66.5 112h10zM361 323q21 3 33.5 19t12.5 39q0 20 -11.5 31t-31.5 11q-45 0 -89 -61.5t-66 -148.5l-53 -213h-141l96 386q7 27 7 42q0 34 -41 62v2h201l-43 -177q84 187 190 187
q39 0 63.5 -23.5t24.5 -60.5q0 -48 -30.5 -78.5t-75.5 -30.5q-32 0 -46 14z" />
    <glyph glyph-name="Sacute" unicode="&#x15a;" horiz-adv-x="597" 
d="M431 925h151q-84 -109 -241 -184h-5q62 74 95 184zM579 501q-20 86 -71 138t-129 52q-68 0 -106.5 -37.5t-38.5 -94.5q0 -49 32.5 -82t79 -52t93 -40t79 -60.5t32.5 -97.5q0 -108 -82.5 -172.5t-199.5 -64.5q-54 0 -121 18t-80 18q-31 0 -72 -24l39 225h2
q23 -100 85.5 -159t146.5 -59q74 0 114.5 42t40.5 103q0 35 -17.5 61t-45 42.5t-61 31t-66.5 31t-60.5 37t-45 53.5t-17.5 77q0 101 77.5 162t192.5 61q52 0 112.5 -18.5t75.5 -18.5q29 0 58 23l-45 -195h-2z" />
    <glyph glyph-name="sacute" unicode="&#x15b;" horiz-adv-x="452" 
d="M317 749h151q-88 -116 -243 -198h-4q60 76 96 198zM70 339q0 68 61 115.5t147 47.5q71 0 117 -27t46 -71q0 -29 -20 -46t-49 -17q-34 0 -53 22q17 2 27 17t10 36q0 32 -22 50.5t-63 18.5q-43 0 -70.5 -22t-27.5 -57q0 -28 19.5 -47t71.5 -48q76 -42 106 -73.5t30 -79.5
q0 -72 -65.5 -120t-158.5 -48q-83 0 -135 31.5t-52 80.5q0 30 21.5 48t53.5 18q36 0 57 -21q-19 -1 -30.5 -16t-11.5 -38q0 -38 28 -62t75 -24q49 0 79.5 23t30.5 61q0 28 -21.5 50.5t-72.5 48.5q-65 34 -96.5 67.5t-31.5 81.5z" />
    <glyph glyph-name="Scircumflex" unicode="&#x15c;" horiz-adv-x="597" 
d="M568 736q-76 29 -131 82q-76 -47 -189 -82h-9q66 49 130.5 109t98.5 106h4q10 -48 40 -108.5t66 -106.5h-10zM579 501q-20 86 -71 138t-129 52q-68 0 -106.5 -37.5t-38.5 -94.5q0 -49 32.5 -82t79 -52t93 -40t79 -60.5t32.5 -97.5q0 -108 -82.5 -172.5t-199.5 -64.5
q-54 0 -121 18t-80 18q-31 0 -72 -24l39 225h2q23 -100 85.5 -159t146.5 -59q74 0 114.5 42t40.5 103q0 35 -17.5 61t-45 42.5t-61 31t-66.5 31t-60.5 37t-45 53.5t-17.5 77q0 101 77.5 162t192.5 61q52 0 112.5 -18.5t75.5 -18.5q29 0 58 23l-45 -195h-2z" />
    <glyph glyph-name="scircumflex" unicode="&#x15d;" horiz-adv-x="452" 
d="M458 541q-73 30 -131 90q-81 -53 -189 -90h-10q66 52 131 114t99 111h4q10 -51 39.5 -114t65.5 -111h-9zM70 339q0 68 61 115.5t147 47.5q71 0 117 -27t46 -71q0 -29 -20 -46t-49 -17q-34 0 -53 22q17 2 27 17t10 36q0 32 -22 50.5t-63 18.5q-43 0 -70.5 -22t-27.5 -57
q0 -28 19.5 -47t71.5 -48q76 -42 106 -73.5t30 -79.5q0 -72 -65.5 -120t-158.5 -48q-83 0 -135 31.5t-52 80.5q0 30 21.5 48t53.5 18q36 0 57 -21q-19 -1 -30.5 -16t-11.5 -38q0 -38 28 -62t75 -24q49 0 79.5 23t30.5 61q0 28 -21.5 50.5t-72.5 48.5q-65 34 -96.5 67.5
t-31.5 81.5z" />
    <glyph glyph-name="uni015E" unicode="&#x15e;" horiz-adv-x="597" 
d="M189 -223q-42 0 -71 19.5t-37 49.5l10 8q21 -43 69 -43q32 0 51 18t19 47q0 26 -17 36t-53 12l60 69q-35 5 -86 19t-67 14q-31 0 -72 -24l39 225h2q23 -100 85.5 -159t146.5 -59q74 0 114.5 42t40.5 103q0 35 -17.5 61t-45 42.5t-61 31t-66.5 31t-60.5 37t-45 53.5
t-17.5 77q0 101 77.5 162t192.5 61q52 0 112.5 -18.5t75.5 -18.5q29 0 58 23l-45 -195h-2q-20 86 -71 138t-129 52q-68 0 -106.5 -37.5t-38.5 -94.5q0 -49 32.5 -82t79 -52t93 -40t79 -60.5t32.5 -97.5q0 -108 -82.5 -172.5t-199.5 -64.5q-21 0 -31 1l-40 -47
q56 2 91.5 -16.5t35.5 -55.5q0 -44 -39.5 -69.5t-95.5 -25.5z" />
    <glyph glyph-name="uni015F" unicode="&#x15f;" horiz-adv-x="452" 
d="M92 -223q-42 0 -71 19.5t-37 49.5l10 8q21 -43 69 -43q31 0 50.5 18t19.5 47q0 26 -17 36t-53 12l61 70q-62 9 -98.5 38t-36.5 70q0 30 21.5 48t53.5 18q36 0 57 -21q-19 -1 -30.5 -16t-11.5 -38q0 -38 28 -62t75 -24q49 0 79.5 23t30.5 61q0 28 -21.5 50.5t-72.5 48.5
q-65 34 -96.5 67.5t-31.5 81.5q0 68 61 115.5t147 47.5q71 0 117 -27t46 -71q0 -29 -20 -46t-49 -17q-34 0 -53 22q17 2 27 17t10 36q0 32 -22 50.5t-63 18.5q-43 0 -70.5 -22t-27.5 -57q0 -28 19.5 -47t71.5 -48q76 -42 106 -73.5t30 -79.5q0 -72 -65.5 -120t-158.5 -48
q-13 0 -35 2l-41 -48q56 2 91.5 -16.5t35.5 -55.5q0 -44 -39.5 -69.5t-95.5 -25.5z" />
    <glyph glyph-name="Scaron" unicode="&#x160;" horiz-adv-x="597" 
d="M313 951q79 -32 131 -82q70 43 189 82h9q-163 -124 -229 -215h-4q-9 48 -39 108t-67 107h10zM579 501q-20 86 -71 138t-129 52q-68 0 -106.5 -37.5t-38.5 -94.5q0 -49 32.5 -82t79 -52t93 -40t79 -60.5t32.5 -97.5q0 -108 -82.5 -172.5t-199.5 -64.5q-54 0 -121 18
t-80 18q-31 0 -72 -24l39 225h2q23 -100 85.5 -159t146.5 -59q74 0 114.5 42t40.5 103q0 35 -17.5 61t-45 42.5t-61 31t-66.5 31t-60.5 37t-45 53.5t-17.5 77q0 101 77.5 162t192.5 61q52 0 112.5 -18.5t75.5 -18.5q29 0 58 23l-45 -195h-2z" />
    <glyph glyph-name="scaron" unicode="&#x161;" horiz-adv-x="452" 
d="M199 767q74 -31 131 -90q81 53 189 90h9q-160 -126 -229 -225h-4q-9 50 -39.5 113t-66.5 112h10zM70 339q0 68 61 115.5t147 47.5q71 0 117 -27t46 -71q0 -29 -20 -46t-49 -17q-34 0 -53 22q17 2 27 17t10 36q0 32 -22 50.5t-63 18.5q-43 0 -70.5 -22t-27.5 -57
q0 -28 19.5 -47t71.5 -48q76 -42 106 -73.5t30 -79.5q0 -72 -65.5 -120t-158.5 -48q-83 0 -135 31.5t-52 80.5q0 30 21.5 48t53.5 18q36 0 57 -21q-19 -1 -30.5 -16t-11.5 -38q0 -38 28 -62t75 -24q49 0 79.5 23t30.5 61q0 28 -21.5 50.5t-72.5 48.5q-65 34 -96.5 67.5
t-31.5 81.5z" />
    <glyph glyph-name="uni0162" unicode="&#x162;" horiz-adv-x="742" 
d="M263 -223q-42 0 -71 19.5t-37 49.5l10 8q21 -43 69 -43q32 0 51 18t19 47q0 26 -17 36t-53 12l67 76h-125v2q39 20 57 44t31 73l138 555h-52q-40 0 -72 -10.5t-66.5 -38.5t-61 -56t-74.5 -85h-2l87 224q15 -8 59 -8h524q44 0 64 8l-20 -224h-2q-17 54 -30 84t-33 57
t-48 38t-68 11h-58l-138 -555q-9 -33 -9 -54q0 -38 39 -63v-2h-122l-48 -56q56 2 91.5 -16.5t35.5 -55.5q0 -44 -39.5 -69.5t-95.5 -25.5z" />
    <glyph glyph-name="uni0163" unicode="&#x163;" horiz-adv-x="351" 
d="M107 -223q-42 0 -71 19.5t-37 49.5l10 8q21 -43 69 -43q32 0 51 18t19 47q0 26 -17 36t-53 12l58 66q-49 4 -75 30t-26 67q0 18 4 33l86 346h-60l2 10q156 38 241 189h8l-44 -173h130l-11 -26h-125l-88 -356q-2 -12 -2 -17q0 -23 15 -36t40 -13q48 0 92 44l2 -2
q-70 -96 -171 -96l-39 -46q56 2 91.5 -16.5t35.5 -55.5q0 -44 -39.5 -69.5t-95.5 -25.5z" />
    <glyph glyph-name="Tcaron" unicode="&#x164;" horiz-adv-x="742" 
d="M394 951q79 -32 131 -82q70 43 189 82h9q-163 -124 -229 -215h-4q-9 48 -39 108t-67 107h10zM220 700h524q44 0 64 8l-20 -224h-2q-17 54 -30 84t-33 57t-48 38t-68 11h-58l-138 -555q-9 -33 -9 -54q0 -38 39 -63v-2h-265v2q39 20 57 44t31 73l138 555h-52
q-40 0 -72 -10.5t-66.5 -38.5t-61 -56t-74.5 -85h-2l87 224q15 -8 59 -8z" />
    <glyph glyph-name="tcaron" unicode="&#x165;" horiz-adv-x="351" 
d="M535 761q-27 -58 -77.5 -118.5t-106.5 -98.5h-4q48 105 66 217h122zM266 466l-88 -356q-2 -12 -2 -17q0 -23 15 -36t40 -13q48 0 92 44l2 -2q-70 -96 -176 -96q-55 0 -84.5 26.5t-29.5 70.5q0 18 4 33l86 346h-60l2 10q156 38 241 189h8l-44 -173h130l-11 -26h-125z" />
    <glyph glyph-name="Tbar" unicode="&#x166;" horiz-adv-x="742" 
d="M441 2v-2h-265v2q39 20 57 44t31 73l56 226h-120l6 29h121l75 300h-52q-40 0 -72 -10.5t-66.5 -38.5t-61 -56t-74.5 -85h-2l87 224q15 -8 59 -8h524q44 0 64 8l-20 -224h-2q-17 54 -30 84t-33 57t-48 38t-68 11h-58l-75 -300h122l-7 -29h-122l-56 -226q-9 -33 -9 -54
q0 -38 39 -63z" />
    <glyph glyph-name="tbar" unicode="&#x167;" horiz-adv-x="368" 
d="M329 86q-70 -96 -176 -96q-55 0 -84.5 26.5t-29.5 70.5q0 18 4 33l49 198h-55l6 26h56l30 122h-60l2 10q156 38 241 189h8l-44 -173h130l-11 -26h-125l-30 -122h123l-6 -26h-124l-51 -208q-2 -12 -2 -17q0 -23 15 -36t40 -13q48 0 92 44z" />
    <glyph glyph-name="Utilde" unicode="&#x168;" horiz-adv-x="706" 
d="M747 921q-27 -74 -68 -116t-85 -42q-32 0 -75 29.5t-71 29.5q-56 0 -101 -66h-7q26 73 67 115.5t85 42.5q32 0 75 -29.5t71 -29.5q57 0 102 66h7zM709 561l-72 -287q-70 -284 -315 -284q-113 0 -180.5 56t-67.5 154q0 37 10 76l75 300q10 40 10 59q0 39 -37 63v2h261v-2
q-38 -19 -56 -44.5t-31 -77.5l-75 -300q-11 -40 -11 -81q0 -71 39 -110t109 -39q181 0 238 232l70 279q9 36 9 62q0 56 -47 79v2h172v-2q-42 -19 -65.5 -51.5t-35.5 -85.5z" />
    <glyph glyph-name="utilde" unicode="&#x169;" horiz-adv-x="598" 
d="M586 731q-26 -73 -67 -115.5t-85 -42.5q-32 0 -75 29.5t-71 29.5q-58 0 -101 -66h-7q26 73 67 115.5t85 42.5q32 0 75 -29.5t71 -29.5q58 0 101 66h7zM574 51q-60 -61 -134 -61q-46 0 -73 24.5t-27 64.5q0 21 14 74q-78 -163 -201 -163q-54 0 -84 32.5t-30 84.5
q0 19 7 49l58 230q6 27 6 42q0 20 -9.5 33.5t-31.5 28.5v2h201l-85 -343q-5 -22 -5 -36q0 -49 46 -49q43 0 86.5 47t65.5 139l61 242h140l-98 -396q-3 -10 -3 -19q0 -39 41 -39q24 0 54 15z" />
    <glyph glyph-name="Umacron" unicode="&#x16a;" horiz-adv-x="706" 
d="M678 782h-297l9 37h297zM709 561l-72 -287q-70 -284 -315 -284q-113 0 -180.5 56t-67.5 154q0 37 10 76l75 300q10 40 10 59q0 39 -37 63v2h261v-2q-38 -19 -56 -44.5t-31 -77.5l-75 -300q-11 -40 -11 -81q0 -71 39 -110t109 -39q181 0 238 232l70 279q9 36 9 62
q0 56 -47 79v2h172v-2q-42 -19 -65.5 -51.5t-35.5 -85.5z" />
    <glyph glyph-name="umacron" unicode="&#x16b;" horiz-adv-x="598" 
d="M527 598h-297l9 37h296zM574 51q-60 -61 -134 -61q-46 0 -73 24.5t-27 64.5q0 21 14 74q-78 -163 -201 -163q-54 0 -84 32.5t-30 84.5q0 19 7 49l58 230q6 27 6 42q0 20 -9.5 33.5t-31.5 28.5v2h201l-85 -343q-5 -22 -5 -36q0 -49 46 -49q43 0 86.5 47t65.5 139l61 242
h140l-98 -396q-3 -10 -3 -19q0 -39 41 -39q24 0 54 15z" />
    <glyph glyph-name="Ubreve" unicode="&#x16c;" horiz-adv-x="706" 
d="M715 930q-20 -86 -73 -135t-122 -49q-67 0 -96.5 49t-11.5 135h6q-3 -43 35 -65.5t89 -22.5q52 0 101 23t65 65h7zM709 561l-72 -287q-70 -284 -315 -284q-113 0 -180.5 56t-67.5 154q0 37 10 76l75 300q10 40 10 59q0 39 -37 63v2h261v-2q-38 -19 -56 -44.5t-31 -77.5
l-75 -300q-11 -40 -11 -81q0 -71 39 -110t109 -39q181 0 238 232l70 279q9 36 9 62q0 56 -47 79v2h172v-2q-42 -19 -65.5 -51.5t-35.5 -85.5z" />
    <glyph glyph-name="ubreve" unicode="&#x16d;" horiz-adv-x="598" 
d="M566 752q-19 -87 -72.5 -139.5t-121.5 -52.5q-67 0 -97.5 52.5t-11.5 139.5h7q-4 -47 34 -71t90 -24t100.5 24t65.5 71h6zM574 51q-60 -61 -134 -61q-46 0 -73 24.5t-27 64.5q0 21 14 74q-78 -163 -201 -163q-54 0 -84 32.5t-30 84.5q0 19 7 49l58 230q6 27 6 42
q0 20 -9.5 33.5t-31.5 28.5v2h201l-85 -343q-5 -22 -5 -36q0 -49 46 -49q43 0 86.5 47t65.5 139l61 242h140l-98 -396q-3 -10 -3 -19q0 -39 41 -39q24 0 54 15z" />
    <glyph glyph-name="Uring" unicode="&#x16e;" horiz-adv-x="706" 
d="M442 843q0 41 34 73.5t78 32.5q41 0 68.5 -28t27.5 -71q0 -41 -34 -73.5t-77 -32.5q-42 0 -69.5 28t-27.5 71zM621 850q0 31 -20 51t-49 20q-32 0 -56 -24t-24 -54q0 -31 19.5 -51t49.5 -20q32 0 56 24t24 54zM709 561l-72 -287q-70 -284 -315 -284q-113 0 -180.5 56
t-67.5 154q0 37 10 76l75 300q10 40 10 59q0 39 -37 63v2h261v-2q-38 -19 -56 -44.5t-31 -77.5l-75 -300q-11 -40 -11 -81q0 -71 39 -110t109 -39q181 0 238 232l70 279q9 36 9 62q0 56 -47 79v2h172v-2q-42 -19 -65.5 -51.5t-35.5 -85.5z" />
    <glyph glyph-name="uring" unicode="&#x16f;" horiz-adv-x="598" 
d="M289 653q0 41 34 73.5t78 32.5q41 0 68.5 -28t27.5 -71q0 -41 -34 -73.5t-78 -32.5q-41 0 -68.5 28t-27.5 71zM467 660q0 31 -19.5 51t-48.5 20q-32 0 -56 -24t-24 -54q0 -31 19.5 -51t49.5 -20q31 0 55 24t24 54zM574 51q-60 -61 -134 -61q-46 0 -73 24.5t-27 64.5
q0 21 14 74q-78 -163 -201 -163q-54 0 -84 32.5t-30 84.5q0 19 7 49l58 230q6 27 6 42q0 20 -9.5 33.5t-31.5 28.5v2h201l-85 -343q-5 -22 -5 -36q0 -49 46 -49q43 0 86.5 47t65.5 139l61 242h140l-98 -396q-3 -10 -3 -19q0 -39 41 -39q24 0 54 15z" />
    <glyph glyph-name="Uhungarumlaut" unicode="&#x170;" horiz-adv-x="706" 
d="M467 925h143q-88 -112 -238 -184h-4q66 78 99 184zM649 925h143q-88 -112 -238 -184h-4q66 78 99 184zM709 561l-72 -287q-70 -284 -315 -284q-113 0 -180.5 56t-67.5 154q0 37 10 76l75 300q10 40 10 59q0 39 -37 63v2h261v-2q-38 -19 -56 -44.5t-31 -77.5l-75 -300
q-11 -40 -11 -81q0 -71 39 -110t109 -39q181 0 238 232l70 279q9 36 9 62q0 56 -47 79v2h172v-2q-42 -19 -65.5 -51.5t-35.5 -85.5z" />
    <glyph glyph-name="uhungarumlaut" unicode="&#x171;" horiz-adv-x="598" 
d="M491 749h144q-90 -118 -239 -198h-5q69 87 100 198zM320 749h143q-88 -117 -238 -198h-5q66 84 100 198zM574 51q-60 -61 -134 -61q-46 0 -73 24.5t-27 64.5q0 21 14 74q-78 -163 -201 -163q-54 0 -84 32.5t-30 84.5q0 19 7 49l58 230q6 27 6 42q0 20 -9.5 33.5
t-31.5 28.5v2h201l-85 -343q-5 -22 -5 -36q0 -49 46 -49q43 0 86.5 47t65.5 139l61 242h140l-98 -396q-3 -10 -3 -19q0 -39 41 -39q24 0 54 15z" />
    <glyph glyph-name="Uogonek" unicode="&#x172;" horiz-adv-x="706" 
d="M313 -239q-37 0 -60.5 19.5t-23.5 51.5q0 82 165 165q-32 -7 -72 -7q-136 0 -203.5 78.5t-34.5 207.5l75 300q13 49 7.5 76t-34.5 46v2h261v-2q-38 -19 -56 -44.5t-31 -77.5l-75 -300q-27 -107 11 -168.5t126 -61.5q181 0 238 232l70 279q15 54 6.5 89t-44.5 52v2h172v-2
q-42 -19 -65.5 -51.5t-35.5 -85.5l-72 -287q-52 -208 -195 -264q-119 -73 -119 -148q0 -45 50 -45q55 0 104 52l2 -2q-66 -106 -166 -106z" />
    <glyph glyph-name="uogonek" unicode="&#x173;" horiz-adv-x="598" 
d="M392 -239q-37 0 -60.5 19.5t-23.5 51.5q0 79 154 160q-8 -2 -22 -2q-54 0 -81 32.5t-16 81.5l11 49q-78 -163 -201 -163q-68 0 -96 49t-11 117l58 230q9 47 2 64.5t-37 39.5v2h201l-85 -343q-22 -85 41 -85q43 0 86.5 47t65.5 139l61 242h140l-98 -396
q-11 -41 17.5 -53.5t74.5 10.5l1 -2q-26 -26 -57 -44q-115 -68 -115 -145q0 -45 50 -45q55 0 104 52l2 -2q-66 -106 -166 -106z" />
    <glyph glyph-name="Wcircumflex" unicode="&#x174;" horiz-adv-x="981" 
d="M792 736q-76 29 -131 82q-76 -47 -189 -82h-9q66 49 130.5 109t98.5 106h4q10 -48 40 -108.5t66 -106.5h-10zM610 -10l-57 505l-307 -505h-8l-75 600q-5 43 -15 64t-34 44v2h261v-2q-35 -15 -49.5 -32.5t-14.5 -47.5q0 -13 1 -26l42 -374l194 319l-6 53q-5 42 -15.5 63.5
t-33.5 44.5v2h258v-2q-36 -14 -50 -31.5t-14 -48.5q0 -14 1 -25l32 -385l229 372q21 36 21 60q0 35 -40 58v2h165v-2q-35 -23 -56 -44t-48 -64l-374 -600h-7z" />
    <glyph glyph-name="wcircumflex" unicode="&#x175;" horiz-adv-x="832" 
d="M682 545q-73 30 -131 90q-81 -53 -189 -90h-10q66 52 131 114t99 111h4q10 -51 39.5 -114t65.5 -111h-9zM593 492l-70 -230q-26 -90 -26 -142q0 -94 76 -94q51 0 95 47.5t66 111t22 120.5q0 50 -19 77t-52 27q-42 0 -57 -34q-2 16 -2 23q0 46 25 75t66 29q49 0 76 -35.5
t27 -93.5q0 -65 -23.5 -133t-62.5 -123.5t-96.5 -91t-119.5 -35.5q-63 0 -109 37t-50 96q-25 -61 -69 -97t-102 -36q-69 0 -109.5 40t-40.5 103q0 65 53.5 129t153.5 135l-48 -3q-79 -5 -111 -17t-49 -44q-1 5 -1 17q0 60 30.5 102.5t77.5 42.5q22 0 66.5 -16t66.5 -19
l22 38h22q-77 -125 -110.5 -197.5t-33.5 -137.5q0 -50 20.5 -78t57.5 -28q73 0 110 125l62 204q8 30 8 43q0 33 -38 61v2h196z" />
    <glyph glyph-name="Ycircumflex" unicode="&#x176;" horiz-adv-x="668" 
d="M641 736q-76 29 -131 82q-76 -47 -189 -82h-9q66 49 130.5 109t98.5 106h4q10 -48 40 -108.5t66 -106.5h-10zM786 700v-2q-52 -33 -117 -110l-252 -294l-43 -175q-9 -33 -9 -54q0 -38 38 -63v-2h-255v2q39 20 57 44t30 73l44 175l-106 294q-26 73 -63 110v2h249v-2
q-50 -27 -50 -69q0 -11 5 -28l93 -274l227 265q25 31 25 57q0 30 -32 49v2h159z" />
    <glyph glyph-name="ycircumflex" unicode="&#x177;" horiz-adv-x="581" 
d="M521 541q-73 30 -131 90q-81 -53 -189 -90h-10q66 52 131 114t99 111h4q10 -51 39.5 -114t65.5 -111h-9zM582 492l-100 -396q-43 -169 -120 -248t-206 -79q-79 0 -135.5 33t-56.5 88q0 35 25.5 57.5t63.5 22.5q47 0 76 -32q-23 -2 -37.5 -20.5t-14.5 -49.5q0 -36 21 -59
t58 -23q65 0 103 61t71 195l29 119q-83 -163 -200 -163q-56 0 -87 33.5t-31 85.5q0 19 7 47l55 222q7 27 7 42q0 35 -41 62v2h201l-83 -335q-5 -22 -5 -37q0 -48 44 -48q46 0 90.5 47t66.5 139l58 234h141z" />
    <glyph glyph-name="Ydieresis" unicode="&#x178;" horiz-adv-x="668" 
d="M614 909q34 0 54.5 -20.5t20.5 -53.5t-24 -57t-60 -24q-32 0 -53 21t-21 52q0 35 24 58.5t59 23.5zM414 909q34 0 54.5 -20.5t20.5 -53.5t-24 -57t-60 -24q-32 0 -53 21t-21 52q0 35 24 58.5t59 23.5zM786 700v-2q-52 -33 -117 -110l-252 -294l-43 -175q-9 -33 -9 -54
q0 -38 38 -63v-2h-255v2q39 20 57 44t30 73l44 175l-106 294q-26 73 -63 110v2h249v-2q-50 -27 -50 -69q0 -11 5 -28l93 -274l227 265q25 31 25 57q0 30 -32 49v2h159z" />
    <glyph glyph-name="Zacute" unicode="&#x179;" horiz-adv-x="678" 
d="M523 925h151q-84 -109 -241 -184h-5q62 74 95 184zM547 0h-584v2l599 672h-146q-28 0 -53 -4.5t-42.5 -8.5t-41 -19.5l-34 -22.5t-38 -34.5t-37 -38l-44.5 -48.5h-2l85 210q15 -8 59 -8h486v-2l-592 -672h130q82 0 138 21t96 58t103 115h2z" />
    <glyph glyph-name="zacute" unicode="&#x17a;" horiz-adv-x="534" 
d="M382 749h151q-88 -116 -243 -198h-4q60 76 96 198zM317 -13q-32 0 -61.5 14t-52 34.5l-44.5 40.5t-47.5 34t-50.5 14q-42 0 -42 -40q0 -31 30.5 -42.5t69.5 -1.5q-18 -50 -66 -50q-27 0 -45 18.5t-18 49.5q0 71 64 115t193 76q184 46 237 97q-33 -23 -63 -23
q-38 0 -114 23t-127 23q-82 0 -113 -63h-2q48 196 171 196q31 0 58.5 -14t48.5 -34l41 -40t43.5 -34t47.5 -14q33 0 33 32q0 28 -26 42.5t-62 7.5q17 46 63 46q24 0 40.5 -17t16.5 -44q0 -34 -16.5 -62.5t-40.5 -47.5t-65.5 -37t-74.5 -28.5t-86 -25.5q-152 -40 -206 -84
q31 18 64 18q39 0 121.5 -25.5t134.5 -25.5q86 0 112 64h2q-11 -99 -56 -145.5t-112 -46.5z" />
    <glyph glyph-name="Zdotaccent" unicode="&#x17b;" horiz-adv-x="678" 
d="M501 918q35 0 57 -22t22 -55q0 -37 -26 -62.5t-63 -25.5q-35 0 -57 22.5t-22 55.5q0 36 25.5 61.5t63.5 25.5zM547 0h-584v2l599 672h-146q-28 0 -53 -4.5t-42.5 -8.5t-41 -19.5l-34 -22.5t-38 -34.5t-37 -38l-44.5 -48.5h-2l85 210q15 -8 59 -8h486v-2l-592 -672h130
q82 0 138 21t96 58t103 115h2z" />
    <glyph glyph-name="zdotaccent" unicode="&#x17c;" horiz-adv-x="534" 
d="M375 736q35 0 57 -22.5t22 -55.5q0 -36 -25.5 -61.5t-63.5 -25.5q-35 0 -57 22t-22 55q0 37 26 62.5t63 25.5zM317 -13q-32 0 -61.5 14t-52 34.5l-44.5 40.5t-47.5 34t-50.5 14q-42 0 -42 -40q0 -31 30.5 -42.5t69.5 -1.5q-18 -50 -66 -50q-27 0 -45 18.5t-18 49.5
q0 71 64 115t193 76q184 46 237 97q-33 -23 -63 -23q-38 0 -114 23t-127 23q-82 0 -113 -63h-2q48 196 171 196q31 0 58.5 -14t48.5 -34l41 -40t43.5 -34t47.5 -14q33 0 33 32q0 28 -26 42.5t-62 7.5q17 46 63 46q24 0 40.5 -17t16.5 -44q0 -34 -16.5 -62.5t-40.5 -47.5
t-65.5 -37t-74.5 -28.5t-86 -25.5q-152 -40 -206 -84q31 18 64 18q39 0 121.5 -25.5t134.5 -25.5q86 0 112 64h2q-11 -99 -56 -145.5t-112 -46.5z" />
    <glyph glyph-name="Zcaron" unicode="&#x17d;" horiz-adv-x="678" 
d="M370 951q79 -32 131 -82q70 43 189 82h9q-163 -124 -229 -215h-4q-9 48 -39 108t-67 107h10zM547 0h-584v2l599 672h-146q-28 0 -53 -4.5t-42.5 -8.5t-41 -19.5l-34 -22.5t-38 -34.5t-37 -38l-44.5 -48.5h-2l85 210q15 -8 59 -8h486v-2l-592 -672h130q82 0 138 21t96 58
t103 115h2z" />
    <glyph glyph-name="zcaron" unicode="&#x17e;" horiz-adv-x="534" 
d="M242 767q74 -31 131 -90q81 53 189 90h9q-160 -126 -229 -225h-4q-9 50 -39.5 113t-66.5 112h10zM317 -13q-32 0 -61.5 14t-52 34.5l-44.5 40.5t-47.5 34t-50.5 14q-42 0 -42 -40q0 -31 30.5 -42.5t69.5 -1.5q-18 -50 -66 -50q-27 0 -45 18.5t-18 49.5q0 71 64 115
t193 76q184 46 237 97q-33 -23 -63 -23q-38 0 -114 23t-127 23q-82 0 -113 -63h-2q48 196 171 196q31 0 58.5 -14t48.5 -34l41 -40t43.5 -34t47.5 -14q33 0 33 32q0 28 -26 42.5t-62 7.5q17 46 63 46q24 0 40.5 -17t16.5 -44q0 -34 -16.5 -62.5t-40.5 -47.5t-65.5 -37
t-74.5 -28.5t-86 -25.5q-152 -40 -206 -84q31 18 64 18q39 0 121.5 -25.5t134.5 -25.5q86 0 112 64h2q-11 -99 -56 -145.5t-112 -46.5z" />
    <glyph glyph-name="uni0192" unicode="&#x192;" horiz-adv-x="548" 
d="M3 -200q-64 0 -102.5 22t-38.5 64q0 36 24 58t61 22q39 0 62 -21q-25 -2 -41 -23.5t-16 -51.5q0 -25 14 -39.5t38 -14.5q57 0 90 124l106 400h-92l6 21h92l35 132q28 103 92.5 160t159.5 57q64 0 103.5 -22.5t39.5 -65.5q0 -37 -25.5 -58.5t-63.5 -21.5q-43 0 -63 20
q25 2 41 24.5t16 55.5q0 52 -49 52q-57 0 -90 -124l-56 -209h113l-6 -21h-112l-81 -304q-31 -116 -96 -176t-161 -60z" />
    <glyph glyph-name="AEacute" unicode="&#x1fc;" horiz-adv-x="1063" 
d="M853 925h151q-84 -109 -241 -184h-5q62 74 95 184zM606 669l-341 -376h247zM107 2v-2h-168v2q32 20 55 41.5t67 68.5l452 498q23 22 23 42q0 26 -41 46v2h531q47 0 67 8l-10 -186h-2q-24 80 -63.5 116t-124.5 36h-138l-75 -301h111q62 0 94 20t73 89h2l-59 -237h-2
q-6 66 -28.5 83t-86.5 17h-111l-79 -319h149q61 0 113 25t84.5 57.5t81.5 93.5h2l-79 -202h-562v2q38 19 56 44.5t31 77.5l35 141h-266l-135 -149q-36 -39 -36 -67q0 -30 39 -47z" />
    <glyph glyph-name="aeacute" unicode="&#x1fd;" horiz-adv-x="803" 
d="M555 749h151q-88 -116 -243 -198h-4q60 76 96 198zM544 -10q-68 0 -118 31.5t-71 87.5q-75 -118 -183 -118q-72 0 -113.5 47.5t-41.5 127.5q0 131 85.5 233.5t205.5 102.5q98 0 134 -87q90 87 216 87q69 0 110.5 -30.5t41.5 -78.5q0 -152 -323 -159q-3 -24 -3 -47
q0 -69 33.5 -103.5t90.5 -34.5q86 0 153 81h5q-67 -140 -222 -140zM660 484q-54 0 -104.5 -73.5t-66.5 -164.5q98 9 155.5 59t57.5 127q0 52 -42 52zM236 50q30 0 60.5 22t52.5 58q-7 25 -7 58q0 116 80 207q-6 35 -29 54t-51 19q-50 0 -93 -52t-65.5 -123.5t-22.5 -136.5
q0 -106 75 -106z" />
    <glyph glyph-name="Oslashacute" unicode="&#x1fe;" horiz-adv-x="763" 
d="M525 925h151q-84 -109 -241 -184h-5q62 74 95 184zM203 193v-17l406 363q-6 68 -40 109t-94 41q-66 0 -122 -58t-93 -154q-57 -150 -57 -284zM339 11q67 0 123 58t93 154q56 148 56 284l-404 -361q9 -61 42.5 -98t89.5 -37zM339 -10q-133 0 -212 85l-99 -89l-17 18
l100 89q-58 77 -58 184q0 117 55 216t152.5 158t214.5 59q141 0 221 -94l98 88l17 -18l-100 -89q51 -73 51 -174q0 -179 -122.5 -306t-300.5 -127z" />
    <glyph glyph-name="oslashacute" unicode="&#x1ff;" horiz-adv-x="560" 
d="M383 749h151q-88 -116 -243 -198h-4q60 76 96 198zM188 291q-22 -82 -26 -139l237 206v6q0 119 -72 119q-42 0 -78 -53t-61 -139zM233 8q42 0 78 53.5t60 139.5q20 73 26 125l-236 -205q2 -113 72 -113zM235 -10q-99 0 -157 58l-77 -67l-17 16l79 68q-40 53 -40 125
q0 129 89 220.5t212 91.5q105 0 165 -66l75 66l17 -15l-79 -69q34 -48 34 -117q0 -130 -89 -220.5t-212 -90.5z" />
    <glyph glyph-name="uni0218" unicode="&#x218;" horiz-adv-x="597" 
d="M579 501q-20 86 -71 138t-129 52q-68 0 -106.5 -37.5t-38.5 -94.5q0 -49 32.5 -82t79 -52t93 -40t79 -60.5t32.5 -97.5q0 -108 -82.5 -172.5t-199.5 -64.5q-54 0 -121 18t-80 18q-31 0 -72 -24l39 225h2q23 -100 85.5 -159t146.5 -59q74 0 114.5 42t40.5 103
q0 35 -17.5 61t-45 42.5t-61 31t-66.5 31t-60.5 37t-45 53.5t-17.5 77q0 101 77.5 162t192.5 61q52 0 112.5 -18.5t75.5 -18.5q29 0 58 23l-45 -195h-2zM287 -125q0 -61 -50 -101t-132 -41l3 15q110 10 125 83q-20 -16 -50 -16q-26 0 -42.5 17.5t-17.5 42.5q0 33 25 56.5
t60 23.5q36 0 57.5 -22t21.5 -58z" />
    <glyph glyph-name="uni0219" unicode="&#x219;" horiz-adv-x="452" 
d="M70 339q0 68 61 115.5t147 47.5q71 0 117 -27t46 -71q0 -29 -20 -46t-49 -17q-34 0 -53 22q17 2 27 17t10 36q0 32 -22 50.5t-63 18.5q-43 0 -70.5 -22t-27.5 -57q0 -28 19.5 -47t71.5 -48q76 -42 106 -73.5t30 -79.5q0 -72 -65.5 -120t-158.5 -48q-83 0 -135 31.5
t-52 80.5q0 30 21.5 48t53.5 18q36 0 57 -21q-19 -1 -30.5 -16t-11.5 -38q0 -38 28 -62t75 -24q49 0 79.5 23t30.5 61q0 28 -21.5 50.5t-72.5 48.5q-65 34 -96.5 67.5t-31.5 81.5zM214 -125q0 -61 -50 -101t-132 -41l3 15q110 10 125 83q-20 -16 -50 -16q-26 0 -42.5 17.5
t-17.5 42.5q0 33 25 56.5t60 23.5q36 0 57.5 -22t21.5 -58z" />
    <glyph glyph-name="uni021A" unicode="&#x21a;" horiz-adv-x="742" 
d="M220 700h524q44 0 64 8l-20 -224h-2q-17 54 -30 84t-33 57t-48 38t-68 11h-58l-138 -555q-9 -33 -9 -54q0 -38 39 -63v-2h-265v2q39 20 57 44t31 73l138 555h-52q-40 0 -72 -10.5t-66.5 -38.5t-61 -56t-74.5 -85h-2l87 224q15 -8 59 -8zM367 -125q0 -61 -50 -101
t-132 -41l3 15q110 10 125 83q-20 -16 -50 -16q-26 0 -42.5 17.5t-17.5 42.5q0 33 25 56.5t60 23.5q36 0 57.5 -22t21.5 -58z" />
    <glyph glyph-name="uni021B" unicode="&#x21b;" horiz-adv-x="351" 
d="M266 466l-88 -356q-2 -12 -2 -17q0 -23 15 -36t40 -13q48 0 92 44l2 -2q-70 -96 -176 -96q-55 0 -84.5 26.5t-29.5 70.5q0 18 4 33l86 346h-60l2 10q156 38 241 189h8l-44 -173h130l-11 -26h-125zM175 -125q0 -61 -50 -101t-132 -41l3 15q110 10 125 83q-20 -16 -50 -16
q-26 0 -42.5 17.5t-17.5 42.5q0 33 25 56.5t60 23.5q36 0 57.5 -22t21.5 -58z" />
    <glyph glyph-name="uni0237" unicode="&#x237;" horiz-adv-x="278" 
d="M276 492l-111 -446q-37 -150 -98.5 -213.5t-158.5 -63.5q-60 0 -99.5 24.5t-39.5 66.5q0 38 28.5 60.5t70.5 22.5q41 0 57 -18q-30 -7 -46 -30t-16 -55q0 -24 11.5 -39.5t33.5 -15.5q30 0 50.5 40.5t46.5 143.5l104 417q7 27 7 42q0 35 -41 62v2h201z" />
    <glyph glyph-name="uni02BB" unicode="&#x2bb;" horiz-adv-x="500" 
d="M266 633q0 61 50 101t132 41l-3 -15q-110 -10 -125 -82q21 15 50 15q26 0 42.5 -17.5t17.5 -42.5q0 -33 -25 -56.5t-60 -23.5q-36 0 -57.5 22t-21.5 58z" />
    <glyph glyph-name="circumflex" unicode="&#x2c6;" horiz-adv-x="500" 
d="M478 541q-73 30 -131 90q-81 -53 -189 -90h-10q66 52 131 114t99 111h4q10 -51 39.5 -114t65.5 -111h-9z" />
    <glyph glyph-name="caron" unicode="&#x2c7;" horiz-adv-x="500" 
d="M223 767q74 -31 131 -90q81 53 189 90h9q-160 -126 -229 -225h-4q-9 50 -39.5 113t-66.5 112h10z" />
    <glyph glyph-name="breve" unicode="&#x2d8;" horiz-adv-x="500" 
d="M527 752q-19 -87 -72.5 -139.5t-121.5 -52.5q-67 0 -97.5 52.5t-11.5 139.5h7q-4 -47 34 -71t90 -24t100.5 24t65.5 71h6z" />
    <glyph glyph-name="dotaccent" unicode="&#x2d9;" horiz-adv-x="500" 
d="M356 736q35 0 57 -22.5t22 -55.5q0 -36 -25.5 -61.5t-63.5 -25.5q-35 0 -57 22t-22 55q0 37 26 62.5t63 25.5z" />
    <glyph glyph-name="ring" unicode="&#x2da;" horiz-adv-x="500" 
d="M249 653q0 41 34 73.5t78 32.5q41 0 68.5 -28t27.5 -71q0 -41 -34 -73.5t-78 -32.5q-41 0 -68.5 28t-27.5 71zM427 660q0 31 -19.5 51t-48.5 20q-32 0 -56 -24t-24 -54q0 -31 19.5 -51t49.5 -20q31 0 55 24t24 54z" />
    <glyph glyph-name="ogonek" unicode="&#x2db;" horiz-adv-x="500" 
d="M60 -168q0 92 212 187l4 -7q-121 -74 -121 -150q0 -45 50 -45q54 0 103 52l3 -2q-66 -106 -166 -106q-37 0 -61 19.5t-24 51.5z" />
    <glyph glyph-name="tilde" unicode="&#x2dc;" horiz-adv-x="500" 
d="M554 731q-26 -73 -67 -115.5t-85 -42.5q-32 0 -75 29.5t-71 29.5q-58 0 -101 -66h-7q26 73 67 115.5t85 42.5q32 0 75 -29.5t71 -29.5q58 0 101 66h7z" />
    <glyph glyph-name="hungarumlaut" unicode="&#x2dd;" horiz-adv-x="500" 
d="M420 749h144q-90 -118 -239 -198h-5q69 87 100 198zM249 749h143q-88 -117 -238 -198h-5q66 84 100 198z" />
    <glyph glyph-name="Wgrave" unicode="&#x1e80;" horiz-adv-x="981" 
d="M656 925q-15 -106 14 -184h-5q-118 76 -151 184h142zM610 -10l-57 505l-307 -505h-8l-75 600q-5 43 -15 64t-34 44v2h261v-2q-35 -15 -49.5 -32.5t-14.5 -47.5q0 -13 1 -26l42 -374l194 319l-6 53q-5 42 -15.5 63.5t-33.5 44.5v2h258v-2q-36 -14 -50 -31.5t-14 -48.5
q0 -14 1 -25l32 -385l229 372q21 36 21 60q0 35 -40 58v2h165v-2q-35 -23 -56 -44t-48 -64l-374 -600h-7z" />
    <glyph glyph-name="wgrave" unicode="&#x1e81;" horiz-adv-x="832" 
d="M557 749q-15 -111 14 -198h-5q-117 82 -152 198h143zM593 492l-70 -230q-26 -90 -26 -142q0 -94 76 -94q51 0 95 47.5t66 111t22 120.5q0 50 -19 77t-52 27q-42 0 -57 -34q-2 16 -2 23q0 46 25 75t66 29q49 0 76 -35.5t27 -93.5q0 -65 -23.5 -133t-62.5 -123.5t-96.5 -91
t-119.5 -35.5q-63 0 -109 37t-50 96q-25 -61 -69 -97t-102 -36q-69 0 -109.5 40t-40.5 103q0 65 53.5 129t153.5 135l-48 -3q-79 -5 -111 -17t-49 -44q-1 5 -1 17q0 60 30.5 102.5t77.5 42.5q22 0 66.5 -16t66.5 -19l22 38h22q-77 -125 -110.5 -197.5t-33.5 -137.5
q0 -50 20.5 -78t57.5 -28q73 0 110 125l62 204q8 30 8 43q0 33 -38 61v2h196z" />
    <glyph glyph-name="Wacute" unicode="&#x1e82;" horiz-adv-x="981" 
d="M655 925h151q-84 -109 -241 -184h-5q62 74 95 184zM610 -10l-57 505l-307 -505h-8l-75 600q-5 43 -15 64t-34 44v2h261v-2q-35 -15 -49.5 -32.5t-14.5 -47.5q0 -13 1 -26l42 -374l194 319l-6 53q-5 42 -15.5 63.5t-33.5 44.5v2h258v-2q-36 -14 -50 -31.5t-14 -48.5
q0 -14 1 -25l32 -385l229 372q21 36 21 60q0 35 -40 58v2h165v-2q-35 -23 -56 -44t-48 -64l-374 -600h-7z" />
    <glyph glyph-name="wacute" unicode="&#x1e83;" horiz-adv-x="832" 
d="M537 749h151q-88 -116 -243 -198h-4q60 76 96 198zM593 492l-70 -230q-26 -90 -26 -142q0 -94 76 -94q51 0 95 47.5t66 111t22 120.5q0 50 -19 77t-52 27q-42 0 -57 -34q-2 16 -2 23q0 46 25 75t66 29q49 0 76 -35.5t27 -93.5q0 -65 -23.5 -133t-62.5 -123.5t-96.5 -91
t-119.5 -35.5q-63 0 -109 37t-50 96q-25 -61 -69 -97t-102 -36q-69 0 -109.5 40t-40.5 103q0 65 53.5 129t153.5 135l-48 -3q-79 -5 -111 -17t-49 -44q-1 5 -1 17q0 60 30.5 102.5t77.5 42.5q22 0 66.5 -16t66.5 -19l22 38h22q-77 -125 -110.5 -197.5t-33.5 -137.5
q0 -50 20.5 -78t57.5 -28q73 0 110 125l62 204q8 30 8 43q0 33 -38 61v2h196z" />
    <glyph glyph-name="Wdieresis" unicode="&#x1e84;" horiz-adv-x="981" 
d="M764 909q34 0 54.5 -20.5t20.5 -53.5t-24 -57t-60 -24q-32 0 -53 21t-21 52q0 35 24 58.5t59 23.5zM564 909q34 0 54.5 -20.5t20.5 -53.5t-24 -57t-60 -24q-32 0 -53 21t-21 52q0 35 24 58.5t59 23.5zM610 -10l-57 505l-307 -505h-8l-75 600q-5 43 -15 64t-34 44v2h261
v-2q-35 -15 -49.5 -32.5t-14.5 -47.5q0 -13 1 -26l42 -374l194 319l-6 53q-5 42 -15.5 63.5t-33.5 44.5v2h258v-2q-36 -14 -50 -31.5t-14 -48.5q0 -14 1 -25l32 -385l229 372q21 36 21 60q0 35 -40 58v2h165v-2q-35 -23 -56 -44t-48 -64l-374 -600h-7z" />
    <glyph glyph-name="wdieresis" unicode="&#x1e85;" horiz-adv-x="832" 
d="M648 719q33 0 54.5 -21t21.5 -53q0 -34 -24 -57.5t-60 -23.5q-33 0 -54 21t-21 51q0 35 24 59t59 24zM448 719q33 0 54.5 -21t21.5 -53q0 -34 -24 -57.5t-60 -23.5q-33 0 -54 21t-21 51q0 35 24 59t59 24zM593 492l-70 -230q-26 -90 -26 -142q0 -94 76 -94q51 0 95 47.5
t66 111t22 120.5q0 50 -19 77t-52 27q-42 0 -57 -34q-2 16 -2 23q0 46 25 75t66 29q49 0 76 -35.5t27 -93.5q0 -65 -23.5 -133t-62.5 -123.5t-96.5 -91t-119.5 -35.5q-63 0 -109 37t-50 96q-25 -61 -69 -97t-102 -36q-69 0 -109.5 40t-40.5 103q0 65 53.5 129t153.5 135
l-48 -3q-79 -5 -111 -17t-49 -44q-1 5 -1 17q0 60 30.5 102.5t77.5 42.5q22 0 66.5 -16t66.5 -19l22 38h22q-77 -125 -110.5 -197.5t-33.5 -137.5q0 -50 20.5 -78t57.5 -28q73 0 110 125l62 204q8 30 8 43q0 33 -38 61v2h196z" />
    <glyph glyph-name="Ygrave" unicode="&#x1ef2;" horiz-adv-x="668" 
d="M509 925q-15 -106 14 -184h-5q-118 76 -151 184h142zM786 700v-2q-52 -33 -117 -110l-252 -294l-43 -175q-9 -33 -9 -54q0 -38 38 -63v-2h-255v2q39 20 57 44t30 73l44 175l-106 294q-26 73 -63 110v2h249v-2q-50 -27 -50 -69q0 -11 5 -28l93 -274l227 265q25 31 25 57
q0 30 -32 49v2h159z" />
    <glyph glyph-name="ygrave" unicode="&#x1ef3;" horiz-adv-x="581" 
d="M429 749q-15 -111 14 -198h-5q-117 82 -152 198h143zM582 492l-100 -396q-43 -169 -120 -248t-206 -79q-79 0 -135.5 33t-56.5 88q0 35 25.5 57.5t63.5 22.5q47 0 76 -32q-23 -2 -37.5 -20.5t-14.5 -49.5q0 -36 21 -59t58 -23q65 0 103 61t71 195l29 119
q-83 -163 -200 -163q-56 0 -87 33.5t-31 85.5q0 19 7 47l55 222q7 27 7 42q0 35 -41 62v2h201l-83 -335q-5 -22 -5 -37q0 -48 44 -48q46 0 90.5 47t66.5 139l58 234h141z" />
    <glyph glyph-name="uni2009" unicode="&#x2009;" horiz-adv-x="40" 
 />
    <glyph glyph-name="endash" unicode="&#x2013;" horiz-adv-x="493" 
d="M40 261l10 40h420l-10 -40h-420z" />
    <glyph glyph-name="emdash" unicode="&#x2014;" horiz-adv-x="793" 
d="M41 261l10 40h720l-10 -40h-720z" />
    <glyph glyph-name="quoteleft" unicode="&#x2018;" horiz-adv-x="228" 
d="M155 582q18 15 47 15t47.5 -19t18.5 -48q0 -37 -24.5 -60.5t-61.5 -23.5q-39 0 -62 27t-23 69q0 80 64.5 132t153.5 55l-2 -16q-64 -5 -109 -41.5t-49 -89.5z" />
    <glyph glyph-name="quoteright" unicode="&#x2019;" horiz-adv-x="228" 
d="M243 586q-18 -15 -47 -15t-47.5 19t-18.5 48q0 37 24.5 60.5t61.5 23.5q39 0 62 -27t23 -69q0 -80 -64.5 -132t-153.5 -55l2 16q64 5 109 41.5t49 89.5z" />
    <glyph glyph-name="quotesinglbase" unicode="&#x201a;" horiz-adv-x="228" 
d="M101 15q-18 -15 -47 -15t-47.5 19t-18.5 48q0 37 24.5 60.5t61.5 23.5q39 0 62 -27t23 -69q0 -80 -64.5 -132t-153.5 -55l2 16q64 5 109 41.5t49 89.5z" />
    <glyph glyph-name="quotedblleft" unicode="&#x201c;" horiz-adv-x="441" 
d="M367 582q18 15 48 15q29 0 47 -19t18 -48q0 -37 -24 -60.5t-62 -23.5t-61.5 27t-23.5 69q0 80 64.5 132t153.5 55l-2 -16q-64 -5 -109 -41.5t-49 -89.5zM155 582q18 15 47 15t47.5 -19t18.5 -48q0 -37 -24.5 -60.5t-61.5 -23.5q-39 0 -62 27t-23 69q0 80 64.5 132
t153.5 55l-2 -16q-64 -5 -109 -41.5t-49 -89.5z" />
    <glyph glyph-name="quotedblright" unicode="&#x201d;" horiz-adv-x="441" 
d="M195 570q-29 0 -47 19t-18 49q0 37 24 60.5t62 23.5t61 -27t23 -70q0 -80 -64 -132t-153 -54l2 16q64 5 109 41.5t49 89.5q-19 -16 -48 -16zM407 570q-29 0 -47 19t-18 49q0 37 24 60.5t62 23.5t61.5 -27t23.5 -70q0 -80 -64.5 -132t-153.5 -54l2 16q64 5 109 41.5
t49 89.5q-19 -16 -48 -16z" />
    <glyph glyph-name="quotedblbase" unicode="&#x201e;" horiz-adv-x="441" 
d="M313 15q-20 -15 -47 -15q-29 0 -47.5 19t-18.5 48q0 37 24.5 61t61.5 24q39 0 62 -27t23 -70q0 -80 -64.5 -132t-153.5 -55l2 17q64 5 109 41t49 89zM101 15q-20 -15 -48 -15q-29 0 -47 19t-18 48q0 37 24.5 61t61.5 24q38 0 61.5 -27t23.5 -70q0 -80 -64.5 -132
t-153.5 -55l2 17q64 5 109 41t49 89z" />
    <glyph glyph-name="dagger" unicode="&#x2020;" horiz-adv-x="425" 
d="M337 552q-87 -183 -130 -344h-8q16 72 26.5 158t12.5 136l2 50q2 27 -24 32q-27 -52 -66 -52q-15 0 -25 9.5t-10 24.5q0 20 14.5 33t35.5 18q-1 -25 19 -25q7 0 22 4t24 4q15 0 32 -11t21 -24q14 84 -15 150q32 34 67 34q38 0 52 -34q-61 -65 -89 -150q11 13 34 24t38 11
q9 0 22.5 -4t20.5 -4q21 0 31 25q29 -9 29 -36q0 -20 -15 -34.5t-34 -14.5q-20 0 -33.5 14.5t-14.5 37.5q-26 -5 -39 -32z" />
    <glyph glyph-name="daggerdbl" unicode="&#x2021;" horiz-adv-x="426" 
d="M272 466h-7q6 51 -9 99t-32 60q-31 -53 -63 -53q-15 0 -25 10t-10 24q0 19 14.5 32t35.5 18q-1 -25 19 -25q7 0 22 4.5t24 4.5q17 0 34 -9t21 -23q9 58 -27 106q30 35 69 35q40 0 50 -35q-59 -48 -79 -106q11 13 33.5 22.5t39.5 9.5q9 0 22 -4.5t20 -4.5q20 0 31 25
q29 -8 29 -38q0 -20 -14.5 -33t-33.5 -13q-42 0 -44 53q-23 -12 -62 -60.5t-58 -98.5zM260 447h7q-6 -50 9 -98.5t32 -59.5q29 53 63 53q15 0 25 -10t10 -24q0 -20 -15 -33t-36 -18q3 25 -18 25q-7 0 -22 -4t-24 -4q-17 0 -34.5 9t-21.5 22q-7 -58 27 -105q-28 -36 -68 -36
t-50 36q59 46 79 105q-11 -13 -33.5 -22t-39.5 -9q-9 0 -22 4t-20 4q-21 0 -31 -25q-29 10 -29 39q0 19 14.5 32.5t32.5 13.5q43 0 45 -53q22 11 61.5 59.5t58.5 98.5z" />
    <glyph glyph-name="bullet" unicode="&#x2022;" horiz-adv-x="362" 
d="M48 276q0 58 41.5 99.5t99.5 41.5t99 -41.5t41 -99.5t-41 -99.5t-99 -41.5t-99.5 41.5t-41.5 99.5z" />
    <glyph glyph-name="ellipsis" unicode="&#x2026;" horiz-adv-x="666" 
d="M167 80q0 -37 -25.5 -62.5t-62.5 -25.5t-62 25.5t-25 62.5t25 62.5t62 25.5t62.5 -25.5t25.5 -62.5zM380 80q0 -37 -25.5 -62.5t-62.5 -25.5t-62 25.5t-25 62.5t25 62.5t62 25.5t62.5 -25.5t25.5 -62.5zM592 80q0 -37 -25.5 -62.5t-62.5 -25.5t-62 25.5t-25 62.5t25 62.5
t62 25.5t62.5 -25.5t25.5 -62.5z" />
    <glyph glyph-name="perthousand" unicode="&#x2030;" horiz-adv-x="1024" 
d="M79 0h-45l588 672q-23 -17 -63 -30t-79 -13q-55 0 -99 22q21 -30 21 -74q0 -71 -52.5 -123t-124.5 -52q-54 0 -91 39t-37 94q0 71 52.5 123t124.5 52q38 0 98 -30t109 -30q95 0 185 69l11 -9zM222 420q35 0 64.5 74.5t29.5 136.5q0 61 -39 61q-35 0 -64 -74t-30 -137
q0 -61 39 -61zM462 -5q-54 0 -91 39t-37 94q0 71 52.5 123t124.5 52q54 0 91 -39t37 -94q0 -71 -52.5 -123t-124.5 -52zM803 -5q-54 0 -91 39t-37 94q0 71 53 123t125 52q54 0 90.5 -39t36.5 -94q0 -71 -52.5 -123t-124.5 -52zM459 13q35 0 64.5 74.5t29.5 136.5
q0 61 -39 61q-35 0 -64 -74t-30 -137q0 -61 39 -61zM800 13q36 0 65 74.5t29 136.5q0 61 -38 61q-35 0 -64.5 -74t-30.5 -137q0 -61 39 -61z" />
    <glyph glyph-name="guilsinglleft" unicode="&#x2039;" horiz-adv-x="301" 
d="M20 243v2q175 82 301 194h4q-83 -129 -159 -202q47 -89 62 -188h-4q-70 113 -204 194z" />
    <glyph glyph-name="guilsinglright" unicode="&#x203a;" horiz-adv-x="301" 
d="M280 245v-2q-175 -82 -301 -194h-4q81 126 160 202q-48 87 -62 188h4q68 -113 203 -194z" />
    <glyph glyph-name="fraction" unicode="&#x2044;" horiz-adv-x="351" 
d="M-81 -123l515 872h32l-514 -872h-33z" />
    <glyph glyph-name="Euro" unicode="&#x20ac;" horiz-adv-x="637" 
d="M601 205q-33 -105 -103 -160t-163 -55q-102 0 -166.5 67.5t-64.5 188.5q0 16 2 46h-73l6 21h70q5 41 16 75h-68l6 21h68q45 131 146.5 216.5t222.5 85.5q78 0 127.5 -34.5t49.5 -93.5q0 -50 -32 -79t-77 -29q-29 0 -50.5 13t-28.5 32q6 -1 11 -1q35 0 58.5 26t23.5 66
q0 79 -76 79q-72 0 -135.5 -82t-95.5 -199h200l-14 -21h-191q-11 -44 -13 -75h163l-14 -21h-151q-2 -26 -2 -40q0 -91 39.5 -141t108.5 -50q122 0 195 144h5z" />
    <glyph glyph-name="uni2117" unicode="&#x2117;" horiz-adv-x="810" 
d="M408 -10q-143 0 -239.5 93t-96.5 236q0 169 113 280t273 111q143 0 239.5 -93t96.5 -236q0 -169 -113 -280t-273 -111zM93 321q0 -135 91 -222.5t226 -87.5q150 0 256.5 104.5t106.5 263.5q0 135 -91 222.5t-225 87.5q-151 0 -257.5 -104.5t-106.5 -263.5zM384 318
l-25 -100q-7 -28 -1.5 -41.5t29.5 -26.5v-2h-177v2q22 12 32.5 26.5t17.5 43.5l67 265q8 29 4.5 43.5t-20.5 27.5v1h203q64 0 99.5 -25.5t35.5 -71.5q0 -69 -53.5 -105.5t-136.5 -36.5h-75zM388 335h40q53 0 88 38t35 94q2 74 -73 74h-39z" />
    <glyph glyph-name="trademark" unicode="&#x2122;" horiz-adv-x="867" 
d="M187 700h255q17 0 26 3l-13 -107h-3l-3 9q-9 27 -14.5 40t-19 25t-33.5 12h-29l-59 -238q-4 -23 -1 -30t18 -19v-2h-147v2q15 8 21 12.5t12 13.5t10 23l59 238h-30q-21 0 -42 -14t-34.5 -29t-34.5 -43h-3l39 107q9 -3 26 -3zM665 515l127 185h119l-1 -2
q-20 -11 -26.5 -19t-11.5 -29l-52 -207q-4 -23 -1.5 -29.5t16.5 -18.5l-1 -2h-136l1 2q18 11 23.5 18.5t10.5 29.5l54 215l-186 -269h-2l-50 269l-54 -215q-4 -23 -1 -29t17 -19l-1 -2h-77l1 2q20 12 26.5 20t11.5 28l52 204q4 22 1.5 31t-15.5 20v2h118z" />
    <glyph glyph-name="uni2153" unicode="&#x2153;" horiz-adv-x="405" 
d="M210 450l52 210q4 15 -3.5 21.5t-36.5 12.5l1 6h131l-62 -250q-4 -15 3.5 -21.5t35.5 -12.5l-1 -6h-178l1 6q31 6 42 12t15 22zM413 358l-4 -16h-365l4 16h365zM200 294q41 0 70 -17t29 -47q0 -34 -29.5 -53t-69.5 -22q32 -5 53.5 -21.5t21.5 -42.5q0 -47 -41 -71
t-98 -24q-34 0 -65 15.5t-31 50.5q0 26 18 41.5t45 15.5q36 0 45 -25l-1 -1q-5 3 -11 3q-16 0 -24.5 -13t-8.5 -30q0 -43 33 -43q26 0 43 31t17 68q0 39 -43 42l1 7q33 1 52 29t19 61q0 31 -25 31q-19 0 -31.5 -15.5t-12.5 -35.5q0 -22 16 -24q3 0 9 2l1 -2q-14 -17 -44 -17
q-19 0 -31 10t-12 28q0 33 31.5 51t73.5 18z" />
    <glyph glyph-name="uni2154" unicode="&#x2154;" horiz-adv-x="405" 
d="M333 650q0 39 -34 39q-24 0 -39 -14.5t-15 -40.5q0 -31 24 -31q10 0 20 7h3q-21 -37 -59 -37q-20 0 -33 12.5t-13 31.5q0 41 35.5 64t79.5 23q45 0 75 -18t30 -53q0 -15 -5 -28.5t-11.5 -24t-20 -22t-23.5 -19t-30 -18.5t-31 -16l-35.5 -16.5l-34.5 -16.5h73
q35 0 51.5 6.5t37.5 28.5h5l-35 -97h-222v4l44 36l38.5 31.5l31.5 26.5t27.5 24l21 20.5t17.5 20l12 18t9 19t4 19t2 21.5zM413 358l-4 -16h-365l4 16h365zM103 119q36 0 45 -25l-1 -1q-5 3 -11 3q-16 0 -24.5 -13t-8.5 -30q0 -43 33 -43q26 0 43 31t17 68q0 39 -43 42l1 7
q33 1 52 29t19 61q0 31 -25 31q-19 0 -31.5 -15.5t-12.5 -35.5q0 -22 16 -24q3 0 9 2l1 -2q-14 -17 -44 -17q-19 0 -31 10t-12 28q0 33 31.5 51t73.5 18q41 0 70 -17t29 -47q0 -34 -29.5 -53t-69.5 -22q32 -5 53.5 -21.5t21.5 -42.5q0 -47 -41 -71t-98 -24q-34 0 -65 15.5
t-31 50.5q0 26 18 41.5t45 15.5z" />
    <glyph glyph-name="uni215B" unicode="&#x215b;" horiz-adv-x="405" 
d="M210 450l52 210q4 15 -3.5 21.5t-36.5 12.5l1 6h131l-62 -250q-4 -15 3.5 -21.5t35.5 -12.5l-1 -6h-178l1 6q31 6 42 12t15 22zM413 358l-4 -16h-365l4 16h365zM221 174q62 -31 62 -73q0 -48 -38 -76.5t-89 -28.5q-47 0 -78.5 20t-31.5 52q0 29 24.5 47.5t55.5 20.5
q-36 23 -36 59q0 43 32.5 71t82.5 28q32 0 60.5 -15.5t28.5 -44.5q0 -27 -22.5 -43t-50.5 -17zM203 280q-20 0 -34 -12.5t-14 -32.5q0 -26 26 -40l33 -18q15 8 24.5 25.5t9.5 35.5q0 42 -45 42zM181 105l-50 28q-36 -25 -36 -64q0 -25 16.5 -41.5t43.5 -16.5q24 0 41 14.5
t17 36.5q0 25 -32 43z" />
    <glyph glyph-name="uni215C" unicode="&#x215c;" horiz-adv-x="405" 
d="M249 507q-16 0 -24.5 -13t-8.5 -31q0 -42 33 -42q26 0 43 30.5t17 68.5t-42 41v8q34 1 52.5 28.5t18.5 61.5q0 31 -25 31q-19 0 -31.5 -15.5t-12.5 -36.5q0 -23 16 -23q6 0 9 2l1 -2q-14 -17 -43 -17q-19 0 -31.5 10t-12.5 28q0 32 32 50t73 18q42 0 71 -17t29 -47
q0 -33 -29 -52.5t-70 -22.5q32 -4 53.5 -21t21.5 -43q0 -47 -41.5 -71t-98.5 -24q-34 0 -65 15.5t-31 50.5q0 26 18.5 41.5t45.5 15.5q36 0 44 -24l-1 -2q-4 4 -11 4zM413 358l-4 -16h-365l4 16h365zM294 234q0 -27 -22.5 -43t-50.5 -17q62 -31 62 -73q0 -48 -38 -76.5
t-89 -28.5q-47 0 -78.5 20t-31.5 52q0 29 24.5 47.5t55.5 20.5q-36 23 -36 59q0 43 32.5 71t82.5 28q32 0 60.5 -15.5t28.5 -44.5zM248 238q0 42 -45 42q-20 0 -34 -12.5t-14 -32.5q0 -26 26 -40l33 -18q15 8 24.5 25.5t9.5 35.5zM213 62q0 25 -32 43l-50 28
q-36 -25 -36 -64q0 -25 16.5 -41.5t43.5 -16.5q24 0 41 14.5t17 36.5z" />
    <glyph glyph-name="uni215D" unicode="&#x215d;" horiz-adv-x="405" 
d="M234 407q-33 0 -63 16t-30 48q0 25 17 40t42 15q37 0 46 -23l-1 -2q-4 4 -12 4q-15 0 -23.5 -14t-8.5 -31q0 -39 33 -39q29 0 45 30.5t16 68.5q0 55 -46 56q-30 0 -57 -25h-4l48 153q52 -9 94 -9q52 0 74 16h1q-7 -40 -27 -59.5t-62 -19.5t-83 17l-24 -74q28 21 77 20
q40 0 64 -20.5t24 -55.5q0 -52 -41.5 -82t-98.5 -30zM413 358l-4 -16h-365l4 16h365zM294 234q0 -27 -22.5 -43t-50.5 -17q62 -31 62 -73q0 -48 -38 -76.5t-89 -28.5q-47 0 -78.5 20t-31.5 52q0 29 24.5 47.5t55.5 20.5q-36 23 -36 59q0 43 32.5 71t82.5 28q32 0 60.5 -15.5
t28.5 -44.5zM248 238q0 42 -45 42q-20 0 -34 -12.5t-14 -32.5q0 -26 26 -40l33 -18q15 8 24.5 25.5t9.5 35.5zM213 62q0 25 -32 43l-50 28q-36 -25 -36 -64q0 -25 16.5 -41.5t43.5 -16.5q24 0 41 14.5t17 36.5z" />
    <glyph glyph-name="uni215E" unicode="&#x215e;" horiz-adv-x="405" 
d="M179 584h-4l38 116h215v-1l-83 -95q-33 -38 -54 -90t-24 -100l-87 -9q19 55 54.5 100t94.5 101l19 19h-109q-18 0 -30 -8t-30 -33zM413 358l-4 -16h-365l4 16h365zM294 234q0 -27 -22.5 -43t-50.5 -17q62 -31 62 -73q0 -48 -38 -76.5t-89 -28.5q-47 0 -78.5 20t-31.5 52
q0 29 24.5 47.5t55.5 20.5q-36 23 -36 59q0 43 32.5 71t82.5 28q32 0 60.5 -15.5t28.5 -44.5zM248 238q0 42 -45 42q-20 0 -34 -12.5t-14 -32.5q0 -26 26 -40l33 -18q15 8 24.5 25.5t9.5 35.5zM213 62q0 25 -32 43l-50 28q-36 -25 -36 -64q0 -25 16.5 -41.5t43.5 -16.5
q24 0 41 14.5t17 36.5z" />
    <glyph glyph-name="minus" unicode="&#x2212;" horiz-adv-x="479" 
d="M60 308l6 28h391l-6 -28h-391z" />
    <glyph glyph-name="approxequal" unicode="&#x2248;" horiz-adv-x="484" 
d="M65 332l9 37q64 51 116 51q35 0 84.5 -28t80.5 -28q54 0 125 58l-9 -37q-64 -51 -116 -51q-35 0 -84.5 28t-80.5 28q-54 0 -125 -58zM42 225l9 37q64 51 116 51q35 0 84.5 -28t80.5 -28q54 0 125 58l-9 -37q-64 -51 -116 -51q-35 0 -84.5 28t-80.5 28q-54 0 -125 -58z
" />
    <glyph glyph-name="notequal" unicode="&#x2260;" horiz-adv-x="484" 
d="M438 246h-239l-107 -101h-36l107 101h-117l7 27h138l106 100h-219l6 27h241l105 99h36l-105 -99h115l-6 -27h-137l-106 -100h218z" />
    <glyph glyph-name="lessequal" unicode="&#x2264;" horiz-adv-x="351" 
d="M56 345l4 16l316 125l-8 -33l-261 -102l210 -102l-8 -29zM4 139l7 27h285l-7 -27h-285z" />
    <glyph glyph-name="greaterequal" unicode="&#x2265;" horiz-adv-x="351" 
d="M350 361l-4 -16l-316 -125l8 33l261 102l-210 102l8 29zM300 166l-6 -27h-285l6 27h285z" />
    <glyph glyph-name="uni00200326" horiz-adv-x="500" 
d="M239 -125q0 -61 -50 -101t-132 -41l3 15q110 10 125 83q-20 -16 -50 -16q-26 0 -42.5 17.5t-17.5 42.5q0 33 25 56.5t60 23.5q36 0 57.5 -22t21.5 -58z" />
    <glyph glyph-name="uni00200323" horiz-adv-x="500" 
d="M156 -56q36 0 59.5 -23t23.5 -58t-25.5 -60.5t-62.5 -25.5q-35 0 -58.5 23.5t-23.5 57.5q0 36 25 61t62 25z" />
    <glyph glyph-name="i.dot" horiz-adv-x="290" 
d="M244 736q35 0 57 -22.5t22 -55.5q0 -36 -25.5 -61.5t-63.5 -25.5q-35 0 -57 22t-22 55q0 37 26 62.5t63 25.5zM271 492l-98 -396q-3 -10 -3 -19q0 -39 41 -39q24 0 54 15l1 -2q-60 -61 -134 -61q-48 0 -74.5 24.5t-26.5 65.5q0 14 5 34l68 272q7 27 7 42q0 34 -41 62v2
h201z" />
    <glyph glyph-name="hyphen.cap" horiz-adv-x="322" 
d="M57 325l12 51h249l-12 -51h-249z" />
    <glyph glyph-name="endash.cap" horiz-adv-x="493" 
d="M58 330l10 40h420l-10 -40h-420z" />
    <glyph glyph-name="emdash.cap" horiz-adv-x="793" 
d="M59 330l9 40h720l-9 -40h-720z" />
    <glyph glyph-name="parenleft.cap" horiz-adv-x="348" 
d="M53 221q0 171 111 316.5t286 235.5h17q-127 -91 -210 -268.5t-83 -343.5q0 -178 76 -260h-17q-180 113 -180 320z" />
    <glyph glyph-name="parenright.cap" horiz-adv-x="348" 
d="M342 453q0 -170 -111.5 -316t-285.5 -236h-18q127 91 210.5 268.5t83.5 343.5q0 177 -77 260h18q180 -114 180 -320z" />
    <glyph glyph-name="bracketleft.cap" horiz-adv-x="329" 
d="M1 -99l218 872h234v-3l-130 -34l-199 -797l113 -35v-3h-236z" />
    <glyph glyph-name="bracketright.cap" horiz-adv-x="329" 
d="M374 773l-218 -872h-234v3l131 34l199 797l-113 35v3h235z" />
    <glyph glyph-name="braceleft.cap" horiz-adv-x="368" 
d="M38 334l1 6q120 4 154 145q5 20 9 66t11 75q16 66 78.5 106.5t149.5 40.5q29 0 49 -4v-4q-60 0 -102.5 -36.5t-58.5 -101.5q-6 -24 -10 -75t-9 -73q-12 -48 -53 -81.5t-77.5 -45.5t-69.5 -15q27 -3 54.5 -12t53 -35t25.5 -62q0 -38 -32.5 -110t-32.5 -120q0 -43 26 -66
t73 -23v-4q-23 -4 -53 -4q-75 0 -117 31t-42 84q0 38 31 111t31 118q0 86 -89 89z" />
    <glyph glyph-name="braceright.cap" horiz-adv-x="368" 
d="M377 340l-1 -6q-120 -4 -154 -145q-5 -20 -9 -66t-11 -75q-17 -66 -79 -106.5t-150 -40.5q-29 0 -49 4v4q60 0 103 36.5t59 101.5q5 23 9 74t10 74q11 48 52 81.5t77.5 45.5t69.5 15q-27 3 -54.5 12t-53 35t-25.5 62q0 38 32.5 110.5t32.5 119.5q0 43 -25.5 66t-72.5 23
v4q23 4 52 4q75 0 117 -31t42 -84q0 -38 -31 -111t-31 -118q0 -86 90 -89z" />
    <glyph glyph-name="guilsinglleft.cap" horiz-adv-x="301" 
d="M47 348v3q171 78 300 194h4q-80 -127 -159 -203q48 -87 62 -188h-4q-70 114 -203 194z" />
    <glyph glyph-name="guilsinglright.cap" horiz-adv-x="301" 
d="M307 351v-2q-175 -82 -301 -194h-4q83 129 159 202q-47 89 -62 188h4q70 -113 204 -194z" />
    <glyph glyph-name="guillemotleft.cap" horiz-adv-x="490" 
d="M236 349v2q175 82 301 194h4q-81 -126 -160 -202q48 -87 62 -188h-4q-68 113 -203 194zM47 351q176 82 300 194h4q-79 -125 -159 -202q48 -87 62 -188h-4q-69 112 -203 194v2z" />
    <glyph glyph-name="guillemotright.cap" horiz-adv-x="490" 
d="M306 351v-3q-176 -82 -300 -194h-4q79 125 159 202q-48 87 -62 189h4q70 -114 203 -194zM496 351v-3q-178 -83 -301 -194h-4q79 125 159 202q-48 87 -62 189h4q70 -115 204 -194z" />
    <glyph glyph-name="slash.cap" horiz-adv-x="349" 
d="M-76 -103l513 872h32l-512 -872h-33z" />
    <glyph glyph-name="backslash.cap" horiz-adv-x="349" 
d="M172 769l79 -872h-28l-79 872h28z" />
    <glyph glyph-name="bar.cap" horiz-adv-x="197" 
d="M-3 -103l217 872h30l-218 -872h-29z" />
    <glyph glyph-name="at.cap" horiz-adv-x="914" 
d="M747 544l-85 -294q-7 -21 -7 -39q0 -37 40 -37q56 0 114 84t58 199q0 128 -85 197.5t-218 69.5q-116 0 -216.5 -63.5t-158.5 -168t-58 -221.5q0 -152 93 -235t242 -83q194 0 328 104l2 -5q-61 -61 -149.5 -93.5t-182.5 -32.5q-181 0 -292 89t-111 255q0 128 69 238
t185.5 174t250.5 64q153 0 249 -75t96 -214q0 -146 -81.5 -237t-175.5 -91q-106 0 -114 101q-53 -101 -145 -101q-60 0 -96 41.5t-36 111.5q0 109 68.5 188.5t166.5 79.5q48 0 78 -23t37 -58q23 29 59.5 50t74.5 25zM558 312l28 102q7 21 7 41q0 29 -15 44.5t-38 15.5
q-54 0 -100.5 -80t-47.5 -166q0 -41 14.5 -67.5t41.5 -26.5q37 0 65.5 37.5t44.5 99.5z" />
    <glyph glyph-name="exclamdown.cap" horiz-adv-x="287" 
d="M150 621q0 37 25 62.5t62 25.5t62.5 -25.5t25.5 -62.5t-25.5 -62.5t-62.5 -25.5t-62 25.5t-25 62.5zM-7 1l213 471h5l-29 -471h-189z" />
    <glyph glyph-name="questiondown.cap" horiz-adv-x="515" 
d="M373 534q-37 0 -62 25.5t-25 62.5t25 62.5t62 25.5t62.5 -25.5t25.5 -62.5t-25.5 -62.5t-62.5 -25.5zM246 11q53 0 86 32.5t33 84.5q0 26 -14 41.5t-37 15.5q-19 0 -31 -8h-2q33 68 101 68q39 0 65 -26.5t26 -64.5q0 -77 -68 -119.5t-160 -42.5q-98 0 -160.5 50.5
t-62.5 129.5q0 103 83 164t210 74l18 70h21l-47 -186q-77 -10 -126 -52.5t-49 -119.5q0 -52 31 -81.5t83 -29.5z" />
    <glyph glyph-name="periodcentered.cap" horiz-adv-x="254" 
d="M240 346q0 -37 -25.5 -62.5t-62.5 -25.5t-62 25.5t-25 62.5t25 62.5t62 25.5t62.5 -25.5t25.5 -62.5z" />
    <glyph glyph-name="bullet.cap" horiz-adv-x="362" 
d="M66 345q0 58 41 99.5t99 41.5t99 -41.5t41 -99.5t-41 -99.5t-99 -41.5t-99 41.5t-41 99.5z" />
    <glyph glyph-name="E.1" horiz-adv-x="652" 
d="M613 202l-78 -202h-561v2q38 19 56 45t31 77l113 452q9 36 9 59q0 39 -36 63v2h204l-19 -74q148 84 244 84q53 0 86.5 -23.5t33.5 -69.5q0 -53 -45 -102h-2q5 13 5 31q0 49 -40.5 76t-109.5 27q-93 0 -177 -43l-58 -233h111q62 0 94.5 20.5t72.5 88.5h2l-59 -237h-2
q-6 66 -28.5 83t-86.5 17h-111l-79 -319h148q48 0 86.5 12t73.5 40t58 52.5t62 71.5h2z" />
    <glyph glyph-name="Egrave.1" 
d="M499 925q-15 -106 14 -184h-5q-118 76 -151 184h142zM613 202l-78 -202h-561v2q38 19 56 45t31 77l113 452q9 36 9 59q0 39 -36 63v2h204l-19 -74q148 84 244 84q53 0 86.5 -23.5t33.5 -69.5q0 -53 -45 -102h-2q5 13 5 31q0 49 -40.5 76t-109.5 27q-93 0 -177 -43
l-58 -233h111q62 0 94.5 20.5t72.5 88.5h2l-59 -237h-2q-6 66 -28.5 83t-86.5 17h-111l-79 -319h148q48 0 86.5 12t73.5 40t58 52.5t62 71.5h2z" />
    <glyph glyph-name="Eacute.1" 
d="M454 925h151q-84 -109 -241 -184h-5q62 74 95 184zM613 202l-78 -202h-561v2q38 19 56 45t31 77l113 452q9 36 9 59q0 39 -36 63v2h204l-19 -74q148 84 244 84q53 0 86.5 -23.5t33.5 -69.5q0 -53 -45 -102h-2q5 13 5 31q0 49 -40.5 76t-109.5 27q-93 0 -177 -43l-58 -233
h111q62 0 94.5 20.5t72.5 88.5h2l-59 -237h-2q-6 66 -28.5 83t-86.5 17h-111l-79 -319h148q48 0 86.5 12t73.5 40t58 52.5t62 71.5h2z" />
    <glyph glyph-name="Ecircumflex.1" 
d="M591 736q-76 29 -131 82q-76 -47 -189 -82h-9q66 49 130.5 109t98.5 106h4q10 -48 40 -108.5t66 -106.5h-10zM613 202l-78 -202h-561v2q38 19 56 45t31 77l113 452q9 36 9 59q0 39 -36 63v2h204l-19 -74q148 84 244 84q53 0 86.5 -23.5t33.5 -69.5q0 -53 -45 -102h-2
q5 13 5 31q0 49 -40.5 76t-109.5 27q-93 0 -177 -43l-58 -233h111q62 0 94.5 20.5t72.5 88.5h2l-59 -237h-2q-6 66 -28.5 83t-86.5 17h-111l-79 -319h148q48 0 86.5 12t73.5 40t58 52.5t62 71.5h2z" />
    <glyph glyph-name="Edieresis.1" 
d="M564 909q34 0 54.5 -20.5t20.5 -53.5t-24 -57t-60 -24q-32 0 -53 21t-21 52q0 35 24 58.5t59 23.5zM364 909q34 0 54.5 -20.5t20.5 -53.5t-24 -57t-60 -24q-32 0 -53 21t-21 52q0 35 24 58.5t59 23.5zM613 202l-78 -202h-561v2q38 19 56 45t31 77l113 452q9 36 9 59
q0 39 -36 63v2h204l-19 -74q148 84 244 84q53 0 86.5 -23.5t33.5 -69.5q0 -53 -45 -102h-2q5 13 5 31q0 49 -40.5 76t-109.5 27q-93 0 -177 -43l-58 -233h111q62 0 94.5 20.5t72.5 88.5h2l-59 -237h-2q-6 66 -28.5 83t-86.5 17h-111l-79 -319h148q48 0 86.5 12t73.5 40
t58 52.5t62 71.5h2z" />
    <glyph glyph-name="Emacron.1" 
d="M597 782h-297l9 37h297zM613 202l-78 -202h-561v2q38 19 56 45t31 77l113 452q9 36 9 59q0 39 -36 63v2h204l-19 -74q148 84 244 84q53 0 86.5 -23.5t33.5 -69.5q0 -53 -45 -102h-2q5 13 5 31q0 49 -40.5 76t-109.5 27q-93 0 -177 -43l-58 -233h111q62 0 94.5 20.5
t72.5 88.5h2l-59 -237h-2q-6 66 -28.5 83t-86.5 17h-111l-79 -319h148q48 0 86.5 12t73.5 40t58 52.5t62 71.5h2z" />
    <glyph glyph-name="Ebreve.1" 
d="M633 930q-20 -86 -73 -135t-122 -49q-67 0 -96.5 49t-11.5 135h6q-3 -43 35 -65.5t89 -22.5q52 0 101 23t65 65h7zM613 202l-78 -202h-561v2q38 19 56 45t31 77l113 452q9 36 9 59q0 39 -36 63v2h204l-19 -74q148 84 244 84q53 0 86.5 -23.5t33.5 -69.5q0 -53 -45 -102
h-2q5 13 5 31q0 49 -40.5 76t-109.5 27q-93 0 -177 -43l-58 -233h111q62 0 94.5 20.5t72.5 88.5h2l-59 -237h-2q-6 66 -28.5 83t-86.5 17h-111l-79 -319h148q48 0 86.5 12t73.5 40t58 52.5t62 71.5h2z" />
    <glyph glyph-name="Edotaccent.1" 
d="M468 918q35 0 57 -22t22 -55q0 -37 -26 -62.5t-63 -25.5q-35 0 -57 22.5t-22 55.5q0 36 25.5 61.5t63.5 25.5zM613 202l-78 -202h-561v2q38 19 56 45t31 77l113 452q9 36 9 59q0 39 -36 63v2h204l-19 -74q148 84 244 84q53 0 86.5 -23.5t33.5 -69.5q0 -53 -45 -102h-2
q5 13 5 31q0 49 -40.5 76t-109.5 27q-93 0 -177 -43l-58 -233h111q62 0 94.5 20.5t72.5 88.5h2l-59 -237h-2q-6 66 -28.5 83t-86.5 17h-111l-79 -319h148q48 0 86.5 12t73.5 40t58 52.5t62 71.5h2z" />
    <glyph glyph-name="Eogonek.1" 
d="M477 -133q-66 -106 -166 -106q-37 0 -61 19.5t-24 51.5q0 83 171 168h-423v2q38 19 56 45t31 77l113 452q9 36 9 59q0 39 -36 63v2h204l-19 -74q148 84 244 84q53 0 86.5 -23.5t33.5 -69.5q0 -53 -45 -102h-2q5 13 5 31q0 49 -40.5 76t-109.5 27q-93 0 -177 -43l-58 -233
h111q62 0 94.5 20.5t72.5 88.5h2l-59 -237h-2q-6 66 -28.5 83t-86.5 17h-111l-79 -319h148q48 0 86.5 12t73.5 40t58 52.5t62 71.5h2l-78 -202h-112q-102 -69 -102 -138q0 -45 50 -45q54 0 103 52z" />
    <glyph glyph-name="Ecaron.1" 
d="M336 951q79 -32 131 -82q70 43 189 82h9q-163 -124 -229 -215h-4q-9 48 -39 108t-67 107h10zM613 202l-78 -202h-561v2q38 19 56 45t31 77l113 452q9 36 9 59q0 39 -36 63v2h204l-19 -74q148 84 244 84q53 0 86.5 -23.5t33.5 -69.5q0 -53 -45 -102h-2q5 13 5 31
q0 49 -40.5 76t-109.5 27q-93 0 -177 -43l-58 -233h111q62 0 94.5 20.5t72.5 88.5h2l-59 -237h-2q-6 66 -28.5 83t-86.5 17h-111l-79 -319h148q48 0 86.5 12t73.5 40t58 52.5t62 71.5h2z" />
    <glyph glyph-name="F.1" horiz-adv-x="616" 
d="M255 2v-2h-281v2q38 19 56 45t31 77l113 452q9 36 9 59q0 39 -36 63v2h204l-18 -74q141 84 237 84q51 0 83 -23.5t32 -69.5q0 -53 -45 -102h-2q5 13 5 31q0 49 -39.5 76t-108.5 27q-85 0 -167 -43l-61 -245h109q62 0 94.5 20.5t72.5 88.5h2l-59 -237h-2q-6 66 -28.5 83
t-86.5 17h-110l-53 -214q-8 -30 -8 -47q0 -24 13 -39.5t44 -30.5z" />
    <glyph glyph-name="zero.op" horiz-adv-x="633" 
d="M397 636q108 0 169.5 -70.5t61.5 -174.5q0 -69 -25.5 -140t-70.5 -129t-114 -95t-148 -37q-106 0 -168.5 71t-62.5 175q0 69 25.5 139.5t70.5 128.5t114 95t148 37zM396 618q-110 0 -181 -300q-27 -117 -27 -184q0 -126 82 -126q111 0 182 300q27 117 27 184
q0 126 -83 126z" />
    <glyph glyph-name="one.op" horiz-adv-x="384" 
d="M305 0h-347v4l26.5 8.5t22.5 7.5t17.5 6.5t15.5 7t11 7t10.5 8l6.5 9.5t6.5 12.5t4.5 15.5l112 452q4 12 4 23q0 5 -1 9t-3.5 7.5l-4.5 6.5t-7 6l-9.5 5.5t-12 6t-13.5 6l-17 7t-19 7.5v4h253l-135 -540q-3 -13 -3 -23q0 -5 0.5 -9t3 -8t4.5 -6.5t7.5 -6l8.5 -5.5
t11.5 -5.5t13 -5.5t15.5 -6t18 -7v-4z" />
    <glyph glyph-name="two.op" horiz-adv-x="532" 
d="M329 618q-62 0 -98.5 -42t-36.5 -106q0 -33 16 -51t43 -18q29 0 48 15h2q-42 -72 -120 -72q-43 0 -72 27.5t-29 69.5q0 89 73 142t177 53q94 0 154 -39.5t60 -112.5q0 -30 -9.5 -57.5t-24 -50t-41 -46t-51.5 -41.5t-65.5 -42l-72.5 -41.5l-82.5 -45l-87.5 -48.5h168
q81 0 122 16t89 70h2l-74 -198h-469v2q254 202 325 269q107 102 130 185q9 35 9 74q0 88 -85 88z" />
    <glyph glyph-name="three.op" horiz-adv-x="541" 
d="M205 8q68 0 108 66.5t40 144.5q0 106 -111 112v9q82 1 126 63t44 139q0 35 -18.5 56t-53.5 21q-44 0 -73.5 -35t-29.5 -80q0 -23 10 -36.5t27 -13.5q15 0 24 5h2q-30 -42 -90 -42q-38 0 -61.5 20.5t-23.5 55.5q0 68 64 105.5t151 37.5q86 0 147 -36t61 -100
q0 -71 -63 -115t-153 -51q70 -9 117 -46t47 -94q0 -67 -43 -114.5t-107 -68.5t-141 -21q-32 0 -65.5 7.5t-67.5 22.5t-55.5 44.5t-21.5 68.5q0 54 36 87t90 33q32 0 58.5 -15t33.5 -42h-2q-8 10 -28 10q-31 0 -50.5 -30.5t-19.5 -69.5q0 -46 23.5 -72t68.5 -26z" />
    <glyph glyph-name="four.op" horiz-adv-x="630" 
d="M310 213l81 321l-326 -321h245zM302 184h-299v3l445 439h108l-103 -413h42q44 0 64.5 13t50.5 56h2l-41 -167h-2q-10 44 -24 56.5t-58 12.5h-41l-15 -60q-10 -36 -10 -61q0 -39 35 -61v-2h-255v2q38 19 56 45t30 77z" />
    <glyph glyph-name="five.op" horiz-adv-x="537" 
d="M203 7q49 0 85 36t52 85.5t16 102.5q0 59 -26 93t-81 35q-75 0 -138 -58h-1l108 330q100 -17 196 -17q61 0 96 7.5t66 31.5h2q-15 -78 -60 -119.5t-133 -41.5q-43 0 -96 10t-83 22l-56 -177q67 51 168 50q84 -2 135 -46t51 -118q0 -109 -88.5 -176t-212.5 -67
q-43 0 -86.5 11.5t-80.5 45t-37 82.5q0 51 35 83t87 32q33 0 59 -14t33 -40h-2q-11 9 -27 9q-31 0 -50 -30t-19 -67q0 -45 22.5 -70t65.5 -25z" />
    <glyph glyph-name="six.op" horiz-adv-x="581" 
d="M459 538q26 0 43 23t17 57q0 35 -19 55t-54 20q-59 0 -115 -60.5t-91 -143.5t-47 -165q63 112 180 112q75 0 126.5 -47t51.5 -125q0 -117 -82 -195.5t-202 -78.5q-105 0 -163.5 73.5t-58.5 191.5q0 79 31.5 160.5t84 147t128 106.5t156.5 41q75 0 124 -34t49 -95
q0 -47 -29.5 -76t-73.5 -29q-37 0 -61.5 20t-26.5 53h2q11 -11 30 -11zM259 8q46 0 83 48.5t55 112.5t18 123q0 112 -82 112q-46 0 -83.5 -48.5t-56 -113t-18.5 -123.5q0 -51 20.5 -81t63.5 -30z" />
    <glyph glyph-name="seven.op" horiz-adv-x="515" 
d="M128 636q16 -10 66 -10h411v-2l-169 -188q-191 -207 -241 -501l-164 -15q27 76 66.5 146.5t96.5 139t102.5 116.5t120.5 121l50 48h-240q-66 0 -102 -19t-76 -76h-2z" />
    <glyph glyph-name="eight.op" horiz-adv-x="559" 
d="M547 505q0 -60 -51 -96.5t-117 -43.5q140 -64 140 -161q0 -99 -81.5 -156.5t-189.5 -57.5q-102 0 -171 41.5t-69 113.5q0 64 56 106t130 49q-85 54 -85 134q0 88 70.5 145t173.5 57q72 0 133 -34.5t61 -96.5zM460 520q0 45 -28.5 72t-77.5 27q-52 0 -87.5 -32t-35.5 -83
q0 -58 67 -96l72 -38q40 21 65 62t25 88zM314 237l-112 59q-43 -24 -69 -65t-26 -94q0 -59 38.5 -94t102.5 -35q58 0 101.5 33.5t43.5 90.5q0 60 -79 105z" />
    <glyph glyph-name="nine.op" horiz-adv-x="581" 
d="M355 617q-46 0 -83 -48.5t-55 -112.5t-18 -123q0 -112 82 -112q46 0 83.5 48.5t56 113t18.5 123.5q0 51 -20.5 81t-63.5 30zM155 87q-26 0 -43 -23t-17 -57q0 -35 19 -55t54 -20q59 0 115 60.5t91 143.5t47 165q-63 -112 -180 -112q-75 0 -126.5 47t-51.5 125
q0 117 82 195.5t202 78.5q105 0 163.5 -73.5t58.5 -191.5q0 -79 -31.5 -160.5t-84 -147t-128 -106.5t-156.5 -41q-75 0 -124 34t-49 95q0 47 29.5 76t73.5 29q37 0 61.5 -20t26.5 -53h-2q-11 11 -30 11z" />
    <glyph glyph-name="percent.op" horiz-adv-x="729" 
d="M125 0h-45l524 599q-23 -17 -63 -30t-79 -13q-55 0 -99 22q21 -31 21 -74q0 -71 -52.5 -123t-124.5 -52q-54 0 -91 38.5t-37 93.5q0 72 52.5 123.5t124.5 51.5q38 0 98 -29.5t109 -29.5q95 0 185 69l11 -9zM204 347q35 0 64.5 74.5t29.5 136.5q0 61 -39 61q-35 0 -64 -74
t-30 -137q0 -61 39 -61zM508 -5q-54 0 -91 39t-37 94q0 71 52.5 123t124.5 52q54 0 91 -39t37 -94q0 -71 -52.5 -123t-124.5 -52zM505 13q35 0 64.5 74.5t29.5 136.5q0 61 -39 61q-35 0 -64 -74t-30 -137q0 -61 39 -61z" />
    <glyph glyph-name="perthousand.op" horiz-adv-x="1069" 
d="M125 0h-45l524 599q-23 -17 -63 -30t-79 -13q-55 0 -99 22q21 -31 21 -74q0 -71 -52.5 -123t-124.5 -52q-54 0 -91 38.5t-37 93.5q0 72 52.5 123.5t124.5 51.5q38 0 98 -29.5t109 -29.5q95 0 185 69l11 -9zM204 347q35 0 64.5 74.5t29.5 136.5q0 61 -39 61q-35 0 -64 -74
t-30 -137q0 -61 39 -61zM507 -5q-54 0 -90.5 39t-36.5 94q0 71 52.5 123t124.5 52q54 0 90.5 -39t36.5 -94q0 -71 -52.5 -123t-124.5 -52zM849 -5q-54 0 -91 39t-37 94q0 71 52.5 123t124.5 52q54 0 91 -39t37 -94q0 -71 -52.5 -123t-124.5 -52zM504 13q36 0 65 74.5
t29 136.5q0 61 -38 61q-36 0 -65 -74.5t-29 -136.5q-2 -61 38 -61zM846 13q35 0 64.5 74.5t29.5 136.5q0 61 -39 61q-35 0 -64 -74t-30 -137q-2 -61 39 -61z" />
    <glyph glyph-name="dollar.op" horiz-adv-x="549" 
d="M347 616h-9l-54 -215q25 -13 56 -24l58 232q-21 7 -51 7zM209 492q0 -49 60 -83l51 205q-50 -8 -80.5 -42.5t-30.5 -79.5zM235 9h14l58 233q-4 2 -57 23l-62 -250q22 -6 47 -6zM393 143q0 56 -72 92l-56 -224q59 8 93.5 44t34.5 88zM230 -10q-16 0 -48 2l-26 -106h-17
l27 109q-79 12 -126 49t-47 85q0 38 27.5 60.5t67.5 22.5q43 -2 63 -25q-24 -1 -40 -20t-16 -50q0 -32 21 -58t56 -39l63 251q-68 28 -105 62.5t-37 96.5q0 82 66 139t166 65l25 100h17l-25 -99h9q27 0 53 -3l25 102h17l-26 -105q65 -12 104 -43t39 -72q0 -34 -23 -55
t-60 -21q-42 0 -64 26q22 2 37.5 20.5t15.5 44.5q0 51 -56 75l-58 -234q36 -14 58 -25.5t47.5 -31t38 -45.5t12.5 -60q0 -90 -72.5 -149t-178.5 -68l-26 -105h-16l26 104h-14z" />
    <glyph glyph-name="sterling.op" horiz-adv-x="647" 
d="M442 -27q-18 0 -35 3l-30 5.5t-30 11t-25.5 12t-26 16t-22 16l-24 18t-21.5 16.5q-77 -80 -175 -80q-38 0 -63 21.5t-25 55.5q0 40 32 65t79 25q38 0 99 -22q12 35 18 78q6 41 10 102h-101l5 21h98q5 48 8 72q10 105 89 166t196 61q73 0 121.5 -32t48.5 -83
q0 -50 -31 -77t-74 -28q-31 0 -52.5 12.5t-27.5 30.5q40 -5 67 22.5t27 72.5q0 30 -20 48t-51 17q-87 0 -120 -146l-32 -136h124l-5 -21h-124l-1 -3q-30 -126 -90 -206q90 -30 147 -30q63 0 97.5 24.5t34.5 69.5q0 23 -10 41q68 -30 68 -100q-1 -64 -45.5 -101.5
t-107.5 -37.5zM50 12q77 0 117 101q-47 25 -93 25q-37 0 -61.5 -19t-24.5 -51q0 -26 17 -41t45 -15z" />
    <glyph glyph-name="yen.op" horiz-adv-x="638" 
d="M384 2v-2h-251v2q39 20 57 44t30 73l27 105h-177l6 21h176l8 32l-16 41h-149l5 21h136l-72 181q-27 70 -64 104v2h263v-2q-53 -31 -54 -73q0 -15 6 -31l77 -206l178 198q35 40 35 67q0 28 -29 45v2h153v-2q-32 -19 -55.5 -40.5t-61.5 -63.5l-162 -181h135l-5 -21h-148
l-37 -41l-8 -32h173l-5 -21h-173l-26 -105q-9 -33 -9 -55q0 -38 37 -62z" />
    <glyph glyph-name="Euro.op" horiz-adv-x="621" 
d="M578 188q-35 -96 -100 -147t-154 -51q-101 0 -164 61.5t-63 170.5q0 14 2 40h-69l6 21h65q6 39 18 75h-65l6 21h66q44 114 138 185.5t210 72.5q78 0 126.5 -31t48.5 -84q0 -45 -30.5 -71t-73.5 -26q-55 0 -75 41q5 -1 11 -1q33 0 55.5 23t22.5 59q0 33 -20 51.5t-59 18.5
q-70 0 -128 -68t-87 -170h185l-13 -21h-178q-8 -33 -13 -75h149l-13 -21h-138q-1 -11 -1 -32q0 -78 39 -120.5t107 -42.5q58 0 102 27t82 94h5z" />
    <glyph glyph-name="uni0192.op" horiz-adv-x="553" 
d="M-1 -200q-64 0 -103 22t-39 64q0 36 24.5 58t61.5 22q39 0 62 -21q-25 -2 -41 -23.5t-16 -51.5q0 -25 14 -39.5t38 -14.5q57 0 90 124l90 335h-91l6 21h90l33 123q28 103 92.5 160t159.5 57q65 0 104 -22.5t39 -65.5q0 -37 -25 -58.5t-63 -21.5q-42 0 -64 20
q25 2 41 24.5t16 55.5q0 52 -48 52q-59 0 -92 -124l-53 -200h115l-6 -21h-115l-64 -239q-64 -236 -256 -236z" />
    </font>
</defs>
</svg>
